  0
SECTION
  2
HEADER
  9
$ACADVER
  1
AC1014
  9
$HANDSEED
  5
FFFF
  9
$MEASUREMENT
 70
     1
  0
ENDSEC
  0
SECTION
  2
TABLES
  0
TABLE
  2
VPORT
  5
8
330
0
100
AcDbSymbolTable
 70
     4
  0
VPORT
  5
2E
330
8
100
AcDbSymbolTableRecord
100
AcDbViewportTableRecord
  2
*ACTIVE
 70
     0
 10
0.0
 20
0.0
 11
1.0
 21
1.0
 12
210.0
 22
148.5
 13
0.0
 23
0.0
 14
10.0
 24
10.0
 15
10.0
 25
10.0
 16
0.0
 26
0.0
 36
1.0
 17
0.0
 27
0.0
 37
0.0
 40
341.0
 41
1.24
 42
50.0
 43
0.0
 44
0.0
 50
0.0
 51
0.0
 71
     0
 72
   100
 73
     1
 74
     3
 75
     0
 76
     0
 77
     0
 78
     0
  0
ENDTAB
  0
TABLE
  2
LTYPE
  5
5
330
0
100
AcDbSymbolTable
 70
     1
  0
LTYPE
  5
14
330
5
100
AcDbSymbolTableRecord
100
AcDbLinetypeTableRecord
  2
BYBLOCK
 70
     0
  3

 72
    65
 73
     0
 40
0.0
  0
LTYPE
  5
15
330
5
100
AcDbSymbolTableRecord
100
AcDbLinetypeTableRecord
  2
BYLAYER
 70
     0
  3

 72
    65
 73
     0
 40
0.0
  0
LTYPE
  5
16
330
5
100
AcDbSymbolTableRecord
100
AcDbLinetypeTableRecord
  2
CONTINUOUS
 70
     0
  3
Solid line
 72
    65
 73
     0
 40
0.0
  0
ENDTAB
  0
TABLE
  2
LAYER
  5
2
100
AcDbSymbolTable
 70
1
  0
LAYER
  5
50
100
AcDbSymbolTableRecord
100
AcDbLayerTableRecord
  2
0
 70
0
  6
CONTINUOUS
  0
ENDTAB
  0
TABLE
  2
STYLE
  5
3
330
0
100
AcDbSymbolTable
 70
     1
  0
STYLE
  5
11
330
3
100
AcDbSymbolTableRecord
100
AcDbTextStyleTableRecord
  2
STANDARD
 70
     0
 40
0.0
 41
1.0
 50
0.0
 71
     0
 42
2.5
  3
txt
  4

  0
ENDTAB
  0
TABLE
  2
VIEW
  5
6
330
0
100
AcDbSymbolTable
 70
     0
  0
ENDTAB
  0
TABLE
  2
UCS
  5
7
330
0
100
AcDbSymbolTable
 70
     0
  0
ENDTAB
  0
TABLE
  2
APPID
  5
9
330
0
100
AcDbSymbolTable
 70
     2
  0
APPID
  5
12
330
9
100
AcDbSymbolTableRecord
100
AcDbRegAppTableRecord
  2
ACAD
 70
     0
  0
ENDTAB
  0
TABLE
  2
DIMSTYLE
  5
A
330
0
100
AcDbSymbolTable
 70
     1
  0
DIMSTYLE
105
27
330
A
100
AcDbSymbolTableRecord
100
AcDbDimStyleTableRecord
  2
ISO-25
 70
     0
  3

  4

  5

  6

  7

 40
1.0
 41
2.5
 42
0.625
 43
3.75
 44
1.25
 45
0.0
 46
0.0
 47
0.0
 48
0.0
140
2.5
141
2.5
142
0.0
143
0.03937007874016
144
1.0
145
0.0
146
1.0
147
0.625
 71
     0
 72
     0
 73
     0
 74
     0
 75
     0
 76
     0
 77
     1
 78
     8
170
     0
171
     3
172
     1
173
     0
174
     0
175
     0
176
     0
177
     0
178
     0
270
     2
271
     2
272
     2
273
     2
274
     3
340
11
275
     0
280
     0
281
     0
282
     0
283
     0
284
     8
285
     0
286
     0
287
     3
288
     0
  0
ENDTAB
  0
TABLE
  2
BLOCK_RECORD
  5
1
330
0
100
AcDbSymbolTable
 70
     1
  0
BLOCK_RECORD
  5
1F
330
1
100
AcDbSymbolTableRecord
100
AcDbBlockTableRecord
  2
*MODEL_SPACE
  0
BLOCK_RECORD
  5
1B
330
1
100
AcDbSymbolTableRecord
100
AcDbBlockTableRecord
  2
*PAPER_SPACE
  0
ENDTAB
  0
ENDSEC
  0
SECTION
  2
BLOCKS
  0
BLOCK
  5
20
330
1F
100
AcDbEntity
  8
0
100
AcDbBlockBegin
  2
*MODEL_SPACE
 70
     0
 10
0.0
 20
0.0
 30
0.0
  3
*MODEL_SPACE
  1

  0
ENDBLK
  5
21
330
1F
100
AcDbEntity
  8
0
100
AcDbBlockEnd
  0
BLOCK
  5
1C
330
1B
100
AcDbEntity
 67
     1
  8
0
100
AcDbBlockBegin
  2
*PAPER_SPACE
  1

  0
ENDBLK
  5
1D
330
1B
100
AcDbEntity
 67
     1
  8
0
100
AcDbBlockEnd
  0
ENDSEC
  0
SECTION
  2
ENTITIES
  0
LWPOLYLINE
  5
100
100
AcDbEntity
  8
0
 62
7
100
AcDbPolyline
 90
37
 70
0
 10
333.602984
 20
85.250976
 30
0.0
 10
329.957000
 20
86.700672
 30
0.0
 10
326.881496
 20
88.808216
 30
0.0
 10
324.540592
 20
91.430296
 30
0.0
 10
323.098408
 20
94.423608
 30
0.0
 10
322.755240
 20
96.820400
 30
0.0
 10
322.543432
 20
101.158544
 30
0.0
 10
322.468552
 20
107.234896
 30
0.0
 10
322.536232
 20
114.846312
 30
0.0
 10
322.908152
 20
126.900904
 30
0.0
 10
323.802440
 20
133.968155
 30
0.0
 10
325.655680
 20
137.776239
 30
0.0
 10
328.904496
 20
140.053329
 30
0.0
 10
333.928632
 20
141.574106
 30
0.0
 10
341.914784
 20
142.576921
 30
0.0
 10
352.669656
 20
143.046585
 30
0.0
 10
365.999960
 20
142.967913
 30
0.0
 10
380.573160
 20
142.300198
 30
0.0
 10
389.139760
 20
140.745450
 30
0.0
 10
393.565120
 20
137.633651
 30
0.0
 10
395.714608
 20
132.294787
 30
0.0
 10
396.506920
 20
125.359827
 30
0.0
 10
396.818832
 20
115.005354
 30
0.0
 10
396.631968
 20
104.321906
 30
0.0
 10
395.927960
 20
96.400002
 30
0.0
 10
395.021008
 20
92.479434
 30
0.0
 10
393.746160
 20
89.750090
 30
0.0
 10
391.817320
 20
87.793522
 30
0.0
 10
388.948408
 20
86.191282
 30
0.0
 10
386.304104
 20
85.243538
 30
0.0
 10
382.253680
 20
84.703690
 30
0.0
 10
374.713504
 20
84.424514
 30
0.0
 10
361.599960
 20
84.258762
 30
0.0
 10
349.634000
 20
84.197482
 30
0.0
 10
341.747176
 20
84.315138
 30
0.0
 10
336.787488
 20
84.652658
 30
0.0
 10
333.602984
 20
85.250976
 30
0.0
  0
LWPOLYLINE
  5
101
100
AcDbEntity
  8
0
 62
7
100
AcDbPolyline
 90
29
 70
0
 10
588.570216
 20
102.896456
 30
0.0
 10
588.064040
 20
104.355264
 30
0.0
 10
588.033960
 20
106.642360
 30
0.0
 10
588.415472
 20
108.920816
 30
0.0
 10
589.144208
 20
110.353664
 30
0.0
 10
589.829592
 20
110.702512
 30
0.0
 10
590.849928
 20
110.950392
 30
0.0
 10
592.067408
 20
111.074392
 30
0.0
 10
593.344208
 20
111.051592
 30
0.0
 10
594.108168
 20
110.988712
 30
0.0
 10
594.872120
 20
110.925832
 30
0.0
 10
595.636080
 20
110.862952
 30
0.0
 10
596.400040
 20
110.800072
 30
0.0
 10
596.400040
 20
109.800072
 30
0.0
 10
596.400040
 20
108.800072
 30
0.0
 10
596.400040
 20
107.800072
 30
0.0
 10
596.400040
 20
106.800072
 30
0.0
 10
596.400040
 20
105.800072
 30
0.0
 10
596.400040
 20
104.800072
 30
0.0
 10
596.400040
 20
103.800072
 30
0.0
 10
596.400040
 20
102.800072
 30
0.0
 10
595.492592
 20
102.740872
 30
0.0
 10
594.585152
 20
102.681672
 30
0.0
 10
593.677704
 20
102.622472
 30
0.0
 10
592.770256
 20
102.563272
 30
0.0
 10
591.315880
 20
102.516312
 30
0.0
 10
590.039216
 20
102.563512
 30
0.0
 10
589.078072
 20
102.693928
 30
0.0
 10
588.570216
 20
102.896456
 30
0.0
  0
ENDSEC
  0
SECTION
  2
OBJECTS
  0
DICTIONARY
  5
C
330
0
100
AcDbDictionary
  3
ACAD_GROUP
350
D
  3
ACAD_MLINESTYLE
350
17
  0
DICTIONARY
  5
D
330
C
100
AcDbDictionary
  0
DICTIONARY
  5
1A
330
C
100
AcDbDictionary
  0
DICTIONARY
  5
17
330
C
100
AcDbDictionary
  3
STANDARD
350
18
  0
DICTIONARY
  5
19
330
C
100
AcDbDictionary
  0
ENDSEC
  0
EOF
