  0
SECTION
  2
HEADER
  9
$ACADVER
  1
AC1014
  9
$HANDSEED
  5
FFFF
  9
$MEASUREMENT
 70
     1
  0
ENDSEC
  0
SECTION
  2
TABLES
  0
TABLE
  2
VPORT
  5
8
330
0
100
AcDbSymbolTable
 70
     4
  0
VPORT
  5
2E
330
8
100
AcDbSymbolTableRecord
100
AcDbViewportTableRecord
  2
*ACTIVE
 70
     0
 10
0.0
 20
0.0
 11
1.0
 21
1.0
 12
210.0
 22
148.5
 13
0.0
 23
0.0
 14
10.0
 24
10.0
 15
10.0
 25
10.0
 16
0.0
 26
0.0
 36
1.0
 17
0.0
 27
0.0
 37
0.0
 40
341.0
 41
1.24
 42
50.0
 43
0.0
 44
0.0
 50
0.0
 51
0.0
 71
     0
 72
   100
 73
     1
 74
     3
 75
     0
 76
     0
 77
     0
 78
     0
  0
ENDTAB
  0
TABLE
  2
LTYPE
  5
5
330
0
100
AcDbSymbolTable
 70
     1
  0
LTYPE
  5
14
330
5
100
AcDbSymbolTableRecord
100
AcDbLinetypeTableRecord
  2
BYBLOCK
 70
     0
  3

 72
    65
 73
     0
 40
0.0
  0
LTYPE
  5
15
330
5
100
AcDbSymbolTableRecord
100
AcDbLinetypeTableRecord
  2
BYLAYER
 70
     0
  3

 72
    65
 73
     0
 40
0.0
  0
LTYPE
  5
16
330
5
100
AcDbSymbolTableRecord
100
AcDbLinetypeTableRecord
  2
CONTINUOUS
 70
     0
  3
Solid line
 72
    65
 73
     0
 40
0.0
  0
ENDTAB
  0
TABLE
  2
LAYER
  5
2
100
AcDbSymbolTable
 70
1
  0
LAYER
  5
50
100
AcDbSymbolTableRecord
100
AcDbLayerTableRecord
  2
0
 70
0
  6
CONTINUOUS
  0
ENDTAB
  0
TABLE
  2
STYLE
  5
3
330
0
100
AcDbSymbolTable
 70
     1
  0
STYLE
  5
11
330
3
100
AcDbSymbolTableRecord
100
AcDbTextStyleTableRecord
  2
STANDARD
 70
     0
 40
0.0
 41
1.0
 50
0.0
 71
     0
 42
2.5
  3
txt
  4

  0
ENDTAB
  0
TABLE
  2
VIEW
  5
6
330
0
100
AcDbSymbolTable
 70
     0
  0
ENDTAB
  0
TABLE
  2
UCS
  5
7
330
0
100
AcDbSymbolTable
 70
     0
  0
ENDTAB
  0
TABLE
  2
APPID
  5
9
330
0
100
AcDbSymbolTable
 70
     2
  0
APPID
  5
12
330
9
100
AcDbSymbolTableRecord
100
AcDbRegAppTableRecord
  2
ACAD
 70
     0
  0
ENDTAB
  0
TABLE
  2
DIMSTYLE
  5
A
330
0
100
AcDbSymbolTable
 70
     1
  0
DIMSTYLE
105
27
330
A
100
AcDbSymbolTableRecord
100
AcDbDimStyleTableRecord
  2
ISO-25
 70
     0
  3

  4

  5

  6

  7

 40
1.0
 41
2.5
 42
0.625
 43
3.75
 44
1.25
 45
0.0
 46
0.0
 47
0.0
 48
0.0
140
2.5
141
2.5
142
0.0
143
0.03937007874016
144
1.0
145
0.0
146
1.0
147
0.625
 71
     0
 72
     0
 73
     0
 74
     0
 75
     0
 76
     0
 77
     1
 78
     8
170
     0
171
     3
172
     1
173
     0
174
     0
175
     0
176
     0
177
     0
178
     0
270
     2
271
     2
272
     2
273
     2
274
     3
340
11
275
     0
280
     0
281
     0
282
     0
283
     0
284
     8
285
     0
286
     0
287
     3
288
     0
  0
ENDTAB
  0
TABLE
  2
BLOCK_RECORD
  5
1
330
0
100
AcDbSymbolTable
 70
     1
  0
BLOCK_RECORD
  5
1F
330
1
100
AcDbSymbolTableRecord
100
AcDbBlockTableRecord
  2
*MODEL_SPACE
  0
BLOCK_RECORD
  5
1B
330
1
100
AcDbSymbolTableRecord
100
AcDbBlockTableRecord
  2
*PAPER_SPACE
  0
ENDTAB
  0
ENDSEC
  0
SECTION
  2
BLOCKS
  0
BLOCK
  5
20
330
1F
100
AcDbEntity
  8
0
100
AcDbBlockBegin
  2
*MODEL_SPACE
 70
     0
 10
0.0
 20
0.0
 30
0.0
  3
*MODEL_SPACE
  1

  0
ENDBLK
  5
21
330
1F
100
AcDbEntity
  8
0
100
AcDbBlockEnd
  0
BLOCK
  5
1C
330
1B
100
AcDbEntity
 67
     1
  8
0
100
AcDbBlockBegin
  2
*PAPER_SPACE
  1

  0
ENDBLK
  5
1D
330
1B
100
AcDbEntity
 67
     1
  8
0
100
AcDbBlockEnd
  0
ENDSEC
  0
SECTION
  2
ENTITIES
  0
LWPOLYLINE
  5
100
100
AcDbEntity
  8
0
 62
7
100
AcDbPolyline
 90
81
 70
0
 10
36.072549
 20
65.912584
 30
0.0
 10
35.656150
 20
68.239904
 30
0.0
 10
35.409262
 20
74.415768
 30
0.0
 10
35.319529
 20
85.057504
 30
0.0
 10
35.374593
 20
100.782440
 30
0.0
 10
35.430945
 20
109.221760
 30
0.0
 10
35.487297
 20
117.661078
 30
0.0
 10
35.543649
 20
126.100398
 30
0.0
 10
35.600001
 20
134.539718
 30
0.0
 10
36.161154
 20
135.022253
 30
0.0
 10
36.722306
 20
135.504789
 30
0.0
 10
37.283459
 20
135.987324
 30
0.0
 10
37.844612
 20
136.469859
 30
0.0
 10
39.310019
 20
137.530199
 30
0.0
 10
41.138549
 20
138.109378
 30
0.0
 10
44.184674
 20
138.351334
 30
0.0
 10
49.302865
 20
138.400000
 30
0.0
 10
51.606275
 20
138.400000
 30
0.0
 10
53.909686
 20
138.400000
 30
0.0
 10
56.213097
 20
138.400000
 30
0.0
 10
58.516507
 20
138.400000
 30
0.0
 10
62.451944
 20
134.616290
 30
0.0
 10
66.387381
 20
130.832581
 30
0.0
 10
70.322817
 20
127.048871
 30
0.0
 10
74.258254
 20
123.265162
 30
0.0
 10
81.158592
 20
116.594383
 30
0.0
 10
88.309840
 20
109.619544
 30
0.0
 10
94.867720
 20
103.167504
 30
0.0
 10
99.987992
 20
98.065160
 30
0.0
 10
103.914432
 20
94.157048
 30
0.0
 10
107.221792
 20
90.956640
 30
0.0
 10
109.562248
 20
88.794200
 30
0.0
 10
110.587992
 20
88.000000
 30
0.0
 10
110.825624
 20
89.912688
 30
0.0
 10
111.020224
 20
95.120496
 30
0.0
 10
111.151712
 20
102.828064
 30
0.0
 10
111.200000
 20
112.240000
 30
0.0
 10
111.250960
 20
123.582190
 30
0.0
 10
111.415856
 20
131.245842
 30
0.0
 10
111.712840
 20
135.706572
 30
0.0
 10
112.160000
 20
137.440000
 30
0.0
 10
114.465624
 20
138.151238
 30
0.0
 10
118.400000
 20
138.388319
 30
0.0
 10
122.334384
 20
138.151239
 30
0.0
 10
124.640000
 20
137.440000
 30
0.0
 10
125.416536
 20
126.101730
 30
0.0
 10
125.675384
 20
102.400000
 30
0.0
 10
125.416536
 20
78.698272
 30
0.0
 10
124.640000
 20
67.360000
 30
0.0
 10
123.822224
 20
66.968336
 30
0.0
 10
122.318000
 20
66.665192
 30
0.0
 10
120.262144
 20
66.469448
 30
0.0
 10
117.789480
 20
66.400008
 30
0.0
 10
116.316848
 20
66.400008
 30
0.0
 10
114.844216
 20
66.400008
 30
0.0
 10
113.371592
 20
66.400008
 30
0.0
 10
111.898960
 20
66.400008
 30
0.0
 10
104.597256
 20
73.550008
 30
0.0
 10
97.295552
 20
80.700008
 30
0.0
 10
89.993856
 20
87.850008
 30
0.0
 10
82.692152
 20
95.000000
 30
0.0
 10
69.765239
 20
107.555800
 30
0.0
 10
60.278029
 20
116.537563
 30
0.0
 10
54.210510
 20
121.963832
 30
0.0
 10
51.542674
 20
123.853138
 30
0.0
 10
51.057006
 20
123.916422
 30
0.0
 10
50.571337
 20
123.979706
 30
0.0
 10
50.085668
 20
124.042991
 30
0.0
 10
49.600000
 20
124.106276
 30
0.0
 10
49.600000
 20
116.932991
 30
0.0
 10
49.600000
 20
109.759704
 30
0.0
 10
49.600000
 20
102.586424
 30
0.0
 10
49.600000
 20
95.413136
 30
0.0
 10
49.549984
 20
81.914880
 30
0.0
 10
49.386619
 20
72.884352
 30
0.0
 10
49.089946
 20
67.704936
 30
0.0
 10
48.640000
 20
65.760000
 30
0.0
 10
46.257527
 20
65.000824
 30
0.0
 10
42.277658
 20
64.786440
 30
0.0
 10
38.337098
 20
65.096984
 30
0.0
 10
36.072549
 20
65.912584
 30
0.0
  0
LWPOLYLINE
  5
101
100
AcDbEntity
  8
0
 62
7
100
AcDbPolyline
 90
13
 70
0
 10
44.800000
 20
66.850480
 30
0.0
 10
42.345805
 20
67.222984
 30
0.0
 10
39.729605
 20
67.385512
 30
0.0
 10
37.648602
 20
67.323192
 30
0.0
 10
36.800000
 20
67.021144
 30
0.0
 10
37.162969
 20
66.787288
 30
0.0
 10
38.151250
 20
66.609720
 30
0.0
 10
39.613906
 20
66.505776
 30
0.0
 10
41.400000
 20
66.492816
 30
0.0
 10
43.091406
 20
66.549776
 30
0.0
 10
44.296250
 20
66.636192
 30
0.0
 10
44.902969
 20
66.740352
 30
0.0
 10
44.800000
 20
66.850480
 30
0.0
  0
LWPOLYLINE
  5
102
100
AcDbEntity
  8
0
 62
7
100
AcDbPolyline
 90
13
 70
0
 10
47.827022
 20
94.200000
 30
0.0
 10
47.742229
 20
104.236720
 30
0.0
 10
47.639226
 20
111.013752
 30
0.0
 10
47.531022
 20
113.933906
 30
0.0
 10
47.430622
 20
112.400000
 30
0.0
 10
47.111552
 20
95.011216
 30
0.0
 10
46.999282
 20
80.331776
 30
0.0
 10
47.095026
 20
70.186280
 30
0.0
 10
47.400000
 20
66.399304
 30
0.0
 10
47.619320
 20
68.593168
 30
0.0
 10
47.772938
 20
74.566048
 30
0.0
 10
47.846842
 20
83.405728
 30
0.0
 10
47.827022
 20
94.200000
 30
0.0
  0
LWPOLYLINE
  5
103
100
AcDbEntity
  8
0
 62
7
100
AcDbPolyline
 90
25
 70
0
 10
112.800000
 20
68.551336
 30
0.0
 10
111.008440
 20
70.019256
 30
0.0
 10
107.017504
 20
73.701856
 30
0.0
 10
101.417816
 20
79.043416
 30
0.0
 10
94.800000
 20
85.488184
 30
0.0
 10
90.600000
 20
89.616136
 30
0.0
 10
86.400000
 20
93.744088
 30
0.0
 10
82.200000
 20
97.872048
 30
0.0
 10
78.000000
 20
102.000000
 30
0.0
 10
82.198216
 20
97.750000
 30
0.0
 10
86.396432
 20
93.500000
 30
0.0
 10
90.594640
 20
89.250000
 30
0.0
 10
94.792856
 20
85.000000
 30
0.0
 10
101.408456
 20
78.404200
 30
0.0
 10
107.007408
 20
73.012304
 30
0.0
 10
110.999080
 20
69.380040
 30
0.0
 10
112.792856
 20
68.063160
 30
0.0
 10
113.393824
 20
68.110120
 30
0.0
 10
113.595048
 20
68.187160
 30
0.0
 10
113.396976
 20
68.324256
 30
0.0
 10
112.800056
 20
68.551312
 30
0.0
 10
112.800040
 20
68.551312
 30
0.0
 10
112.800024
 20
68.551312
 30
0.0
 10
112.800016
 20
68.551312
 30
0.0
 10
112.800000
 20
68.551336
 30
0.0
  0
LWPOLYLINE
  5
104
100
AcDbEntity
  8
0
 62
7
100
AcDbPolyline
 90
65
 70
0
 10
124.000000
 20
102.400000
 30
0.0
 10
124.000000
 20
111.000000
 30
0.0
 10
124.000000
 20
119.600000
 30
0.0
 10
124.000000
 20
128.200000
 30
0.0
 10
124.000000
 20
136.800000
 30
0.0
 10
122.600000
 20
136.800000
 30
0.0
 10
121.200000
 20
136.800000
 30
0.0
 10
119.800000
 20
136.800000
 30
0.0
 10
118.400000
 20
136.800000
 30
0.0
 10
117.000000
 20
136.800000
 30
0.0
 10
115.600000
 20
136.800000
 30
0.0
 10
114.200000
 20
136.800000
 30
0.0
 10
112.800000
 20
136.800000
 30
0.0
 10
112.846880
 20
130.850000
 30
0.0
 10
112.893760
 20
124.900000
 30
0.0
 10
112.940640
 20
118.950000
 30
0.0
 10
112.987520
 20
113.000000
 30
0.0
 10
113.034400
 20
107.050000
 30
0.0
 10
113.081280
 20
101.100000
 30
0.0
 10
113.128160
 20
95.150000
 30
0.0
 10
113.175040
 20
89.200000
 30
0.0
 10
113.231200
 20
95.050000
 30
0.0
 10
113.287360
 20
100.900000
 30
0.0
 10
113.343520
 20
106.750000
 30
0.0
 10
113.399680
 20
112.600000
 30
0.0
 10
113.455840
 20
118.450000
 30
0.0
 10
113.512000
 20
124.300000
 30
0.0
 10
113.568160
 20
130.150000
 30
0.0
 10
113.624320
 20
136.000000
 30
0.0
 10
114.821296
 20
136.000000
 30
0.0
 10
116.018272
 20
136.000000
 30
0.0
 10
117.215256
 20
136.000000
 30
0.0
 10
118.412232
 20
136.000000
 30
0.0
 10
119.609208
 20
136.000000
 30
0.0
 10
120.806192
 20
136.000000
 30
0.0
 10
122.003168
 20
136.000000
 30
0.0
 10
123.200152
 20
136.000000
 30
0.0
 10
123.200152
 20
127.610452
 30
0.0
 10
123.200152
 20
119.220904
 30
0.0
 10
123.200152
 20
110.831360
 30
0.0
 10
123.200152
 20
102.441808
 30
0.0
 10
123.200152
 20
94.052256
 30
0.0
 10
123.200152
 20
85.662712
 30
0.0
 10
123.200152
 20
77.273168
 30
0.0
 10
123.200152
 20
68.883616
 30
0.0
 10
122.150152
 20
68.810176
 30
0.0
 10
121.100152
 20
68.736736
 30
0.0
 10
120.050152
 20
68.663296
 30
0.0
 10
119.000152
 20
68.589856
 30
0.0
 10
117.950152
 20
68.516416
 30
0.0
 10
116.900152
 20
68.442976
 30
0.0
 10
115.850152
 20
68.369536
 30
0.0
 10
114.800152
 20
68.296096
 30
0.0
 10
115.950152
 20
68.259136
 30
0.0
 10
117.100152
 20
68.222096
 30
0.0
 10
118.250152
 20
68.185136
 30
0.0
 10
119.400152
 20
68.148096
 30
0.0
 10
120.550152
 20
68.111136
 30
0.0
 10
121.700152
 20
68.074096
 30
0.0
 10
122.850152
 20
68.037136
 30
0.0
 10
124.000000
 20
68.000000
 30
0.0
 10
124.000000
 20
76.600000
 30
0.0
 10
124.000000
 20
85.200000
 30
0.0
 10
124.000000
 20
93.800000
 30
0.0
 10
124.000000
 20
102.400000
 30
0.0
  0
LWPOLYLINE
  5
105
100
AcDbEntity
  8
0
 62
7
100
AcDbPolyline
 90
25
 70
0
 10
39.552904
 20
135.665062
 30
0.0
 10
40.084257
 20
136.105737
 30
0.0
 10
40.383052
 20
136.466612
 30
0.0
 10
40.428114
 20
136.710446
 30
0.0
 10
40.198267
 20
136.800000
 30
0.0
 10
39.747619
 20
136.659704
 30
0.0
 10
39.191490
 20
136.277711
 30
0.0
 10
38.600525
 20
135.712361
 30
0.0
 10
38.045363
 20
135.021995
 30
0.0
 10
37.399178
 20
132.997113
 30
0.0
 10
37.047408
 20
127.934145
 30
0.0
 10
36.928894
 20
117.865101
 30
0.0
 10
36.982470
 20
100.821992
 30
0.0
 10
37.028086
 20
92.716496
 30
0.0
 10
37.073702
 20
84.611000
 30
0.0
 10
37.119318
 20
76.505496
 30
0.0
 10
37.164934
 20
68.400000
 30
0.0
 10
37.269316
 20
76.666264
 30
0.0
 10
37.373698
 20
84.932536
 30
0.0
 10
37.478082
 20
93.198800
 30
0.0
 10
37.582464
 20
101.465064
 30
0.0
 10
37.850050
 20
119.966085
 30
0.0
 10
38.161442
 20
129.989694
 30
0.0
 10
38.675955
 20
134.300988
 30
0.0
 10
39.552904
 20
135.665062
 30
0.0
  0
LWPOLYLINE
  5
106
100
AcDbEntity
  8
0
 62
7
100
AcDbPolyline
 90
25
 70
0
 10
112.610904
 20
86.450000
 30
0.0
 10
112.730752
 20
86.973512
 30
0.0
 10
112.696832
 20
87.141048
 30
0.0
 10
112.487440
 20
86.950560
 30
0.0
 10
112.080816
 20
86.400000
 30
0.0
 10
110.887896
 20
86.562016
 30
0.0
 10
107.792832
 20
89.000072
 30
0.0
 10
101.976536
 20
94.438088
 30
0.0
 10
92.619928
 20
103.600000
 30
0.0
 10
87.964944
 20
108.200000
 30
0.0
 10
83.309968
 20
112.800000
 30
0.0
 10
78.654982
 20
117.400000
 30
0.0
 10
74.000000
 20
122.000000
 30
0.0
 10
78.598776
 20
117.349592
 30
0.0
 10
83.197552
 20
112.699184
 30
0.0
 10
87.796328
 20
108.048776
 30
0.0
 10
92.395104
 20
103.398368
 30
0.0
 10
99.597144
 20
96.195560
 30
0.0
 10
105.608400
 20
90.334888
 30
0.0
 10
109.800504
 20
86.418448
 30
0.0
 10
111.545104
 20
85.048368
 30
0.0
 10
111.862744
 20
85.236816
 30
0.0
 10
112.169576
 20
85.563896
 30
0.0
 10
112.430616
 20
85.983624
 30
0.0
 10
112.610904
 20
86.450000
 30
0.0
  0
LWPOLYLINE
  5
107
100
AcDbEntity
  8
0
 62
7
100
AcDbPolyline
 90
13
 70
0
 10
66.000000
 20
113.600000
 30
0.0
 10
61.311876
 20
118.259375
 30
0.0
 10
57.403186
 20
122.075000
 30
0.0
 10
54.682209
 20
124.653125
 30
0.0
 10
53.557222
 20
125.600000
 30
0.0
 10
56.999859
 20
121.852525
 30
0.0
 10
65.155058
 20
113.607319
 30
0.0
 10
73.519534
 20
105.360208
 30
0.0
 10
77.589998
 20
101.607024
 30
0.0
 10
76.796130
 20
102.551168
 30
0.0
 10
74.346310
 20
105.127064
 30
0.0
 10
70.620834
 20
108.941176
 30
0.0
 10
66.000000
 20
113.600000
 30
0.0
  0
LWPOLYLINE
  5
108
100
AcDbEntity
  8
0
 62
7
100
AcDbPolyline
 90
13
 70
0
 10
66.400000
 20
129.200000
 30
0.0
 10
63.422189
 20
132.150938
 30
0.0
 10
60.909095
 20
134.567500
 30
0.0
 10
59.125334
 20
136.200313
 30
0.0
 10
58.335522
 20
136.800000
 30
0.0
 10
60.395991
 20
134.428876
 30
0.0
 10
65.527346
 20
129.211209
 30
0.0
 10
70.874959
 20
123.990554
 30
0.0
 10
73.584200
 20
121.610469
 30
0.0
 10
73.136183
 20
122.206091
 30
0.0
 10
71.632323
 20
123.835575
 30
0.0
 10
69.308352
 20
126.249889
 30
0.0
 10
66.400000
 20
129.200000
 30
0.0
  0
LWPOLYLINE
  5
109
100
AcDbEntity
  8
0
 62
7
100
AcDbPolyline
 90
17
 70
0
 10
49.600000
 20
125.247214
 30
0.0
 10
49.536875
 20
125.384194
 30
0.0
 10
49.365000
 20
125.496369
 30
0.0
 10
49.110625
 20
125.572163
 30
0.0
 10
48.800000
 20
125.600000
 30
0.0
 10
48.489375
 20
125.533150
 30
0.0
 10
48.235000
 20
125.351131
 30
0.0
 10
48.063125
 20
125.081743
 30
0.0
 10
48.000000
 20
124.752786
 30
0.0
 10
48.063128
 20
124.462842
 30
0.0
 10
48.235003
 20
124.299680
 30
0.0
 10
48.489378
 20
124.274872
 30
0.0
 10
48.800000
 20
124.400000
 30
0.0
 10
49.110625
 20
124.619814
 30
0.0
 10
49.365000
 20
124.852820
 30
0.0
 10
49.536875
 20
125.071220
 30
0.0
 10
49.600000
 20
125.247214
 30
0.0
  0
LWPOLYLINE
  5
10a
100
AcDbEntity
  8
0
 62
7
100
AcDbPolyline
 90
13
 70
0
 10
53.800000
 20
136.585764
 30
0.0
 10
52.211562
 20
136.680505
 30
0.0
 10
50.400000
 20
136.712085
 30
0.0
 10
48.588438
 20
136.680505
 30
0.0
 10
47.000000
 20
136.585764
 30
0.0
 10
46.216406
 20
136.466859
 30
0.0
 10
46.596250
 20
136.369487
 30
0.0
 10
48.027969
 20
136.303695
 30
0.0
 10
50.400000
 20
136.279527
 30
0.0
 10
52.772031
 20
136.303695
 30
0.0
 10
54.203750
 20
136.369487
 30
0.0
 10
54.583594
 20
136.466859
 30
0.0
 10
53.800000
 20
136.585764
 30
0.0
  0
LWPOLYLINE
  5
10b
100
AcDbEntity
  8
0
 62
7
100
AcDbPolyline
 90
45
 70
0
 10
346.000000
 20
65.634248
 30
0.0
 10
340.723536
 20
66.660104
 30
0.0
 10
336.106152
 20
68.210920
 30
0.0
 10
332.415536
 20
70.173488
 30
0.0
 10
329.919360
 20
72.434616
 30
0.0
 10
326.878912
 20
78.494016
 30
0.0
 10
324.986424
 20
86.975200
 30
0.0
 10
324.296408
 20
97.477440
 30
0.0
 10
324.863376
 20
109.600000
 30
0.0
 10
325.946024
 20
118.082763
 30
0.0
 10
327.444104
 20
124.492853
 30
0.0
 10
329.476056
 20
129.203367
 30
0.0
 10
332.160304
 20
132.587406
 30
0.0
 10
339.169752
 20
136.187529
 30
0.0
 10
351.119512
 20
138.272031
 30
0.0
 10
368.449600
 20
138.881394
 30
0.0
 10
391.600000
 20
138.056100
 30
0.0
 10
396.376112
 20
137.368219
 30
0.0
 10
400.967536
 20
135.984259
 30
0.0
 10
404.861968
 20
134.101446
 30
0.0
 10
407.547072
 20
131.917006
 30
0.0
 10
408.426776
 20
130.659484
 30
0.0
 10
409.333600
 20
129.004430
 30
0.0
 10
410.160744
 20
127.166928
 30
0.0
 10
410.801432
 20
125.362063
 30
0.0
 10
412.080144
 20
118.937112
 30
0.0
 10
412.892800
 20
110.455784
 30
0.0
 10
413.164416
 20
101.148320
 30
0.0
 10
412.820016
 20
92.244960
 30
0.0
 10
411.884160
 20
84.312960
 30
0.0
 10
410.451088
 20
78.433328
 30
0.0
 10
408.345536
 20
74.100208
 30
0.0
 10
405.392224
 20
70.807744
 30
0.0
 10
402.805248
 20
68.878928
 30
0.0
 10
399.968240
 20
67.536648
 30
0.0
 10
396.195160
 20
66.537968
 30
0.0
 10
390.800000
 20
65.639920
 30
0.0
 10
382.066288
 20
65.113816
 30
0.0
 10
368.631152
 20
64.937128
 30
0.0
 10
355.080432
 20
65.110432
 30
0.0
 10
346.000000
 20
65.634320
 30
0.0
 10
346.000000
 20
65.634304
 30
0.0
 10
346.000000
 20
65.634288
 30
0.0
 10
346.000000
 20
65.634264
 30
0.0
 10
346.000000
 20
65.634248
 30
0.0
  0
LWPOLYLINE
  5
10c
100
AcDbEntity
  8
0
 62
7
100
AcDbPolyline
 90
13
 70
0
 10
379.000000
 20
66.997768
 30
0.0
 10
374.234688
 20
67.075128
 30
0.0
 10
368.800000
 20
67.100888
 30
0.0
 10
363.365312
 20
67.075128
 30
0.0
 10
358.600000
 20
66.997768
 30
0.0
 10
356.249216
 20
66.900680
 30
0.0
 10
357.388752
 20
66.821160
 30
0.0
 10
361.683904
 20
66.767480
 30
0.0
 10
368.800000
 20
66.747720
 30
0.0
 10
375.916096
 20
66.767480
 30
0.0
 10
380.211248
 20
66.821160
 30
0.0
 10
381.350784
 20
66.900680
 30
0.0
 10
379.000000
 20
66.997768
 30
0.0
  0
LWPOLYLINE
  5
10d
100
AcDbEntity
  8
0
 62
7
100
AcDbPolyline
 90
17
 70
0
 10
343.350000
 20
67.746488
 30
0.0
 10
342.904168
 20
67.871496
 30
0.0
 10
342.466456
 20
67.901256
 30
0.0
 10
342.087184
 20
67.837816
 30
0.0
 10
341.816664
 20
67.683320
 30
0.0
 10
341.750024
 20
67.500632
 30
0.0
 10
341.925768
 20
67.360520
 30
0.0
 10
342.309480
 20
67.276760
 30
0.0
 10
342.866704
 20
67.263160
 30
0.0
 10
343.425144
 20
67.319000
 30
0.0
 10
343.697176
 20
67.423488
 30
0.0
 10
343.674776
 20
67.568664
 30
0.0
 10
343.350008
 20
67.746520
 30
0.0
 10
343.350008
 20
67.746512
 30
0.0
 10
343.350008
 20
67.746504
 30
0.0
 10
343.350008
 20
67.746496
 30
0.0
 10
343.350000
 20
67.746488
 30
0.0
  0
LWPOLYLINE
  5
10e
100
AcDbEntity
  8
0
 62
7
100
AcDbPolyline
 90
17
 70
0
 10
347.350000
 20
67.746488
 30
0.0
 10
346.904168
 20
67.871496
 30
0.0
 10
346.466456
 20
67.901256
 30
0.0
 10
346.087184
 20
67.837816
 30
0.0
 10
345.816664
 20
67.683320
 30
0.0
 10
345.750024
 20
67.500632
 30
0.0
 10
345.925768
 20
67.360520
 30
0.0
 10
346.309480
 20
67.276760
 30
0.0
 10
346.866704
 20
67.263160
 30
0.0
 10
347.425144
 20
67.319000
 30
0.0
 10
347.697176
 20
67.423488
 30
0.0
 10
347.674776
 20
67.568664
 30
0.0
 10
347.350008
 20
67.746520
 30
0.0
 10
347.350008
 20
67.746512
 30
0.0
 10
347.350008
 20
67.746504
 30
0.0
 10
347.350008
 20
67.746496
 30
0.0
 10
347.350000
 20
67.746488
 30
0.0
  0
LWPOLYLINE
  5
10f
100
AcDbEntity
  8
0
 62
7
100
AcDbPolyline
 90
17
 70
0
 10
394.550000
 20
67.746488
 30
0.0
 10
394.104168
 20
67.871496
 30
0.0
 10
393.666456
 20
67.901256
 30
0.0
 10
393.287184
 20
67.837816
 30
0.0
 10
393.016664
 20
67.683320
 30
0.0
 10
392.950024
 20
67.500632
 30
0.0
 10
393.125768
 20
67.360520
 30
0.0
 10
393.509480
 20
67.276760
 30
0.0
 10
394.066704
 20
67.263160
 30
0.0
 10
394.625144
 20
67.319000
 30
0.0
 10
394.897176
 20
67.423488
 30
0.0
 10
394.874776
 20
67.568664
 30
0.0
 10
394.550008
 20
67.746520
 30
0.0
 10
394.550008
 20
67.746512
 30
0.0
 10
394.550008
 20
67.746504
 30
0.0
 10
394.550008
 20
67.746496
 30
0.0
 10
394.550000
 20
67.746488
 30
0.0
  0
LWPOLYLINE
  5
110
100
AcDbEntity
  8
0
 62
7
100
AcDbPolyline
 90
13
 70
0
 10
339.600000
 20
68.800000
 30
0.0
 10
338.154032
 20
69.331592
 30
0.0
 10
337.226880
 20
69.508792
 30
0.0
 10
336.986288
 20
69.331592
 30
0.0
 10
337.600000
 20
68.800000
 30
0.0
 10
338.160624
 20
68.502360
 30
0.0
 10
338.800000
 20
68.265224
 30
0.0
 10
339.439376
 20
68.112592
 30
0.0
 10
340.000000
 20
68.068512
 30
0.0
 10
340.419664
 20
68.131312
 30
0.0
 10
340.492304
 20
68.275160
 30
0.0
 10
340.218808
 20
68.498584
 30
0.0
 10
339.600000
 20
68.800000
 30
0.0
  0
LWPOLYLINE
  5
111
100
AcDbEntity
  8
0
 62
7
100
AcDbPolyline
 90
13
 70
0
 10
398.600000
 20
68.529824
 30
0.0
 10
398.132816
 20
68.654656
 30
0.0
 10
397.600000
 20
68.696256
 30
0.0
 10
397.067184
 20
68.654656
 30
0.0
 10
396.600000
 20
68.529824
 30
0.0
 10
396.369528
 20
68.373152
 30
0.0
 10
396.481248
 20
68.244848
 30
0.0
 10
396.902344
 20
68.158152
 30
0.0
 10
397.600000
 20
68.126312
 30
0.0
 10
398.297656
 20
68.158152
 30
0.0
 10
398.718752
 20
68.244848
 30
0.0
 10
398.830472
 20
68.373152
 30
0.0
 10
398.600000
 20
68.529824
 30
0.0
  0
LWPOLYLINE
  5
112
100
AcDbEntity
  8
0
 62
7
100
AcDbPolyline
 90
17
 70
0
 10
403.200000
 20
70.856296
 30
0.0
 10
403.073752
 20
70.944040
 30
0.0
 10
402.730000
 20
70.887240
 30
0.0
 10
402.221248
 20
70.700904
 30
0.0
 10
401.600000
 20
70.400000
 30
0.0
 10
400.978752
 20
70.035952
 30
0.0
 10
400.470000
 20
69.677744
 30
0.0
 10
400.126248
 20
69.366584
 30
0.0
 10
400.000000
 20
69.143704
 30
0.0
 10
400.126248
 20
69.055960
 30
0.0
 10
400.470000
 20
69.112760
 30
0.0
 10
400.978752
 20
69.299096
 30
0.0
 10
401.600000
 20
69.600000
 30
0.0
 10
402.221248
 20
69.964048
 30
0.0
 10
402.730000
 20
70.322256
 30
0.0
 10
403.073752
 20
70.633416
 30
0.0
 10
403.200000
 20
70.856296
 30
0.0
  0
LWPOLYLINE
  5
113
100
AcDbEntity
  8
0
 62
7
100
AcDbPolyline
 90
13
 70
0
 10
336.000000
 20
69.914408
 30
0.0
 10
335.902032
 20
70.074080
 30
0.0
 10
335.635296
 20
70.276408
 30
0.0
 10
335.240520
 20
70.495448
 30
0.0
 10
334.758448
 20
70.705248
 30
0.0
 10
334.301064
 20
70.835152
 30
0.0
 10
334.009976
 20
70.820592
 30
0.0
 10
333.904928
 20
70.669744
 30
0.0
 10
334.005664
 20
70.390880
 30
0.0
 10
334.515480
 20
69.904624
 30
0.0
 10
335.179008
 20
69.624632
 30
0.0
 10
335.754456
 20
69.608632
 30
0.0
 10
336.000000
 20
69.914408
 30
0.0
  0
LWPOLYLINE
  5
114
100
AcDbEntity
  8
0
 62
7
100
AcDbPolyline
 90
17
 70
0
 10
406.000000
 20
72.800000
 30
0.0
 10
406.530664
 20
73.421248
 30
0.0
 10
406.905136
 20
73.930000
 30
0.0
 10
407.089040
 20
74.273752
 30
0.0
 10
407.048000
 20
74.400000
 30
0.0
 10
406.778432
 20
74.273752
 30
0.0
 10
406.340152
 20
73.930000
 30
0.0
 10
405.793800
 20
73.421248
 30
0.0
 10
405.200000
 20
72.800000
 30
0.0
 10
404.669336
 20
72.178752
 30
0.0
 10
404.294864
 20
71.670000
 30
0.0
 10
404.110960
 20
71.326248
 30
0.0
 10
404.152000
 20
71.200000
 30
0.0
 10
404.421568
 20
71.326248
 30
0.0
 10
404.859848
 20
71.670000
 30
0.0
 10
405.406200
 20
72.178752
 30
0.0
 10
406.000000
 20
72.800000
 30
0.0
  0
LWPOLYLINE
  5
115
100
AcDbEntity
  8
0
 62
7
100
AcDbPolyline
 90
17
 70
0
 10
330.400000
 20
75.200000
 30
0.0
 10
330.035952
 20
75.821248
 30
0.0
 10
329.677744
 20
76.330000
 30
0.0
 10
329.366584
 20
76.673752
 30
0.0
 10
329.143704
 20
76.800000
 30
0.0
 10
329.055960
 20
76.673752
 30
0.0
 10
329.112760
 20
76.330000
 30
0.0
 10
329.299096
 20
75.821248
 30
0.0
 10
329.600000
 20
75.200000
 30
0.0
 10
329.964048
 20
74.578752
 30
0.0
 10
330.322256
 20
74.070000
 30
0.0
 10
330.633416
 20
73.726248
 30
0.0
 10
330.856296
 20
73.600000
 30
0.0
 10
330.944040
 20
73.726248
 30
0.0
 10
330.887240
 20
74.070000
 30
0.0
 10
330.700904
 20
74.578752
 30
0.0
 10
330.400000
 20
75.200000
 30
0.0
  0
LWPOLYLINE
  5
116
100
AcDbEntity
  8
0
 62
7
100
AcDbPolyline
 90
13
 70
0
 10
390.258624
 20
77.479744
 30
0.0
 10
386.236224
 20
77.734944
 30
0.0
 10
375.097760
 20
77.780064
 30
0.0
 10
362.175072
 20
77.636808
 30
0.0
 10
352.800000
 20
77.326952
 30
0.0
 10
352.948752
 20
77.229248
 30
0.0
 10
356.015000
 20
77.139552
 30
0.0
 10
361.473752
 20
77.067792
 30
0.0
 10
368.800000
 20
77.023952
 30
0.0
 10
376.556968
 20
77.039952
 30
0.0
 10
383.188472
 20
77.131232
 30
0.0
 10
387.990392
 20
77.282808
 30
0.0
 10
390.258624
 20
77.479744
 30
0.0
  0
LWPOLYLINE
  5
117
100
AcDbEntity
  8
0
 62
7
100
AcDbPolyline
 90
13
 70
0
 10
348.200000
 20
78.129824
 30
0.0
 10
347.732816
 20
78.254656
 30
0.0
 10
347.200000
 20
78.296256
 30
0.0
 10
346.667184
 20
78.254656
 30
0.0
 10
346.200000
 20
78.129824
 30
0.0
 10
345.969528
 20
77.973152
 30
0.0
 10
346.081248
 20
77.844848
 30
0.0
 10
346.502344
 20
77.758152
 30
0.0
 10
347.200000
 20
77.726312
 30
0.0
 10
347.897656
 20
77.758152
 30
0.0
 10
348.318752
 20
77.844848
 30
0.0
 10
348.430472
 20
77.973152
 30
0.0
 10
348.200000
 20
78.129824
 30
0.0
  0
LWPOLYLINE
  5
118
100
AcDbEntity
  8
0
 62
7
100
AcDbPolyline
 90
17
 70
0
 10
342.740384
 20
79.533664
 30
0.0
 10
341.649104
 20
80.162392
 30
0.0
 10
340.496008
 20
81.082520
 30
0.0
 10
339.418472
 20
82.170392
 30
0.0
 10
338.553864
 20
83.302352
 30
0.0
 10
337.882272
 20
84.275384
 30
0.0
 10
337.330272
 20
84.930544
 30
0.0
 10
336.954976
 20
85.210264
 30
0.0
 10
336.813480
 20
85.056960
 30
0.0
 10
337.652256
 20
83.356408
 30
0.0
 10
339.640440
 20
81.144368
 30
0.0
 10
341.935384
 20
79.232216
 30
0.0
 10
343.694464
 20
78.431312
 30
0.0
 10
344.216584
 20
78.509552
 30
0.0
 10
344.234744
 20
78.715736
 30
0.0
 10
343.744240
 20
79.055296
 30
0.0
 10
342.740384
 20
79.533664
 30
0.0
  0
LWPOLYLINE
  5
119
100
AcDbEntity
  8
0
 62
7
100
AcDbPolyline
 90
13
 70
0
 10
410.387752
 20
82.333336
 30
0.0
 10
410.316152
 20
83.662184
 30
0.0
 10
410.095376
 20
83.823392
 30
0.0
 10
409.752840
 20
82.856232
 30
0.0
 10
409.316008
 20
80.800000
 30
0.0
 10
409.128312
 20
79.600208
 30
0.0
 10
409.109352
 20
78.944680
 30
0.0
 10
409.261920
 20
78.816808
 30
0.0
 10
409.588864
 20
79.200000
 30
0.0
 10
409.895264
 20
79.818488
 30
0.0
 10
410.148024
 20
80.615416
 30
0.0
 10
410.320928
 20
81.487968
 30
0.0
 10
410.387752
 20
82.333336
 30
0.0
  0
LWPOLYLINE
  5
11a
100
AcDbEntity
  8
0
 62
7
100
AcDbPolyline
 90
41
 70
0
 10
394.576856
 20
80.730840
 30
0.0
 10
396.753056
 20
82.574744
 30
0.0
 10
398.031640
 20
86.118760
 30
0.0
 10
398.624720
 20
92.486112
 30
0.0
 10
398.744400
 20
102.800000
 30
0.0
 10
398.531440
 20
114.142391
 30
0.0
 10
397.625992
 20
120.445480
 30
0.0
 10
395.469960
 20
123.396278
 30
0.0
 10
391.505224
 20
124.681795
 30
0.0
 10
388.219744
 20
125.054441
 30
0.0
 10
382.780480
 20
125.335422
 30
0.0
 10
375.643920
 20
125.508264
 30
0.0
 10
367.266576
 20
125.556496
 30
0.0
 10
357.058464
 20
125.482528
 30
0.0
 10
350.552184
 20
125.268618
 30
0.0
 10
346.589688
 20
124.844145
 30
0.0
 10
344.012936
 20
124.138492
 30
0.0
 10
342.356992
 20
123.402406
 30
0.0
 10
341.142368
 20
122.620343
 30
0.0
 10
340.327008
 20
121.758231
 30
0.0
 10
339.868832
 20
120.781999
 30
0.0
 10
339.579352
 20
119.757611
 30
0.0
 10
339.202936
 20
118.433594
 30
0.0
 10
338.788304
 20
116.980944
 30
0.0
 10
338.384176
 20
115.570659
 30
0.0
 10
338.007344
 20
113.320947
 30
0.0
 10
337.768976
 20
109.751632
 30
0.0
 10
337.674232
 20
104.991832
 30
0.0
 10
337.728312
 20
99.170656
 30
0.0
 10
337.924360
 20
91.926312
 30
0.0
 10
338.235776
 20
87.645608
 30
0.0
 10
338.810752
 20
85.204784
 30
0.0
 10
339.797496
 20
83.480072
 30
0.0
 10
340.755592
 20
82.370984
 30
0.0
 10
341.917680
 20
81.414000
 30
0.0
 10
343.219672
 20
80.653768
 30
0.0
 10
344.597496
 20
80.134960
 30
0.0
 10
354.016512
 20
79.484752
 30
0.0
 10
370.334328
 20
79.425152
 30
0.0
 10
386.278576
 20
79.869416
 30
0.0
 10
394.576856
 20
80.730840
 30
0.0
  0
LWPOLYLINE
  5
11b
100
AcDbEntity
  8
0
 62
7
100
AcDbPolyline
 90
17
 70
0
 10
326.883336
 20
84.583336
 30
0.0
 10
326.700648
 20
84.649976
 30
0.0
 10
326.560536
 20
84.474232
 30
0.0
 10
326.476776
 20
84.090520
 30
0.0
 10
326.463176
 20
83.533296
 30
0.0
 10
326.519016
 20
82.974856
 30
0.0
 10
326.623504
 20
82.702824
 30
0.0
 10
326.768680
 20
82.725224
 30
0.0
 10
326.946536
 20
83.049992
 30
0.0
 10
327.071544
 20
83.495824
 30
0.0
 10
327.101304
 20
83.933536
 30
0.0
 10
327.037864
 20
84.312808
 30
0.0
 10
326.883368
 20
84.583328
 30
0.0
 10
326.883360
 20
84.583328
 30
0.0
 10
326.883352
 20
84.583328
 30
0.0
 10
326.883344
 20
84.583328
 30
0.0
 10
326.883336
 20
84.583336
 30
0.0
  0
LWPOLYLINE
  5
11c
100
AcDbEntity
  8
0
 62
7
100
AcDbPolyline
 90
13
 70
0
 10
399.931520
 20
85.600000
 30
0.0
 10
399.868720
 20
86.019664
 30
0.0
 10
399.724872
 20
86.092384
 30
0.0
 10
399.501448
 20
85.818888
 30
0.0
 10
399.200000
 20
85.200000
 30
0.0
 10
398.668408
 20
83.754032
 30
0.0
 10
398.491208
 20
82.826880
 30
0.0
 10
398.668408
 20
82.586288
 30
0.0
 10
399.200000
 20
83.200000
 30
0.0
 10
399.497640
 20
83.760624
 30
0.0
 10
399.734776
 20
84.400000
 30
0.0
 10
399.887408
 20
85.039376
 30
0.0
 10
399.931520
 20
85.600000
 30
0.0
  0
LWPOLYLINE
  5
11d
100
AcDbEntity
  8
0
 62
7
100
AcDbPolyline
 90
17
 70
0
 10
410.883336
 20
86.983336
 30
0.0
 10
410.700648
 20
87.049976
 30
0.0
 10
410.560536
 20
86.874232
 30
0.0
 10
410.476776
 20
86.490520
 30
0.0
 10
410.463176
 20
85.933296
 30
0.0
 10
410.519016
 20
85.374856
 30
0.0
 10
410.623504
 20
85.102824
 30
0.0
 10
410.768680
 20
85.125224
 30
0.0
 10
410.946536
 20
85.449992
 30
0.0
 10
411.071544
 20
85.895824
 30
0.0
 10
411.101304
 20
86.333536
 30
0.0
 10
411.037864
 20
86.712808
 30
0.0
 10
410.883368
 20
86.983328
 30
0.0
 10
410.883360
 20
86.983328
 30
0.0
 10
410.883352
 20
86.983328
 30
0.0
 10
410.883344
 20
86.983328
 30
0.0
 10
410.883336
 20
86.983336
 30
0.0
  0
LWPOLYLINE
  5
11e
100
AcDbEntity
  8
0
 62
7
100
AcDbPolyline
 90
17
 70
0
 10
326.883336
 20
87.783336
 30
0.0
 10
326.700648
 20
87.849976
 30
0.0
 10
326.560536
 20
87.674232
 30
0.0
 10
326.476776
 20
87.290520
 30
0.0
 10
326.463176
 20
86.733296
 30
0.0
 10
326.519016
 20
86.174856
 30
0.0
 10
326.623504
 20
85.902824
 30
0.0
 10
326.768680
 20
85.925224
 30
0.0
 10
326.946536
 20
86.249992
 30
0.0
 10
327.071544
 20
86.695824
 30
0.0
 10
327.101304
 20
87.133536
 30
0.0
 10
327.037864
 20
87.512808
 30
0.0
 10
326.883368
 20
87.783328
 30
0.0
 10
326.883360
 20
87.783328
 30
0.0
 10
326.883352
 20
87.783328
 30
0.0
 10
326.883344
 20
87.783328
 30
0.0
 10
326.883336
 20
87.783336
 30
0.0
  0
LWPOLYLINE
  5
11f
100
AcDbEntity
  8
0
 62
7
100
AcDbPolyline
 90
17
 70
0
 10
336.483336
 20
88.583336
 30
0.0
 10
336.300648
 20
88.649976
 30
0.0
 10
336.160536
 20
88.474232
 30
0.0
 10
336.076776
 20
88.090520
 30
0.0
 10
336.063176
 20
87.533296
 30
0.0
 10
336.119016
 20
86.974856
 30
0.0
 10
336.223504
 20
86.702824
 30
0.0
 10
336.368680
 20
86.725224
 30
0.0
 10
336.546536
 20
87.049992
 30
0.0
 10
336.671544
 20
87.495824
 30
0.0
 10
336.701304
 20
87.933536
 30
0.0
 10
336.637864
 20
88.312808
 30
0.0
 10
336.483368
 20
88.583328
 30
0.0
 10
336.483360
 20
88.583328
 30
0.0
 10
336.483352
 20
88.583328
 30
0.0
 10
336.483344
 20
88.583328
 30
0.0
 10
336.483336
 20
88.583336
 30
0.0
  0
LWPOLYLINE
  5
120
100
AcDbEntity
  8
0
 62
7
100
AcDbPolyline
 90
13
 70
0
 10
326.191192
 20
103.000000
 30
0.0
 10
326.079112
 20
104.060160
 30
0.0
 10
325.987328
 20
103.546248
 30
0.0
 10
325.925328
 20
101.609216
 30
0.0
 10
325.902528
 20
98.400000
 30
0.0
 10
325.925328
 20
95.190784
 30
0.0
 10
325.987328
 20
93.253752
 30
0.0
 10
326.079112
 20
92.739840
 30
0.0
 10
326.191192
 20
93.800000
 30
0.0
 10
326.280496
 20
95.949064
 30
0.0
 10
326.310256
 20
98.400000
 30
0.0
 10
326.280496
 20
100.850936
 30
0.0
 10
326.191192
 20
103.000000
 30
0.0
  0
LWPOLYLINE
  5
121
100
AcDbEntity
  8
0
 62
7
100
AcDbPolyline
 90
17
 70
0
 10
335.786800
 20
99.378856
 30
0.0
 10
335.667072
 20
100.202224
 30
0.0
 10
335.568240
 20
99.915040
 30
0.0
 10
335.500560
 20
98.615048
 30
0.0
 10
335.474240
 20
96.400000
 30
0.0
 10
335.496720
 20
94.150048
 30
0.0
 10
335.562160
 20
92.755040
 30
0.0
 10
335.660480
 20
92.327224
 30
0.0
 10
335.781456
 20
92.978856
 30
0.0
 10
335.878568
 20
94.405440
 30
0.0
 10
335.912008
 20
96.087632
 30
0.0
 10
335.881528
 20
97.815440
 30
0.0
 10
335.787072
 20
99.378856
 30
0.0
 10
335.786992
 20
99.378856
 30
0.0
 10
335.786912
 20
99.378856
 30
0.0
 10
335.786840
 20
99.378856
 30
0.0
 10
335.786800
 20
99.378856
 30
0.0
  0
LWPOLYLINE
  5
122
100
AcDbEntity
  8
0
 62
7
100
AcDbPolyline
 90
17
 70
0
 10
400.483336
 20
92.583336
 30
0.0
 10
400.300648
 20
92.650056
 30
0.0
 10
400.160536
 20
92.474312
 30
0.0
 10
400.076776
 20
92.090600
 30
0.0
 10
400.063176
 20
91.533376
 30
0.0
 10
400.119016
 20
90.974936
 30
0.0
 10
400.223504
 20
90.702904
 30
0.0
 10
400.368680
 20
90.725304
 30
0.0
 10
400.546536
 20
91.050072
 30
0.0
 10
400.671544
 20
91.495904
 30
0.0
 10
400.701304
 20
91.933608
 30
0.0
 10
400.637864
 20
92.312880
 30
0.0
 10
400.483368
 20
92.583408
 30
0.0
 10
400.483360
 20
92.583408
 30
0.0
 10
400.483352
 20
92.583408
 30
0.0
 10
400.483344
 20
92.583408
 30
0.0
 10
400.483336
 20
92.583336
 30
0.0
  0
LWPOLYLINE
  5
123
100
AcDbEntity
  8
0
 62
7
100
AcDbPolyline
 90
13
 70
0
 10
410.951464
 20
94.200000
 30
0.0
 10
410.809408
 20
94.522656
 30
0.0
 10
410.693072
 20
94.366248
 30
0.0
 10
410.614432
 20
93.776720
 30
0.0
 10
410.585552
 20
92.800000
 30
0.0
 10
410.614432
 20
91.823280
 30
0.0
 10
410.693072
 20
91.233752
 30
0.0
 10
410.809408
 20
91.077344
 30
0.0
 10
410.951464
 20
91.400000
 30
0.0
 10
411.064656
 20
92.054064
 30
0.0
 10
411.102416
 20
92.800000
 30
0.0
 10
411.064656
 20
93.545936
 30
0.0
 10
410.951464
 20
94.200000
 30
0.0
  0
LWPOLYLINE
  5
124
100
AcDbEntity
  8
0
 62
7
100
AcDbPolyline
 90
17
 70
0
 10
401.386936
 20
105.426816
 30
0.0
 10
401.271320
 20
106.260624
 30
0.0
 10
401.177208
 20
105.741624
 30
0.0
 10
401.114248
 20
104.008520
 30
0.0
 10
401.092168
 20
101.200000
 30
0.0
 10
401.117048
 20
98.427272
 30
0.0
 10
401.181528
 20
96.791624
 30
0.0
 10
401.275992
 20
96.416872
 30
0.0
 10
401.390688
 20
97.426816
 30
0.0
 10
401.481576
 20
99.365736
 30
0.0
 10
401.511096
 20
101.520384
 30
0.0
 10
401.479416
 20
103.628240
 30
0.0
 10
401.386632
 20
105.426816
 30
0.0
 10
401.386688
 20
105.426816
 30
0.0
 10
401.386744
 20
105.426816
 30
0.0
 10
401.386792
 20
105.426816
 30
0.0
 10
401.386936
 20
105.426816
 30
0.0
  0
LWPOLYLINE
  5
125
100
AcDbEntity
  8
0
 62
7
100
AcDbPolyline
 90
13
 70
0
 10
411.773000
 20
102.200000
 30
0.0
 10
411.643600
 20
102.707032
 30
0.0
 10
411.537632
 20
102.461248
 30
0.0
 10
411.466032
 20
101.534840
 30
0.0
 10
411.439712
 20
100.000000
 30
0.0
 10
411.466032
 20
98.465160
 30
0.0
 10
411.537632
 20
97.538752
 30
0.0
 10
411.643600
 20
97.292968
 30
0.0
 10
411.773000
 20
97.800000
 30
0.0
 10
411.876104
 20
98.827816
 30
0.0
 10
411.910504
 20
100.000000
 30
0.0
 10
411.876104
 20
101.172184
 30
0.0
 10
411.773000
 20
102.200000
 30
0.0
  0
LWPOLYLINE
  5
126
100
AcDbEntity
  8
0
 62
7
100
AcDbPolyline
 90
13
 70
0
 10
326.973000
 20
114.200000
 30
0.0
 10
326.843600
 20
114.707031
 30
0.0
 10
326.737632
 20
114.461250
 30
0.0
 10
326.666032
 20
113.534844
 30
0.0
 10
326.639712
 20
112.000000
 30
0.0
 10
326.666032
 20
110.465160
 30
0.0
 10
326.737632
 20
109.538752
 30
0.0
 10
326.843600
 20
109.292968
 30
0.0
 10
326.973000
 20
109.800000
 30
0.0
 10
327.076104
 20
110.827816
 30
0.0
 10
327.110504
 20
112.000000
 30
0.0
 10
327.076104
 20
113.172187
 30
0.0
 10
326.973000
 20
114.200000
 30
0.0
  0
LWPOLYLINE
  5
127
100
AcDbEntity
  8
0
 62
7
100
AcDbPolyline
 90
13
 70
0
 10
337.506064
 20
118.000000
 30
0.0
 10
337.420128
 20
118.419349
 30
0.0
 10
337.237256
 20
118.336890
 30
0.0
 10
336.980608
 20
117.785986
 30
0.0
 10
336.673328
 20
116.800000
 30
0.0
 10
335.858808
 20
113.612038
 30
0.0
 10
335.526256
 20
111.857910
 30
0.0
 10
335.687776
 20
111.674827
 30
0.0
 10
336.355496
 20
113.200000
 30
0.0
 10
336.823848
 20
114.568750
 30
0.0
 10
337.196896
 20
115.930000
 30
0.0
 10
337.436888
 20
117.126250
 30
0.0
 10
337.506064
 20
118.000000
 30
0.0
  0
LWPOLYLINE
  5
128
100
AcDbEntity
  8
0
 62
7
100
AcDbPolyline
 90
17
 70
0
 10
410.883336
 20
112.583334
 30
0.0
 10
410.700648
 20
112.650014
 30
0.0
 10
410.560536
 20
112.474271
 30
0.0
 10
410.476776
 20
112.090561
 30
0.0
 10
410.463176
 20
111.533334
 30
0.0
 10
410.519016
 20
110.974897
 30
0.0
 10
410.623504
 20
110.702865
 30
0.0
 10
410.768680
 20
110.725265
 30
0.0
 10
410.946536
 20
111.050033
 30
0.0
 10
411.071544
 20
111.495866
 30
0.0
 10
411.101304
 20
111.933575
 30
0.0
 10
411.037864
 20
112.312846
 30
0.0
 10
410.883368
 20
112.583366
 30
0.0
 10
410.883360
 20
112.583366
 30
0.0
 10
410.883352
 20
112.583366
 30
0.0
 10
410.883344
 20
112.583366
 30
0.0
 10
410.883336
 20
112.583334
 30
0.0
  0
LWPOLYLINE
  5
129
100
AcDbEntity
  8
0
 62
7
100
AcDbPolyline
 90
13
 70
0
 10
400.551464
 20
115.000000
 30
0.0
 10
400.409408
 20
115.322656
 30
0.0
 10
400.293072
 20
115.166250
 30
0.0
 10
400.214432
 20
114.576718
 30
0.0
 10
400.185600
 20
113.600000
 30
0.0
 10
400.214480
 20
112.623282
 30
0.0
 10
400.293120
 20
112.033750
 30
0.0
 10
400.409456
 20
111.877344
 30
0.0
 10
400.551512
 20
112.200000
 30
0.0
 10
400.664704
 20
112.854062
 30
0.0
 10
400.702464
 20
113.600000
 30
0.0
 10
400.664704
 20
114.345938
 30
0.0
 10
400.551464
 20
115.000000
 30
0.0
  0
LWPOLYLINE
  5
12a
100
AcDbEntity
  8
0
 62
7
100
AcDbPolyline
 90
13
 70
0
 10
410.929824
 20
118.600000
 30
0.0
 10
410.773152
 20
118.830469
 30
0.0
 10
410.644848
 20
118.718750
 30
0.0
 10
410.558152
 20
118.297656
 30
0.0
 10
410.526312
 20
117.600000
 30
0.0
 10
410.558152
 20
116.902344
 30
0.0
 10
410.644848
 20
116.481250
 30
0.0
 10
410.773152
 20
116.369531
 30
0.0
 10
410.929824
 20
116.600000
 30
0.0
 10
411.054656
 20
117.067187
 30
0.0
 10
411.096256
 20
117.600000
 30
0.0
 10
411.054656
 20
118.132813
 30
0.0
 10
410.929824
 20
118.600000
 30
0.0
  0
LWPOLYLINE
  5
12b
100
AcDbEntity
  8
0
 62
7
100
AcDbPolyline
 90
17
 70
0
 10
327.683336
 20
119.783334
 30
0.0
 10
327.500648
 20
119.850014
 30
0.0
 10
327.360536
 20
119.674271
 30
0.0
 10
327.276776
 20
119.290561
 30
0.0
 10
327.263176
 20
118.733334
 30
0.0
 10
327.319016
 20
118.174900
 30
0.0
 10
327.423504
 20
117.902865
 30
0.0
 10
327.568680
 20
117.925233
 30
0.0
 10
327.746536
 20
118.250003
 30
0.0
 10
327.871544
 20
118.695837
 30
0.0
 10
327.901304
 20
119.133546
 30
0.0
 10
327.837864
 20
119.512816
 30
0.0
 10
327.683368
 20
119.783337
 30
0.0
 10
327.683360
 20
119.783337
 30
0.0
 10
327.683352
 20
119.783337
 30
0.0
 10
327.683344
 20
119.783337
 30
0.0
 10
327.683336
 20
119.783334
 30
0.0
  0
LWPOLYLINE
  5
12c
100
AcDbEntity
  8
0
 62
7
100
AcDbPolyline
 90
21
 70
0
 10
398.666344
 20
122.155470
 30
0.0
 10
398.010192
 20
123.330880
 30
0.0
 10
397.307616
 20
124.345052
 30
0.0
 10
396.642816
 20
125.089674
 30
0.0
 10
396.100000
 20
125.456432
 30
0.0
 10
395.799192
 20
125.462912
 30
0.0
 10
395.796792
 20
125.225165
 30
0.0
 10
396.075480
 20
124.784322
 30
0.0
 10
396.618848
 20
124.181485
 30
0.0
 10
397.294760
 20
123.341450
 30
0.0
 10
397.938632
 20
122.250710
 30
0.0
 10
398.477624
 20
121.050357
 30
0.0
 10
398.838888
 20
119.881485
 30
0.0
 10
399.099760
 20
118.919158
 30
0.0
 10
399.365416
 20
118.281176
 30
0.0
 10
399.604760
 20
118.022744
 30
0.0
 10
399.786688
 20
118.199068
 30
0.0
 10
399.805488
 20
118.820332
 30
0.0
 10
399.600568
 20
119.773372
 30
0.0
 10
399.208720
 20
120.928368
 30
0.0
 10
398.666344
 20
122.155470
 30
0.0
  0
LWPOLYLINE
  5
12d
100
AcDbEntity
  8
0
 62
7
100
AcDbPolyline
 90
13
 70
0
 10
328.529824
 20
123.400000
 30
0.0
 10
328.373152
 20
123.630469
 30
0.0
 10
328.244848
 20
123.518750
 30
0.0
 10
328.158152
 20
123.097656
 30
0.0
 10
328.126312
 20
122.400000
 30
0.0
 10
328.158152
 20
121.702344
 30
0.0
 10
328.244848
 20
121.281250
 30
0.0
 10
328.373152
 20
121.169531
 30
0.0
 10
328.529824
 20
121.400000
 30
0.0
 10
328.654656
 20
121.867187
 30
0.0
 10
328.696256
 20
122.400000
 30
0.0
 10
328.654656
 20
122.932813
 30
0.0
 10
328.529824
 20
123.400000
 30
0.0
  0
LWPOLYLINE
  5
12e
100
AcDbEntity
  8
0
 62
7
100
AcDbPolyline
 90
13
 70
0
 10
342.400000
 20
125.320155
 30
0.0
 10
341.909336
 20
125.349251
 30
0.0
 10
340.787064
 20
124.779766
 30
0.0
 10
339.557776
 20
123.928616
 30
0.0
 10
338.746056
 20
123.112715
 30
0.0
 10
338.700776
 20
122.880036
 30
0.0
 10
338.978952
 20
122.896052
 30
0.0
 10
339.529536
 20
123.144477
 30
0.0
 10
340.301496
 20
123.609026
 30
0.0
 10
341.116304
 20
124.169430
 30
0.0
 10
341.783560
 20
124.678851
 30
0.0
 10
342.234408
 20
125.081142
 30
0.0
 10
342.400000
 20
125.320155
 30
0.0
  0
LWPOLYLINE
  5
12f
100
AcDbEntity
  8
0
 62
7
100
AcDbPolyline
 90
17
 70
0
 10
409.283336
 20
126.183334
 30
0.0
 10
409.100648
 20
126.250014
 30
0.0
 10
408.960536
 20
126.074271
 30
0.0
 10
408.876776
 20
125.690561
 30
0.0
 10
408.863176
 20
125.133334
 30
0.0
 10
408.919016
 20
124.574900
 30
0.0
 10
409.023504
 20
124.302865
 30
0.0
 10
409.168680
 20
124.325233
 30
0.0
 10
409.346536
 20
124.650003
 30
0.0
 10
409.471544
 20
125.095837
 30
0.0
 10
409.501304
 20
125.533546
 30
0.0
 10
409.437864
 20
125.912816
 30
0.0
 10
409.283368
 20
126.183337
 30
0.0
 10
409.283360
 20
126.183337
 30
0.0
 10
409.283352
 20
126.183337
 30
0.0
 10
409.283344
 20
126.183337
 30
0.0
 10
409.283336
 20
126.183334
 30
0.0
  0
LWPOLYLINE
  5
130
100
AcDbEntity
  8
0
 62
7
100
AcDbPolyline
 90
17
 70
0
 10
333.320000
 20
130.980780
 30
0.0
 10
334.253464
 20
131.997774
 30
0.0
 10
334.932216
 20
132.830604
 30
0.0
 10
335.292272
 20
133.393327
 30
0.0
 10
335.269672
 20
133.600000
 30
0.0
 10
334.153072
 20
132.907635
 30
0.0
 10
332.509112
 20
131.220361
 30
0.0
 10
330.848376
 20
129.122906
 30
0.0
 10
329.681416
 20
127.200000
 30
0.0
 10
329.242784
 20
126.217584
 30
0.0
 10
329.109904
 20
125.835446
 30
0.0
 10
329.288344
 20
126.030781
 30
0.0
 10
329.783664
 20
126.780780
 30
0.0
 10
330.377128
 20
127.601240
 30
0.0
 10
331.241704
 20
128.666602
 30
0.0
 10
332.261336
 20
129.839053
 30
0.0
 10
333.320000
 20
130.980780
 30
0.0
  0
LWPOLYLINE
  5
131
100
AcDbEntity
  8
0
 62
7
100
AcDbPolyline
 90
13
 70
0
 10
350.333336
 20
126.911327
 30
0.0
 10
349.914272
 20
127.177186
 30
0.0
 10
348.200216
 20
127.124578
 30
0.0
 10
346.069384
 20
126.832287
 30
0.0
 10
344.400000
 20
126.379090
 30
0.0
 10
343.923744
 20
126.098505
 30
0.0
 10
344.097928
 20
125.966282
 30
0.0
 10
344.923144
 20
125.982354
 30
0.0
 10
346.400000
 20
126.146647
 30
0.0
 10
347.824112
 20
126.354249
 30
0.0
 10
349.040416
 20
126.567623
 30
0.0
 10
349.919848
 20
126.761679
 30
0.0
 10
350.333336
 20
126.911327
 30
0.0
  0
LWPOLYLINE
  5
132
100
AcDbEntity
  8
0
 62
7
100
AcDbPolyline
 90
13
 70
0
 10
393.800000
 20
126.129825
 30
0.0
 10
393.332816
 20
126.254660
 30
0.0
 10
392.800000
 20
126.296272
 30
0.0
 10
392.267184
 20
126.254664
 30
0.0
 10
391.800000
 20
126.129829
 30
0.0
 10
391.569528
 20
125.973154
 30
0.0
 10
391.681248
 20
125.844850
 30
0.0
 10
392.102344
 20
125.758159
 30
0.0
 10
392.800000
 20
125.726319
 30
0.0
 10
393.497656
 20
125.758159
 30
0.0
 10
393.918752
 20
125.844850
 30
0.0
 10
394.030472
 20
125.973154
 30
0.0
 10
393.800000
 20
126.129825
 30
0.0
  0
LWPOLYLINE
  5
133
100
AcDbEntity
  8
0
 62
7
100
AcDbPolyline
 90
13
 70
0
 10
355.784776
 20
126.954393
 30
0.0
 10
355.157568
 20
127.066148
 30
0.0
 10
354.495992
 20
127.097812
 30
0.0
 10
353.878816
 20
127.050356
 30
0.0
 10
353.384776
 20
126.924754
 30
0.0
 10
353.191784
 20
126.772390
 30
0.0
 10
353.394280
 20
126.652069
 30
0.0
 10
353.945832
 20
126.575893
 30
0.0
 10
354.800000
 20
126.555965
 30
0.0
 10
355.620208
 20
126.596573
 30
0.0
 10
356.079280
 20
126.685230
 30
0.0
 10
356.144880
 20
126.808861
 30
0.0
 10
355.784776
 20
126.954393
 30
0.0
  0
LWPOLYLINE
  5
134
100
AcDbEntity
  8
0
 62
7
100
AcDbPolyline
 90
13
 70
0
 10
389.800000
 20
126.929825
 30
0.0
 10
389.332816
 20
127.054660
 30
0.0
 10
388.800000
 20
127.096272
 30
0.0
 10
388.267184
 20
127.054664
 30
0.0
 10
387.800000
 20
126.929829
 30
0.0
 10
387.569528
 20
126.773154
 30
0.0
 10
387.681248
 20
126.644850
 30
0.0
 10
388.102344
 20
126.558159
 30
0.0
 10
388.800000
 20
126.526319
 30
0.0
 10
389.497656
 20
126.558159
 30
0.0
 10
389.918752
 20
126.644850
 30
0.0
 10
390.030472
 20
126.773154
 30
0.0
 10
389.800000
 20
126.929825
 30
0.0
  0
LWPOLYLINE
  5
135
100
AcDbEntity
  8
0
 62
7
100
AcDbPolyline
 90
13
 70
0
 10
367.400000
 20
127.778717
 30
0.0
 10
366.185312
 20
127.878538
 30
0.0
 10
364.800000
 20
127.911810
 30
0.0
 10
363.414688
 20
127.878538
 30
0.0
 10
362.200000
 20
127.778717
 30
0.0
 10
361.600784
 20
127.653435
 30
0.0
 10
361.891248
 20
127.550840
 30
0.0
 10
362.986096
 20
127.481520
 30
0.0
 10
364.800000
 20
127.456064
 30
0.0
 10
366.613904
 20
127.481520
 30
0.0
 10
367.708752
 20
127.550840
 30
0.0
 10
367.999216
 20
127.653435
 30
0.0
 10
367.400000
 20
127.778717
 30
0.0
  0
LWPOLYLINE
  5
136
100
AcDbEntity
  8
0
 62
7
100
AcDbPolyline
 90
13
 70
0
 10
384.950000
 20
127.746493
 30
0.0
 10
384.504168
 20
127.871501
 30
0.0
 10
384.066456
 20
127.901261
 30
0.0
 10
383.687184
 20
127.837845
 30
0.0
 10
383.416664
 20
127.683329
 30
0.0
 10
383.350024
 20
127.500642
 30
0.0
 10
383.525768
 20
127.360526
 30
0.0
 10
383.909480
 20
127.276768
 30
0.0
 10
384.466704
 20
127.263152
 30
0.0
 10
385.025144
 20
127.318952
 30
0.0
 10
385.297176
 20
127.423445
 30
0.0
 10
385.274776
 20
127.568624
 30
0.0
 10
384.950000
 20
127.746493
 30
0.0
  0
LWPOLYLINE
  5
137
100
AcDbEntity
  8
0
 62
7
100
AcDbPolyline
 90
13
 70
0
 10
407.200000
 20
130.702044
 30
0.0
 10
407.089528
 20
130.905958
 30
0.0
 10
406.788752
 20
131.237888
 30
0.0
 10
406.343592
 20
131.651895
 30
0.0
 10
405.800000
 20
132.102044
 30
0.0
 10
405.077576
 20
132.653088
 30
0.0
 10
404.800000
 20
132.800001
 30
0.0
 10
404.946912
 20
132.522424
 30
0.0
 10
405.497952
 20
131.800000
 30
0.0
 10
406.204800
 20
130.973663
 30
0.0
 10
406.740888
 20
130.504387
 30
0.0
 10
407.081024
 20
130.408429
 30
0.0
 10
407.200000
 20
130.702044
 30
0.0
  0
LWPOLYLINE
  5
138
100
AcDbEntity
  8
0
 62
7
100
AcDbPolyline
 90
13
 70
0
 10
343.933336
 20
135.712541
 30
0.0
 10
343.809344
 20
136.021615
 30
0.0
 10
342.672824
 20
135.971751
 30
0.0
 10
341.183224
 20
135.655009
 30
0.0
 10
340.000000
 20
135.163448
 30
0.0
 10
339.571304
 20
134.815122
 30
0.0
 10
339.614104
 20
134.656430
 30
0.0
 10
340.149840
 20
134.682446
 30
0.0
 10
341.200016
 20
134.888242
 30
0.0
 10
342.158192
 20
135.119370
 30
0.0
 10
342.992936
 20
135.351826
 30
0.0
 10
343.614552
 20
135.558566
 30
0.0
 10
343.933336
 20
135.712541
 30
0.0
  0
LWPOLYLINE
  5
139
100
AcDbEntity
  8
0
 62
7
100
AcDbPolyline
 90
13
 70
0
 10
400.000000
 20
135.200000
 30
0.0
 10
399.439376
 20
135.497642
 30
0.0
 10
398.800000
 20
135.734778
 30
0.0
 10
398.160624
 20
135.887406
 30
0.0
 10
397.600000
 20
135.931522
 30
0.0
 10
397.180336
 20
135.868738
 30
0.0
 10
397.107696
 20
135.724890
 30
0.0
 10
397.381192
 20
135.501476
 30
0.0
 10
398.000000
 20
135.200000
 30
0.0
 10
399.445968
 20
134.668404
 30
0.0
 10
400.373120
 20
134.491206
 30
0.0
 10
400.613712
 20
134.668404
 30
0.0
 10
400.000000
 20
135.200000
 30
0.0
  0
LWPOLYLINE
  5
13a
100
AcDbEntity
  8
0
 62
7
100
AcDbPolyline
 90
13
 70
0
 10
395.133336
 20
136.506128
 30
0.0
 10
394.837192
 20
136.774700
 30
0.0
 10
393.400336
 20
136.722548
 30
0.0
 10
391.546640
 20
136.426316
 30
0.0
 10
390.000000
 20
135.962641
 30
0.0
 10
389.465928
 20
135.664614
 30
0.0
 10
389.545448
 20
135.527014
 30
0.0
 10
390.252264
 20
135.547814
 30
0.0
 10
391.599960
 20
135.724994
 30
0.0
 10
392.868760
 20
135.937375
 30
0.0
 10
393.957880
 20
136.155444
 30
0.0
 10
394.751368
 20
136.353570
 30
0.0
 10
395.133336
 20
136.506128
 30
0.0
  0
LWPOLYLINE
  5
13b
100
AcDbEntity
  8
0
 62
7
100
AcDbPolyline
 90
13
 70
0
 10
355.021144
 20
136.581512
 30
0.0
 10
353.594560
 20
136.678623
 30
0.0
 10
351.912368
 20
136.711991
 30
0.0
 10
350.184560
 20
136.681439
 30
0.0
 10
348.621144
 20
136.586794
 30
0.0
 10
347.797776
 20
136.467070
 30
0.0
 10
348.084960
 20
136.368235
 30
0.0
 10
349.384952
 20
136.300539
 30
0.0
 10
351.600000
 20
136.274243
 30
0.0
 10
353.849952
 20
136.296851
 30
0.0
 10
355.244960
 20
136.362323
 30
0.0
 10
355.672776
 20
136.460570
 30
0.0
 10
355.021144
 20
136.581512
 30
0.0
  0
LWPOLYLINE
  5
13c
100
AcDbEntity
  8
0
 62
7
100
AcDbPolyline
 90
13
 70
0
 10
387.350000
 20
136.546488
 30
0.0
 10
386.904168
 20
136.671496
 30
0.0
 10
386.466456
 20
136.701256
 30
0.0
 10
386.087184
 20
136.637840
 30
0.0
 10
385.816664
 20
136.483324
 30
0.0
 10
385.750024
 20
136.300638
 30
0.0
 10
385.925768
 20
136.160522
 30
0.0
 10
386.309480
 20
136.076763
 30
0.0
 10
386.866704
 20
136.063147
 30
0.0
 10
387.425144
 20
136.118947
 30
0.0
 10
387.697176
 20
136.223440
 30
0.0
 10
387.674776
 20
136.368619
 30
0.0
 10
387.350000
 20
136.546488
 30
0.0
  0
LWPOLYLINE
  5
13d
100
AcDbEntity
  8
0
 62
7
100
AcDbPolyline
 90
13
 70
0
 10
378.160720
 20
137.396224
 30
0.0
 10
374.909816
 20
137.478761
 30
0.0
 10
371.262016
 20
137.505961
 30
0.0
 10
367.663568
 20
137.477873
 30
0.0
 10
364.560720
 20
137.394550
 30
0.0
 10
363.086440
 20
137.290277
 30
0.0
 10
363.922208
 20
137.205140
 30
0.0
 10
366.837056
 20
137.147908
 30
0.0
 10
371.600000
 20
137.127340
 30
0.0
 10
376.325184
 20
137.149076
 30
0.0
 10
379.137208
 20
137.207020
 30
0.0
 10
379.820816
 20
137.292346
 30
0.0
 10
378.160720
 20
137.396224
 30
0.0
  0
LWPOLYLINE
  5
13e
100
AcDbEntity
  8
0
 62
7
100
AcDbPolyline
 90
61
 70
0
 10
170.000000
 20
66.442672
 30
0.0
 10
159.766576
 20
66.926008
 30
0.0
 10
152.944416
 20
67.773960
 30
0.0
 10
148.275328
 20
69.239872
 30
0.0
 10
144.501136
 20
71.577096
 30
0.0
 10
141.877304
 20
74.288432
 30
0.0
 10
139.649776
 20
78.018600
 30
0.0
 10
137.930496
 20
82.533744
 30
0.0
 10
136.831392
 20
87.600000
 30
0.0
 10
136.180280
 20
98.724112
 30
0.0
 10
135.996144
 20
115.182957
 30
0.0
 10
136.261784
 20
130.310322
 30
0.0
 10
136.960000
 20
137.440000
 30
0.0
 10
139.265624
 20
138.151239
 30
0.0
 10
143.200000
 20
138.388319
 30
0.0
 10
147.134384
 20
138.151239
 30
0.0
 10
149.440000
 20
137.440000
 30
0.0
 10
149.886896
 20
135.724397
 30
0.0
 10
150.183912
 20
131.324070
 30
0.0
 10
150.348968
 20
123.775285
 30
0.0
 10
150.400008
 20
112.614305
 30
0.0
 10
150.517352
 20
96.648008
 30
0.0
 10
151.154952
 20
87.860984
 30
0.0
 10
152.741184
 20
83.773256
 30
0.0
 10
155.704408
 20
81.904824
 30
0.0
 10
158.026624
 20
81.284272
 30
0.0
 10
162.048664
 20
80.952784
 30
0.0
 10
168.955784
 20
80.864880
 30
0.0
 10
179.933200
 20
80.975064
 30
0.0
 10
188.303504
 20
81.146312
 30
0.0
 10
195.372824
 20
81.385024
 30
0.0
 10
200.396432
 20
81.659584
 30
0.0
 10
202.629600
 20
81.938392
 30
0.0
 10
203.292816
 20
82.390416
 30
0.0
 10
204.041800
 20
83.136608
 30
0.0
 10
204.784688
 20
84.073336
 30
0.0
 10
205.429600
 20
85.096944
 30
0.0
 10
206.155024
 20
87.234792
 30
0.0
 10
206.605808
 20
91.406176
 30
0.0
 10
206.874600
 20
99.144496
 30
0.0
 10
207.054040
 20
111.983137
 30
0.0
 10
207.218256
 20
122.421698
 30
0.0
 10
207.461928
 20
130.271937
 30
0.0
 10
207.776144
 20
135.327774
 30
0.0
 10
208.152000
 20
137.383137
 30
0.0
 10
210.332584
 20
138.186510
 30
0.0
 10
214.043664
 20
138.422814
 30
0.0
 10
217.758744
 20
138.108153
 30
0.0
 10
219.951344
 20
137.258634
 30
0.0
 10
220.381120
 20
135.327407
 30
0.0
 10
220.630632
 20
130.424095
 30
0.0
 10
220.713880
 20
121.988052
 30
0.0
 10
220.644840
 20
109.458632
 30
0.0
 10
220.420264
 20
92.632224
 30
0.0
 10
219.814608
 20
83.510360
 30
0.0
 10
218.306632
 20
78.643224
 30
0.0
 10
215.375104
 20
74.580984
 30
0.0
 10
210.085440
 20
69.983592
 30
0.0
 10
201.989640
 20
67.315344
 30
0.0
 10
189.242800
 20
66.245336
 30
0.0
 10
170.000000
 20
66.442672
 30
0.0
  0
LWPOLYLINE
  5
13f
100
AcDbEntity
  8
0
 62
7
100
AcDbPolyline
 90
13
 70
0
 10
188.200000
 20
67.764584
 30
0.0
 10
187.359064
 20
67.871848
 30
0.0
 10
186.400000
 20
67.907608
 30
0.0
 10
185.440936
 20
67.871848
 30
0.0
 10
184.600000
 20
67.764584
 30
0.0
 10
184.185160
 20
67.629968
 30
0.0
 10
184.386248
 20
67.519728
 30
0.0
 10
185.144216
 20
67.445248
 30
0.0
 10
186.400000
 20
67.417888
 30
0.0
 10
187.655784
 20
67.445248
 30
0.0
 10
188.413752
 20
67.519728
 30
0.0
 10
188.614840
 20
67.629968
 30
0.0
 10
188.200000
 20
67.764584
 30
0.0
  0
LWPOLYLINE
  5
140
100
AcDbEntity
  8
0
 62
7
100
AcDbPolyline
 90
13
 70
0
 10
179.200000
 20
68.491472
 30
0.0
 10
173.236248
 20
68.810104
 30
0.0
 10
164.262648
 20
68.968400
 30
0.0
 10
156.394336
 20
68.935680
 30
0.0
 10
153.746416
 20
68.681256
 30
0.0
 10
155.476128
 20
68.481832
 30
0.0
 10
158.815512
 20
68.324552
 30
0.0
 10
163.283744
 20
68.225208
 30
0.0
 10
168.400000
 20
68.199608
 30
0.0
 10
173.212184
 20
68.235048
 30
0.0
 10
176.852504
 20
68.301928
 30
0.0
 10
178.966560
 20
68.390592
 30
0.0
 10
179.200000
 20
68.491472
 30
0.0
  0
LWPOLYLINE
  5
141
100
AcDbEntity
  8
0
 62
7
100
AcDbPolyline
 90
13
 70
0
 10
198.585672
 20
68.579784
 30
0.0
 10
197.398112
 20
68.679296
 30
0.0
 10
196.097264
 20
68.710896
 30
0.0
 10
194.840616
 20
68.674896
 30
0.0
 10
193.785672
 20
68.571576
 30
0.0
 10
193.315768
 20
68.443352
 30
0.0
 10
193.652040
 20
68.339576
 30
0.0
 10
194.708712
 20
68.270856
 30
0.0
 10
196.400000
 20
68.247816
 30
0.0
 10
198.057464
 20
68.276696
 30
0.0
 10
199.022040
 20
68.348856
 30
0.0
 10
199.222016
 20
68.453472
 30
0.0
 10
198.585672
 20
68.579784
 30
0.0
  0
LWPOLYLINE
  5
142
100
AcDbEntity
  8
0
 62
7
100
AcDbPolyline
 90
17
 70
0
 10
204.150000
 20
69.346488
 30
0.0
 10
203.704168
 20
69.471496
 30
0.0
 10
203.266456
 20
69.501256
 30
0.0
 10
202.887184
 20
69.437816
 30
0.0
 10
202.616664
 20
69.283320
 30
0.0
 10
202.550024
 20
69.100632
 30
0.0
 10
202.725768
 20
68.960520
 30
0.0
 10
203.109480
 20
68.876760
 30
0.0
 10
203.666704
 20
68.863160
 30
0.0
 10
204.225144
 20
68.919000
 30
0.0
 10
204.497176
 20
69.023488
 30
0.0
 10
204.474776
 20
69.168664
 30
0.0
 10
204.150008
 20
69.346520
 30
0.0
 10
204.150008
 20
69.346512
 30
0.0
 10
204.150008
 20
69.346504
 30
0.0
 10
204.150008
 20
69.346496
 30
0.0
 10
204.150000
 20
69.346488
 30
0.0
  0
LWPOLYLINE
  5
143
100
AcDbEntity
  8
0
 62
7
100
AcDbPolyline
 90
13
 70
0
 10
146.800000
 20
72.375200
 30
0.0
 10
145.808520
 20
73.141320
 30
0.0
 10
144.883096
 20
73.773032
 30
0.0
 10
144.127264
 20
74.204832
 30
0.0
 10
143.644576
 20
74.371232
 30
0.0
 10
143.565136
 20
74.224600
 30
0.0
 10
143.907344
 20
73.804056
 30
0.0
 10
144.607016
 20
73.174296
 30
0.0
 10
145.600000
 20
72.400000
 30
0.0
 10
147.698608
 20
70.950104
 30
0.0
 10
148.681120
 20
70.460960
 30
0.0
 10
148.423072
 20
70.935136
 30
0.0
 10
146.800000
 20
72.375200
 30
0.0
  0
LWPOLYLINE
  5
144
100
AcDbEntity
  8
0
 62
7
100
AcDbPolyline
 90
25
 70
0
 10
215.036680
 20
76.060456
 30
0.0
 10
215.523800
 20
76.745344
 30
0.0
 10
216.010920
 20
77.430224
 30
0.0
 10
216.498040
 20
78.115112
 30
0.0
 10
216.985160
 20
78.800000
 30
0.0
 10
216.470304
 20
78.207112
 30
0.0
 10
215.955448
 20
77.614232
 30
0.0
 10
215.440600
 20
77.021344
 30
0.0
 10
214.925744
 20
76.428456
 30
0.0
 10
213.981464
 20
75.387168
 30
0.0
 10
212.932792
 20
74.305096
 30
0.0
 10
211.907448
 20
73.310152
 30
0.0
 10
211.033168
 20
72.530248
 30
0.0
 10
210.574872
 20
72.148584
 30
0.0
 10
210.116584
 20
71.766912
 30
0.0
 10
209.658288
 20
71.385248
 30
0.0
 10
209.200000
 20
71.003576
 30
0.0
 10
209.686024
 20
71.293248
 30
0.0
 10
210.172048
 20
71.582912
 30
0.0
 10
210.658072
 20
71.872584
 30
0.0
 10
211.144096
 20
72.162248
 30
0.0
 10
212.052704
 20
72.828304
 30
0.0
 10
213.089488
 20
73.785304
 30
0.0
 10
214.126720
 20
74.905320
 30
0.0
 10
215.036680
 20
76.060456
 30
0.0
  0
LWPOLYLINE
  5
145
100
AcDbEntity
  8
0
 62
7
100
AcDbPolyline
 90
13
 70
0
 10
191.600000
 20
78.932912
 30
0.0
 10
182.405816
 20
79.248216
 30
0.0
 10
171.054584
 20
79.383928
 30
0.0
 10
161.631648
 20
79.324968
 30
0.0
 10
158.222360
 20
79.056232
 30
0.0
 10
160.177584
 20
78.852336
 30
0.0
 10
164.482816
 20
78.699144
 30
0.0
 10
170.502232
 20
78.611496
 30
0.0
 10
177.600000
 20
78.604296
 30
0.0
 10
184.273440
 20
78.658616
 30
0.0
 10
189.137504
 20
78.738696
 30
0.0
 10
191.732816
 20
78.833744
 30
0.0
 10
191.600000
 20
78.932912
 30
0.0
  0
LWPOLYLINE
  5
146
100
AcDbEntity
  8
0
 62
7
100
AcDbPolyline
 90
13
 70
0
 10
140.097656
 20
81.340000
 30
0.0
 10
139.528920
 20
82.165040
 30
0.0
 10
139.255096
 20
82.248032
 30
0.0
 10
139.302856
 20
81.649736
 30
0.0
 10
139.698840
 20
80.430928
 30
0.0
 10
139.922080
 20
79.955744
 30
0.0
 10
140.161144
 20
79.622864
 30
0.0
 10
140.387392
 20
79.462656
 30
0.0
 10
140.572168
 20
79.505536
 30
0.0
 10
140.650648
 20
79.766152
 30
0.0
 10
140.587368
 20
80.198904
 30
0.0
 10
140.397888
 20
80.743600
 30
0.0
 10
140.097656
 20
81.340000
 30
0.0
  0
LWPOLYLINE
  5
147
100
AcDbEntity
  8
0
 62
7
100
AcDbPolyline
 90
17
 70
0
 10
198.984776
 20
79.754392
 30
0.0
 10
198.357568
 20
79.866144
 30
0.0
 10
197.695992
 20
79.897824
 30
0.0
 10
197.078816
 20
79.850384
 30
0.0
 10
196.584776
 20
79.724760
 30
0.0
 10
196.391784
 20
79.572392
 30
0.0
 10
196.594280
 20
79.452072
 30
0.0
 10
197.145832
 20
79.375912
 30
0.0
 10
198.000000
 20
79.355992
 30
0.0
 10
198.820208
 20
79.396632
 30
0.0
 10
199.279280
 20
79.485288
 30
0.0
 10
199.344880
 20
79.608920
 30
0.0
 10
198.984752
 20
79.754448
 30
0.0
 10
198.984752
 20
79.754456
 30
0.0
 10
198.984752
 20
79.754472
 30
0.0
 10
198.984752
 20
79.754480
 30
0.0
 10
198.984776
 20
79.754392
 30
0.0
  0
LWPOLYLINE
  5
148
100
AcDbEntity
  8
0
 62
7
100
AcDbPolyline
 90
13
 70
0
 10
218.331520
 20
82.400000
 30
0.0
 10
218.268720
 20
82.819664
 30
0.0
 10
218.124872
 20
82.892384
 30
0.0
 10
217.901448
 20
82.618888
 30
0.0
 10
217.600000
 20
82.000000
 30
0.0
 10
217.068408
 20
80.554032
 30
0.0
 10
216.891208
 20
79.626880
 30
0.0
 10
217.068408
 20
79.386288
 30
0.0
 10
217.600000
 20
80.000000
 30
0.0
 10
217.897640
 20
80.560624
 30
0.0
 10
218.134776
 20
81.200000
 30
0.0
 10
218.287408
 20
81.839376
 30
0.0
 10
218.331520
 20
82.400000
 30
0.0
  0
LWPOLYLINE
  5
149
100
AcDbEntity
  8
0
 62
7
100
AcDbPolyline
 90
17
 70
0
 10
204.911376
 20
81.647480
 30
0.0
 10
205.383536
 20
82.059352
 30
0.0
 10
205.855688
 20
82.471224
 30
0.0
 10
206.327840
 20
82.883088
 30
0.0
 10
206.800000
 20
83.294960
 30
0.0
 10
206.200000
 20
82.943624
 30
0.0
 10
205.600000
 20
82.592288
 30
0.0
 10
205.000000
 20
82.240944
 30
0.0
 10
204.400000
 20
81.889608
 30
0.0
 10
202.581880
 20
80.814040
 30
0.0
 10
201.735576
 20
80.251184
 30
0.0
 10
201.665976
 20
80.035144
 30
0.0
 10
202.178024
 20
80.000024
 30
0.0
 10
202.655032
 20
80.130024
 30
0.0
 10
203.329376
 20
80.483976
 30
0.0
 10
204.111384
 20
81.007816
 30
0.0
 10
204.911376
 20
81.647480
 30
0.0
  0
LWPOLYLINE
  5
14a
100
AcDbEntity
  8
0
 62
7
100
AcDbPolyline
 90
17
 70
0
 10
153.600000
 20
81.076008
 30
0.0
 10
153.457968
 20
81.303432
 30
0.0
 10
153.071248
 20
81.718616
 30
0.0
 10
152.498904
 20
82.262496
 30
0.0
 10
151.800000
 20
82.876008
 30
0.0
 10
151.350000
 20
83.257008
 30
0.0
 10
150.900000
 20
83.638008
 30
0.0
 10
150.450000
 20
84.019000
 30
0.0
 10
150.000000
 20
84.400000
 30
0.0
 10
150.381000
 20
83.950000
 30
0.0
 10
150.761992
 20
83.500000
 30
0.0
 10
151.142992
 20
83.050000
 30
0.0
 10
151.523992
 20
82.600000
 30
0.0
 10
152.452568
 20
81.558224
 30
0.0
 10
153.099064
 20
80.963600
 30
0.0
 10
153.477024
 20
80.806176
 30
0.0
 10
153.600000
 20
81.076008
 30
0.0
  0
LWPOLYLINE
  5
14b
100
AcDbEntity
  8
0
 62
7
100
AcDbPolyline
 90
13
 70
0
 10
138.964584
 20
88.200000
 30
0.0
 10
138.829968
 20
88.614840
 30
0.0
 10
138.719728
 20
88.413752
 30
0.0
 10
138.645248
 20
87.655784
 30
0.0
 10
138.617888
 20
86.400000
 30
0.0
 10
138.645248
 20
85.144216
 30
0.0
 10
138.719728
 20
84.386248
 30
0.0
 10
138.829968
 20
84.185160
 30
0.0
 10
138.964584
 20
84.600000
 30
0.0
 10
139.071840
 20
85.440936
 30
0.0
 10
139.107600
 20
86.400000
 30
0.0
 10
139.071840
 20
87.359064
 30
0.0
 10
138.964584
 20
88.200000
 30
0.0
  0
LWPOLYLINE
  5
14c
100
AcDbEntity
  8
0
 62
7
100
AcDbPolyline
 90
17
 70
0
 10
218.883336
 20
86.183336
 30
0.0
 10
218.700648
 20
86.249976
 30
0.0
 10
218.560536
 20
86.074232
 30
0.0
 10
218.476776
 20
85.690520
 30
0.0
 10
218.463176
 20
85.133296
 30
0.0
 10
218.519016
 20
84.574856
 30
0.0
 10
218.623504
 20
84.302824
 30
0.0
 10
218.768680
 20
84.325224
 30
0.0
 10
218.946536
 20
84.649992
 30
0.0
 10
219.071544
 20
85.095824
 30
0.0
 10
219.101304
 20
85.533536
 30
0.0
 10
219.037864
 20
85.912808
 30
0.0
 10
218.883368
 20
86.183328
 30
0.0
 10
218.883360
 20
86.183328
 30
0.0
 10
218.883352
 20
86.183328
 30
0.0
 10
218.883344
 20
86.183328
 30
0.0
 10
218.883336
 20
86.183336
 30
0.0
  0
LWPOLYLINE
  5
14d
100
AcDbEntity
  8
0
 62
7
100
AcDbPolyline
 90
17
 70
0
 10
149.283336
 20
89.383336
 30
0.0
 10
149.100648
 20
89.450056
 30
0.0
 10
148.960528
 20
89.274312
 30
0.0
 10
148.876776
 20
88.890600
 30
0.0
 10
148.863176
 20
88.333376
 30
0.0
 10
148.919016
 20
87.774936
 30
0.0
 10
149.023504
 20
87.502904
 30
0.0
 10
149.168680
 20
87.525304
 30
0.0
 10
149.346536
 20
87.850072
 30
0.0
 10
149.471544
 20
88.295904
 30
0.0
 10
149.501304
 20
88.733616
 30
0.0
 10
149.437864
 20
89.112888
 30
0.0
 10
149.283368
 20
89.383408
 30
0.0
 10
149.283360
 20
89.383408
 30
0.0
 10
149.283352
 20
89.383408
 30
0.0
 10
149.283344
 20
89.383408
 30
0.0
 10
149.283336
 20
89.383336
 30
0.0
  0
LWPOLYLINE
  5
14e
100
AcDbEntity
  8
0
 62
7
100
AcDbPolyline
 90
17
 70
0
 10
148.483336
 20
92.583336
 30
0.0
 10
148.300648
 20
92.650056
 30
0.0
 10
148.160528
 20
92.474312
 30
0.0
 10
148.076776
 20
92.090600
 30
0.0
 10
148.063176
 20
91.533376
 30
0.0
 10
148.119016
 20
90.974936
 30
0.0
 10
148.223504
 20
90.702904
 30
0.0
 10
148.368680
 20
90.725304
 30
0.0
 10
148.546536
 20
91.050072
 30
0.0
 10
148.671544
 20
91.495904
 30
0.0
 10
148.701304
 20
91.933608
 30
0.0
 10
148.637864
 20
92.312880
 30
0.0
 10
148.483368
 20
92.583408
 30
0.0
 10
148.483360
 20
92.583408
 30
0.0
 10
148.483352
 20
92.583408
 30
0.0
 10
148.483344
 20
92.583408
 30
0.0
 10
148.483336
 20
92.583336
 30
0.0
  0
LWPOLYLINE
  5
14f
100
AcDbEntity
  8
0
 62
7
100
AcDbPolyline
 90
41
 70
0
 10
213.962168
 20
136.000000
 30
0.0
 10
216.456304
 20
135.955704
 30
0.0
 10
217.781776
 20
135.665207
 30
0.0
 10
218.362232
 20
134.892108
 30
0.0
 10
218.621280
 20
133.400002
 30
0.0
 10
218.807992
 20
131.967200
 30
0.0
 10
218.918488
 20
131.532423
 30
0.0
 10
218.993048
 20
132.131437
 30
0.0
 10
219.072008
 20
133.800002
 30
0.0
 10
219.104008
 20
134.550002
 30
0.0
 10
219.136008
 20
135.300002
 30
0.0
 10
219.168008
 20
136.050002
 30
0.0
 10
219.200000
 20
136.800000
 30
0.0
 10
217.900000
 20
136.800000
 30
0.0
 10
216.600000
 20
136.800000
 30
0.0
 10
215.300000
 20
136.800000
 30
0.0
 10
214.000000
 20
136.800000
 30
0.0
 10
212.700000
 20
136.800000
 30
0.0
 10
211.400000
 20
136.800000
 30
0.0
 10
210.100000
 20
136.800000
 30
0.0
 10
208.800000
 20
136.800000
 30
0.0
 10
208.846640
 20
131.250000
 30
0.0
 10
208.893280
 20
125.700000
 30
0.0
 10
208.939920
 20
120.150000
 30
0.0
 10
208.986560
 20
114.600000
 30
0.0
 10
209.033200
 20
109.050000
 30
0.0
 10
209.079840
 20
103.500000
 30
0.0
 10
209.126480
 20
97.950000
 30
0.0
 10
209.173120
 20
92.400000
 30
0.0
 10
209.229680
 20
97.850000
 30
0.0
 10
209.286240
 20
103.300000
 30
0.0
 10
209.342800
 20
108.750000
 30
0.0
 10
209.399360
 20
114.200000
 30
0.0
 10
209.455920
 20
119.650000
 30
0.0
 10
209.512480
 20
125.100000
 30
0.0
 10
209.569040
 20
130.550000
 30
0.0
 10
209.625600
 20
136.000000
 30
0.0
 10
210.709712
 20
136.000000
 30
0.0
 10
211.793832
 20
136.000000
 30
0.0
 10
212.877944
 20
136.000000
 30
0.0
 10
213.962168
 20
136.000000
 30
0.0
  0
LWPOLYLINE
  5
150
100
AcDbEntity
  8
0
 62
7
100
AcDbPolyline
 90
13
 70
0
 10
218.929824
 20
126.600000
 30
0.0
 10
218.773152
 20
126.830469
 30
0.0
 10
218.644848
 20
126.718750
 30
0.0
 10
218.558152
 20
126.297656
 30
0.0
 10
218.526312
 20
125.600000
 30
0.0
 10
218.558152
 20
124.902344
 30
0.0
 10
218.644848
 20
124.481250
 30
0.0
 10
218.773152
 20
124.369531
 30
0.0
 10
218.929824
 20
124.600000
 30
0.0
 10
219.054656
 20
125.067187
 30
0.0
 10
219.096256
 20
125.600000
 30
0.0
 10
219.054656
 20
126.132813
 30
0.0
 10
218.929824
 20
126.600000
 30
0.0
  0
LWPOLYLINE
  5
151
100
AcDbEntity
  8
0
 62
7
100
AcDbPolyline
 90
25
 70
0
 10
148.800000
 20
135.600000
 30
0.0
 10
148.550000
 20
136.189286
 30
0.0
 10
147.666664
 20
136.557142
 30
0.0
 10
145.950000
 20
136.746429
 30
0.0
 10
143.200000
 20
136.800000
 30
0.0
 10
141.025496
 20
136.752656
 30
0.0
 10
139.244504
 20
136.623750
 30
0.0
 10
138.040848
 20
136.432969
 30
0.0
 10
137.598320
 20
136.200000
 30
0.0
 10
138.008168
 20
135.988198
 30
0.0
 10
139.125176
 20
135.855052
 30
0.0
 10
140.778760
 20
135.811444
 30
0.0
 10
142.798320
 20
135.868260
 30
0.0
 10
145.033584
 20
135.927020
 30
0.0
 10
146.663608
 20
135.844533
 30
0.0
 10
147.661408
 20
135.623909
 30
0.0
 10
148.000000
 20
135.268260
 30
0.0
 10
148.031520
 20
134.931130
 30
0.0
 10
148.117464
 20
134.655050
 30
0.0
 10
148.244648
 20
134.468510
 30
0.0
 10
148.400000
 20
134.400000
 30
0.0
 10
148.555312
 20
134.494687
 30
0.0
 10
148.682496
 20
134.752500
 30
0.0
 10
148.768440
 20
135.134062
 30
0.0
 10
148.800000
 20
135.600000
 30
0.0
  0
LWPOLYLINE
  5
152
100
AcDbEntity
  8
0
 62
7
100
AcDbPolyline
 90
57
 70
0
 10
264.400000
 20
66.320640
 30
0.0
 10
263.678008
 20
66.706672
 30
0.0
 10
262.894952
 20
67.247304
 30
0.0
 10
262.145232
 20
67.870832
 30
0.0
 10
261.523240
 20
68.505576
 30
0.0
 10
255.256976
 20
79.089944
 30
0.0
 10
243.437792
 20
100.189256
 30
0.0
 10
231.931120
 20
121.211738
 30
0.0
 10
226.602376
 20
131.565622
 30
0.0
 10
226.607976
 20
132.579053
 30
0.0
 10
227.181080
 20
133.510960
 30
0.0
 10
228.514096
 20
134.561294
 30
0.0
 10
230.799304
 20
135.930006
 30
0.0
 10
232.697480
 20
136.905680
 30
0.0
 10
234.508800
 20
137.667649
 30
0.0
 10
236.028152
 20
138.139907
 30
0.0
 10
237.050408
 20
138.246445
 30
0.0
 10
238.627616
 20
136.791511
 30
0.0
 10
241.738152
 20
132.090521
 30
0.0
 10
246.956856
 20
123.205881
 30
0.0
 10
254.858552
 20
109.200000
 30
0.0
 10
263.200272
 20
94.395472
 30
0.0
 10
268.373488
 20
85.606072
 30
0.0
 10
271.294208
 20
81.356120
 30
0.0
 10
272.878448
 20
80.169904
 30
0.0
 10
274.340272
 20
80.813464
 30
0.0
 10
276.885312
 20
84.341192
 30
0.0
 10
281.707336
 20
92.675184
 30
0.0
 10
290.000128
 20
107.737512
 30
0.0
 10
296.028256
 20
118.676937
 30
0.0
 10
301.205128
 20
127.913530
 30
0.0
 10
304.979504
 20
134.474423
 30
0.0
 10
306.800128
 20
137.386753
 30
0.0
 10
307.200128
 20
137.849637
 30
0.0
 10
307.600128
 20
138.312521
 30
0.0
 10
308.000128
 20
138.775405
 30
0.0
 10
308.400128
 20
139.238289
 30
0.0
 10
309.400128
 20
138.716017
 30
0.0
 10
310.400128
 20
138.193745
 30
0.0
 10
311.400128
 20
137.671472
 30
0.0
 10
312.400128
 20
137.149200
 30
0.0
 10
315.495568
 20
135.321670
 30
0.0
 10
317.567920
 20
133.609330
 30
0.0
 10
318.609944
 20
132.019853
 30
0.0
 10
318.614744
 20
130.560906
 30
0.0
 10
312.878408
 20
119.573165
 30
0.0
 10
301.317560
 20
98.421040
 30
0.0
 10
289.721648
 20
77.598624
 30
0.0
 10
283.880104
 20
67.600000
 30
0.0
 10
282.799544
 20
66.766200
 30
0.0
 10
281.165264
 20
66.253816
 30
0.0
 10
278.463400
 20
65.968288
 30
0.0
 10
274.180080
 20
65.815064
 30
0.0
 10
270.877840
 20
65.797704
 30
0.0
 10
267.933232
 20
65.887248
 30
0.0
 10
265.667144
 20
66.067080
 30
0.0
 10
264.400000
 20
66.320640
 30
0.0
  0
LWPOLYLINE
  5
153
100
AcDbEntity
  8
0
 62
7
100
AcDbPolyline
 90
21
 70
0
 10
273.118352
 20
67.948288
 30
0.0
 10
269.578560
 20
68.186800
 30
0.0
 10
266.506104
 20
68.502312
 30
0.0
 10
264.230344
 20
68.853728
 30
0.0
 10
263.080648
 20
69.200000
 30
0.0
 10
262.752208
 20
69.400152
 30
0.0
 10
262.712528
 20
69.353752
 30
0.0
 10
262.949480
 20
69.080472
 30
0.0
 10
263.450904
 20
68.600000
 30
0.0
 10
264.556192
 20
67.892328
 30
0.0
 10
266.276120
 20
67.487904
 30
0.0
 10
269.092872
 20
67.326600
 30
0.0
 10
273.488608
 20
67.348280
 30
0.0
 10
275.616448
 20
67.385320
 30
0.0
 10
277.744296
 20
67.422360
 30
0.0
 10
279.872136
 20
67.459400
 30
0.0
 10
281.999984
 20
67.496440
 30
0.0
 10
279.779576
 20
67.609368
 30
0.0
 10
277.559160
 20
67.722296
 30
0.0
 10
275.338744
 20
67.835224
 30
0.0
 10
273.118352
 20
67.948288
 30
0.0
  0
LWPOLYLINE
  5
154
100
AcDbEntity
  8
0
 62
7
100
AcDbPolyline
 90
13
 70
0
 10
260.099272
 20
74.613336
 30
0.0
 10
259.634920
 20
75.034536
 30
0.0
 10
259.416264
 20
75.111096
 30
0.0
 10
259.427144
 20
74.826792
 30
0.0
 10
259.651432
 20
74.165536
 30
0.0
 10
259.898856
 20
73.643880
 30
0.0
 10
260.168752
 20
73.283968
 30
0.0
 10
260.428504
 20
73.118176
 30
0.0
 10
260.645496
 20
73.178896
 30
0.0
 10
260.740944
 20
73.430640
 30
0.0
 10
260.669744
 20
73.785016
 30
0.0
 10
260.449880
 20
74.194960
 30
0.0
 10
260.099272
 20
74.613336
 30
0.0
  0
LWPOLYLINE
  5
155
100
AcDbEntity
  8
0
 62
7
100
AcDbPolyline
 90
17
 70
0
 10
272.800000
 20
78.167552
 30
0.0
 10
272.223592
 20
78.435104
 30
0.0
 10
271.541248
 20
78.837424
 30
0.0
 10
270.838280
 20
79.320016
 30
0.0
 10
270.200000
 20
79.828384
 30
0.0
 10
269.202632
 20
80.557056
 30
0.0
 10
268.833896
 20
80.553056
 30
0.0
 10
269.112504
 20
79.944048
 30
0.0
 10
270.057144
 20
78.856872
 30
0.0
 10
270.651232
 20
78.373728
 30
0.0
 10
271.339464
 20
77.987568
 30
0.0
 10
272.036536
 20
77.737560
 30
0.0
 10
272.657144
 20
77.662920
 30
0.0
 10
273.280032
 20
77.712840
 30
0.0
 10
273.507448
 20
77.799344
 30
0.0
 10
273.345432
 20
77.943744
 30
0.0
 10
272.800000
 20
78.167552
 30
0.0
  0
LWPOLYLINE
  5
156
100
AcDbEntity
  8
0
 62
7
100
AcDbPolyline
 90
13
 70
0
 10
276.394336
 20
79.190840
 30
0.0
 10
276.495064
 20
79.469696
 30
0.0
 10
276.390008
 20
79.620552
 30
0.0
 10
276.098920
 20
79.635112
 30
0.0
 10
275.641552
 20
79.505216
 30
0.0
 10
274.818664
 20
79.108152
 30
0.0
 10
274.445912
 20
78.753152
 30
0.0
 10
274.548784
 20
78.497872
 30
0.0
 10
275.152784
 20
78.399968
 30
0.0
 10
275.483640
 20
78.462368
 30
0.0
 10
275.828016
 20
78.632280
 30
0.0
 10
276.145160
 20
78.883744
 30
0.0
 10
276.394336
 20
79.190840
 30
0.0
  0
LWPOLYLINE
  5
157
100
AcDbEntity
  8
0
 62
7
100
AcDbPolyline
 90
13
 70
0
 10
267.028488
 20
84.600000
 30
0.0
 10
265.787624
 20
86.745632
 30
0.0
 10
265.120920
 20
87.794424
 30
0.0
 10
264.851624
 20
87.979344
 30
0.0
 10
264.802984
 20
87.533336
 30
0.0
 10
265.285432
 20
86.227416
 30
0.0
 10
266.383040
 20
84.229928
 30
0.0
 10
267.580192
 20
82.400808
 30
0.0
 10
268.361256
 20
81.600000
 30
0.0
 10
268.375096
 20
81.836720
 30
0.0
 10
268.128440
 20
82.481248
 30
0.0
 10
267.664984
 20
83.435160
 30
0.0
 10
267.028488
 20
84.600000
 30
0.0
  0
LWPOLYLINE
  5
158
100
AcDbEntity
  8
0
 62
7
100
AcDbPolyline
 90
17
 70
0
 10
279.200000
 20
84.000000
 30
0.0
 10
279.500920
 20
84.621248
 30
0.0
 10
279.687256
 20
85.130000
 30
0.0
 10
279.744056
 20
85.473752
 30
0.0
 10
279.656312
 20
85.600000
 30
0.0
 10
279.433432
 20
85.473752
 30
0.0
 10
279.122272
 20
85.130000
 30
0.0
 10
278.764064
 20
84.621248
 30
0.0
 10
278.400000
 20
84.000000
 30
0.0
 10
278.099080
 20
83.378752
 30
0.0
 10
277.912744
 20
82.870000
 30
0.0
 10
277.855944
 20
82.526248
 30
0.0
 10
277.943688
 20
82.400000
 30
0.0
 10
278.166568
 20
82.526248
 30
0.0
 10
278.477728
 20
82.870000
 30
0.0
 10
278.835936
 20
83.378752
 30
0.0
 10
279.200000
 20
84.000000
 30
0.0
  0
LWPOLYLINE
  5
159
100
AcDbEntity
  8
0
 62
7
100
AcDbPolyline
 90
17
 70
0
 10
292.000000
 20
84.000000
 30
0.0
 10
292.300920
 20
84.621248
 30
0.0
 10
292.487256
 20
85.130000
 30
0.0
 10
292.544056
 20
85.473752
 30
0.0
 10
292.456312
 20
85.600000
 30
0.0
 10
292.233432
 20
85.473752
 30
0.0
 10
291.922272
 20
85.130000
 30
0.0
 10
291.564064
 20
84.621248
 30
0.0
 10
291.200000
 20
84.000000
 30
0.0
 10
290.899080
 20
83.378752
 30
0.0
 10
290.712744
 20
82.870000
 30
0.0
 10
290.655944
 20
82.526248
 30
0.0
 10
290.743688
 20
82.400000
 30
0.0
 10
290.966568
 20
82.526248
 30
0.0
 10
291.277728
 20
82.870000
 30
0.0
 10
291.635936
 20
83.378752
 30
0.0
 10
292.000000
 20
84.000000
 30
0.0
  0
LWPOLYLINE
  5
15a
100
AcDbEntity
  8
0
 62
7
100
AcDbPolyline
 90
13
 70
0
 10
251.662976
 20
89.419048
 30
0.0
 10
250.879728
 20
90.152856
 30
0.0
 10
250.575584
 20
90.354392
 30
0.0
 10
250.719472
 20
89.992600
 30
0.0
 10
251.280312
 20
89.036384
 30
0.0
 10
251.721744
 20
88.381800
 30
0.0
 10
252.140728
 20
87.903240
 30
0.0
 10
252.489944
 20
87.646008
 30
0.0
 10
252.722096
 20
87.655448
 30
0.0
 10
252.756896
 20
87.912992
 30
0.0
 10
252.568816
 20
88.331360
 30
0.0
 10
252.192584
 20
88.852672
 30
0.0
 10
251.662976
 20
89.419048
 30
0.0
  0
LWPOLYLINE
  5
15b
100
AcDbEntity
  8
0
 62
7
100
AcDbPolyline
 90
17
 70
0
 10
296.000000
 20
91.200000
 30
0.0
 10
296.300920
 20
91.821248
 30
0.0
 10
296.487256
 20
92.330000
 30
0.0
 10
296.544056
 20
92.673752
 30
0.0
 10
296.456312
 20
92.800000
 30
0.0
 10
296.233432
 20
92.673752
 30
0.0
 10
295.922272
 20
92.330000
 30
0.0
 10
295.564064
 20
91.821248
 30
0.0
 10
295.200000
 20
91.200000
 30
0.0
 10
294.899080
 20
90.578752
 30
0.0
 10
294.712744
 20
90.070000
 30
0.0
 10
294.655944
 20
89.726248
 30
0.0
 10
294.743688
 20
89.600000
 30
0.0
 10
294.966568
 20
89.726248
 30
0.0
 10
295.277728
 20
90.070000
 30
0.0
 10
295.635936
 20
90.578752
 30
0.0
 10
296.000000
 20
91.200000
 30
0.0
  0
LWPOLYLINE
  5
15c
100
AcDbEntity
  8
0
 62
7
100
AcDbPolyline
 90
13
 70
0
 10
299.505248
 20
98.041552
 30
0.0
 10
299.635144
 20
98.498936
 30
0.0
 10
299.620584
 20
98.790024
 30
0.0
 10
299.469728
 20
98.895072
 30
0.0
 10
299.190872
 20
98.794336
 30
0.0
 10
298.883808
 20
98.545160
 30
0.0
 10
298.632344
 20
98.228016
 30
0.0
 10
298.462432
 20
97.883640
 30
0.0
 10
298.400032
 20
97.552784
 30
0.0
 10
298.497936
 20
96.948784
 30
0.0
 10
298.753224
 20
96.845912
 30
0.0
 10
299.108224
 20
97.218664
 30
0.0
 10
299.505248
 20
98.041552
 30
0.0
  0
LWPOLYLINE
  5
15d
100
AcDbEntity
  8
0
 62
7
100
AcDbPolyline
 90
13
 70
0
 10
258.676064
 20
99.634504
 30
0.0
 10
258.462040
 20
100.083752
 30
0.0
 10
258.229496
 20
100.394368
 30
0.0
 10
258.006480
 20
100.538360
 30
0.0
 10
257.821064
 20
100.487720
 30
0.0
 10
257.714632
 20
100.272352
 30
0.0
 10
257.706632
 20
99.967808
 30
0.0
 10
257.792384
 20
99.614592
 30
0.0
 10
257.967048
 20
99.253216
 30
0.0
 10
258.486688
 20
98.576088
 30
0.0
 10
258.820200
 20
98.436584
 30
0.0
 10
258.904376
 20
98.800720
 30
0.0
 10
258.676064
 20
99.634504
 30
0.0
  0
LWPOLYLINE
  5
15e
100
AcDbEntity
  8
0
 62
7
100
AcDbPolyline
 90
17
 70
0
 10
253.600000
 20
108.800000
 30
0.0
 10
253.235952
 20
109.421248
 30
0.0
 10
252.877744
 20
109.930000
 30
0.0
 10
252.566584
 20
110.273752
 30
0.0
 10
252.343704
 20
110.400000
 30
0.0
 10
252.255960
 20
110.273752
 30
0.0
 10
252.312760
 20
109.930000
 30
0.0
 10
252.499096
 20
109.421248
 30
0.0
 10
252.800000
 20
108.800000
 30
0.0
 10
253.164048
 20
108.178752
 30
0.0
 10
253.522256
 20
107.670000
 30
0.0
 10
253.833416
 20
107.326248
 30
0.0
 10
254.056296
 20
107.200000
 30
0.0
 10
254.144040
 20
107.326248
 30
0.0
 10
254.087240
 20
107.670000
 30
0.0
 10
253.900904
 20
108.178752
 30
0.0
 10
253.600000
 20
108.800000
 30
0.0
  0
LWPOLYLINE
  5
15f
100
AcDbEntity
  8
0
 62
7
100
AcDbPolyline
 90
13
 70
0
 10
294.245496
 20
111.621169
 30
0.0
 10
294.028504
 20
111.681865
 30
0.0
 10
293.768760
 20
111.516070
 30
0.0
 10
293.498856
 20
111.156161
 30
0.0
 10
293.251432
 20
110.634505
 30
0.0
 10
293.027144
 20
109.973249
 30
0.0
 10
293.016264
 20
109.688945
 30
0.0
 10
293.234920
 20
109.765425
 30
0.0
 10
293.699272
 20
110.186625
 30
0.0
 10
294.049912
 20
110.605065
 30
0.0
 10
294.269776
 20
111.015009
 30
0.0
 10
294.340976
 20
111.369389
 30
0.0
 10
294.245496
 20
111.621169
 30
0.0
  0
LWPOLYLINE
  5
160
100
AcDbEntity
  8
0
 62
7
100
AcDbPolyline
 90
17
 70
0
 10
236.800000
 20
116.000000
 30
0.0
 10
236.435952
 20
116.621250
 30
0.0
 10
236.077744
 20
117.130000
 30
0.0
 10
235.766584
 20
117.473750
 30
0.0
 10
235.543704
 20
117.600000
 30
0.0
 10
235.455960
 20
117.473750
 30
0.0
 10
235.512760
 20
117.130000
 30
0.0
 10
235.699096
 20
116.621250
 30
0.0
 10
236.000000
 20
116.000000
 30
0.0
 10
236.364048
 20
115.378750
 30
0.0
 10
236.722256
 20
114.870000
 30
0.0
 10
237.033416
 20
114.526250
 30
0.0
 10
237.256296
 20
114.400000
 30
0.0
 10
237.344040
 20
114.526250
 30
0.0
 10
237.287240
 20
114.870000
 30
0.0
 10
237.100904
 20
115.378750
 30
0.0
 10
236.800000
 20
116.000000
 30
0.0
  0
LWPOLYLINE
  5
161
100
AcDbEntity
  8
0
 62
7
100
AcDbPolyline
 90
17
 70
0
 10
297.600000
 20
117.600000
 30
0.0
 10
297.900920
 20
118.221250
 30
0.0
 10
298.087256
 20
118.730000
 30
0.0
 10
298.144056
 20
119.073750
 30
0.0
 10
298.056296
 20
119.200000
 30
0.0
 10
297.833416
 20
119.073750
 30
0.0
 10
297.522256
 20
118.730000
 30
0.0
 10
297.164048
 20
118.221250
 30
0.0
 10
296.800000
 20
117.600000
 30
0.0
 10
296.499080
 20
116.978750
 30
0.0
 10
296.312744
 20
116.470000
 30
0.0
 10
296.255944
 20
116.126250
 30
0.0
 10
296.343688
 20
116.000000
 30
0.0
 10
296.566568
 20
116.126250
 30
0.0
 10
296.877728
 20
116.470000
 30
0.0
 10
297.235936
 20
116.978750
 30
0.0
 10
297.600000
 20
117.600000
 30
0.0
  0
LWPOLYLINE
  5
162
100
AcDbEntity
  8
0
 62
7
100
AcDbPolyline
 90
17
 70
0
 10
310.426376
 20
118.000000
 30
0.0
 10
311.031104
 20
118.845642
 30
0.0
 10
311.205920
 20
119.186878
 30
0.0
 10
310.934368
 20
119.060187
 30
0.0
 10
310.200000
 20
118.502044
 30
0.0
 10
309.656408
 20
118.009812
 30
0.0
 10
309.211248
 20
117.481222
 30
0.0
 10
308.910472
 20
116.979708
 30
0.0
 10
308.800000
 20
116.568711
 30
0.0
 10
308.817840
 20
116.270652
 30
0.0
 10
308.866480
 20
116.076642
 30
0.0
 10
308.938480
 20
116.003154
 30
0.0
 10
309.026376
 20
116.066666
 30
0.0
 10
309.206880
 20
116.322343
 30
0.0
 10
309.531008
 20
116.772083
 30
0.0
 10
309.952816
 20
117.352447
 30
0.0
 10
310.426376
 20
118.000000
 30
0.0
  0
LWPOLYLINE
  5
163
100
AcDbEntity
  8
0
 62
7
100
AcDbPolyline
 90
17
 70
0
 10
244.800000
 20
124.800000
 30
0.0
 10
244.435952
 20
125.421250
 30
0.0
 10
244.077744
 20
125.930000
 30
0.0
 10
243.766584
 20
126.273750
 30
0.0
 10
243.543704
 20
126.400000
 30
0.0
 10
243.455960
 20
126.273750
 30
0.0
 10
243.512760
 20
125.930000
 30
0.0
 10
243.699096
 20
125.421250
 30
0.0
 10
244.000000
 20
124.800000
 30
0.0
 10
244.364048
 20
124.178750
 30
0.0
 10
244.722256
 20
123.670000
 30
0.0
 10
245.033416
 20
123.326250
 30
0.0
 10
245.256296
 20
123.200000
 30
0.0
 10
245.344040
 20
123.326250
 30
0.0
 10
245.287240
 20
123.670000
 30
0.0
 10
245.100904
 20
124.178750
 30
0.0
 10
244.800000
 20
124.800000
 30
0.0
  0
LWPOLYLINE
  5
164
100
AcDbEntity
  8
0
 62
7
100
AcDbPolyline
 90
13
 70
0
 10
228.276064
 20
131.634502
 30
0.0
 10
228.062040
 20
132.083752
 30
0.0
 10
227.829496
 20
132.394370
 30
0.0
 10
227.606480
 20
132.538361
 30
0.0
 10
227.421064
 20
132.487729
 30
0.0
 10
227.314632
 20
132.272361
 30
0.0
 10
227.306632
 20
131.967817
 30
0.0
 10
227.392384
 20
131.614602
 30
0.0
 10
227.567048
 20
131.253226
 30
0.0
 10
228.086680
 20
130.576094
 30
0.0
 10
228.420200
 20
130.436594
 30
0.0
 10
228.504376
 20
130.800730
 30
0.0
 10
228.276064
 20
131.634502
 30
0.0
  0
LWPOLYLINE
  5
165
100
AcDbEntity
  8
0
 62
7
100
AcDbPolyline
 90
13
 70
0
 10
316.934760
 20
132.985240
 30
0.0
 10
316.580720
 20
133.258850
 30
0.0
 10
316.406752
 20
133.182178
 30
0.0
 10
316.409152
 20
132.744697
 30
0.0
 10
316.584784
 20
131.935871
 30
0.0
 10
316.808112
 20
131.263177
 30
0.0
 10
317.038592
 20
130.882906
 30
0.0
 10
317.253480
 20
130.817810
 30
0.0
 10
317.430024
 20
131.090633
 30
0.0
 10
317.499144
 20
131.564777
 30
0.0
 10
317.428744
 20
132.080038
 30
0.0
 10
317.235136
 20
132.574247
 30
0.0
 10
316.934760
 20
132.985240
 30
0.0
  0
LWPOLYLINE
  5
166
100
AcDbEntity
  8
0
 62
7
100
AcDbPolyline
 90
13
 70
0
 10
238.000000
 20
136.800000
 30
0.0
 10
237.732840
 20
137.109658
 30
0.0
 10
237.370928
 20
137.361402
 30
0.0
 10
236.961744
 20
137.529381
 30
0.0
 10
236.552784
 20
137.587749
 30
0.0
 10
236.248496
 20
137.527085
 30
0.0
 10
236.191296
 20
137.365852
 30
0.0
 10
236.376656
 20
137.118630
 30
0.0
 10
236.800000
 20
136.800000
 30
0.0
 10
237.722200
 20
136.241314
 30
0.0
 10
238.206528
 20
136.055086
 30
0.0
 10
238.287592
 20
136.241314
 30
0.0
 10
238.000000
 20
136.800000
 30
0.0
  0
LWPOLYLINE
  5
167
100
AcDbEntity
  8
0
 62
7
100
AcDbPolyline
 90
13
 70
0
 10
309.221168
 20
137.445498
 30
0.0
 10
308.969424
 20
137.540946
 30
0.0
 10
308.615048
 20
137.469778
 30
0.0
 10
308.205104
 20
137.249912
 30
0.0
 10
307.786664
 20
136.899273
 30
0.0
 10
307.365464
 20
136.434929
 30
0.0
 10
307.288904
 20
136.216267
 30
0.0
 10
307.573200
 20
136.227147
 30
0.0
 10
308.234464
 20
136.451435
 30
0.0
 10
308.756120
 20
136.698862
 30
0.0
 10
309.116032
 20
136.968760
 30
0.0
 10
309.281824
 20
137.228511
 30
0.0
 10
309.221168
 20
137.445498
 30
0.0
  0
LWPOLYLINE
  5
168
100
AcDbEntity
  8
0
 62
7
100
AcDbPolyline
 90
77
 70
0
 10
427.452296
 20
66.405584
 30
0.0
 10
426.706448
 20
66.804656
 30
0.0
 10
425.967624
 20
67.370704
 30
0.0
 10
425.321136
 20
68.028368
 30
0.0
 10
424.852296
 20
68.702280
 30
0.0
 10
424.232792
 20
79.578368
 30
0.0
 10
423.993024
 20
101.765408
 30
0.0
 10
424.152984
 20
124.101054
 30
0.0
 10
424.732696
 20
135.422987
 30
0.0
 10
426.357384
 20
137.619819
 30
0.0
 10
430.944832
 20
138.762495
 30
0.0
 10
441.279328
 20
139.133445
 30
0.0
 10
460.145192
 20
139.015100
 30
0.0
 10
476.896640
 20
138.788148
 30
0.0
 10
486.509144
 20
138.468610
 30
0.0
 10
491.803376
 20
137.885726
 30
0.0
 10
495.600000
 20
136.868739
 30
0.0
 10
501.897920
 20
133.963337
 30
0.0
 10
506.342632
 20
129.634910
 30
0.0
 10
509.325712
 20
123.322506
 30
0.0
 10
511.238736
 20
114.465170
 30
0.0
 10
511.881024
 20
106.418888
 30
0.0
 10
511.789944
 20
97.391904
 30
0.0
 10
511.036656
 20
88.863888
 30
0.0
 10
509.692328
 20
82.314544
 30
0.0
 10
507.506896
 20
77.208304
 30
0.0
 10
504.503648
 20
73.185296
 30
0.0
 10
500.571648
 20
70.132352
 30
0.0
 10
495.600000
 20
67.936312
 30
0.0
 10
491.992576
 20
66.938048
 30
0.0
 10
487.623816
 20
66.345496
 30
0.0
 10
480.684728
 20
66.010232
 30
0.0
 10
469.366312
 20
65.783824
 30
0.0
 10
459.596128
 20
65.681256
 30
0.0
 10
453.026744
 20
65.744936
 30
0.0
 10
449.177144
 20
65.989096
 30
0.0
 10
447.566312
 20
66.427952
 30
0.0
 10
446.715696
 20
68.711712
 30
0.0
 10
446.380080
 20
72.656680
 30
0.0
 10
446.586000
 20
76.640296
 30
0.0
 10
447.360000
 20
79.039992
 30
0.0
 10
448.879728
 20
79.484336
 30
0.0
 10
452.610240
 20
79.789504
 30
0.0
 10
458.865632
 20
79.970784
 30
0.0
 10
467.960000
 20
80.043504
 30
0.0
 10
482.214040
 20
80.241784
 30
0.0
 10
490.260080
 20
81.096592
 30
0.0
 10
494.228520
 20
83.117888
 30
0.0
 10
496.249744
 20
86.815680
 30
0.0
 10
497.014408
 20
89.349040
 30
0.0
 10
497.421024
 20
92.418456
 30
0.0
 10
497.534968
 20
96.982568
 30
0.0
 10
497.421608
 20
104.000000
 30
0.0
 10
497.063232
 20
112.806788
 30
0.0
 10
496.312712
 20
118.158948
 30
0.0
 10
494.872296
 20
121.196633
 30
0.0
 10
492.444248
 20
123.059997
 30
0.0
 10
490.266064
 20
123.767496
 30
0.0
 10
485.836136
 20
124.208868
 30
0.0
 10
477.549208
 20
124.473195
 30
0.0
 10
463.800000
 20
124.649557
 30
0.0
 10
457.250000
 20
124.711949
 30
0.0
 10
450.700000
 20
124.774341
 30
0.0
 10
444.150000
 20
124.836733
 30
0.0
 10
437.600000
 20
124.899125
 30
0.0
 10
437.600000
 20
117.726737
 30
0.0
 10
437.600000
 20
110.554348
 30
0.0
 10
437.600000
 20
103.381964
 30
0.0
 10
437.600000
 20
96.209572
 30
0.0
 10
437.550000
 20
82.713044
 30
0.0
 10
437.386632
 20
73.683620
 30
0.0
 10
437.089960
 20
68.504780
 30
0.0
 10
436.640000
 20
66.560000
 30
0.0
 10
435.102488
 20
65.924448
 30
0.0
 10
432.601176
 20
65.679168
 30
0.0
 10
429.822352
 20
65.835704
 30
0.0
 10
427.452296
 20
66.405584
 30
0.0
  0
LWPOLYLINE
  5
169
100
AcDbEntity
  8
0
 62
7
100
AcDbPolyline
 90
45
 70
0
 10
436.190024
 20
96.176608
 30
0.0
 10
436.242504
 20
103.420760
 30
0.0
 10
436.294984
 20
110.664912
 30
0.0
 10
436.347464
 20
117.909066
 30
0.0
 10
436.399944
 20
125.153219
 30
0.0
 10
436.899944
 20
125.406118
 30
0.0
 10
437.399944
 20
125.659018
 30
0.0
 10
437.899944
 20
125.911917
 30
0.0
 10
438.399944
 20
126.164816
 30
0.0
 10
439.209736
 20
126.615835
 30
0.0
 10
439.586960
 20
126.933261
 30
0.0
 10
439.534960
 20
127.122311
 30
0.0
 10
439.057088
 20
127.188207
 30
0.0
 10
438.436480
 20
127.093590
 30
0.0
 10
437.739408
 20
126.827250
 30
0.0
 10
437.051168
 20
126.430052
 30
0.0
 10
436.457088
 20
125.942858
 30
0.0
 10
435.798512
 20
124.330326
 30
0.0
 10
435.417712
 20
120.001365
 30
0.0
 10
435.242320
 20
111.254109
 30
0.0
 10
435.199920
 20
96.386689
 30
0.0
 10
435.199920
 20
89.311937
 30
0.0
 10
435.199920
 20
82.237177
 30
0.0
 10
435.199920
 20
75.162425
 30
0.0
 10
435.199920
 20
68.087665
 30
0.0
 10
434.249920
 20
68.012785
 30
0.0
 10
433.299920
 20
67.937905
 30
0.0
 10
432.349920
 20
67.863025
 30
0.0
 10
431.399920
 20
67.788145
 30
0.0
 10
430.449920
 20
67.713265
 30
0.0
 10
429.499920
 20
67.638385
 30
0.0
 10
428.549920
 20
67.563505
 30
0.0
 10
427.599920
 20
67.488625
 30
0.0
 10
428.647424
 20
67.452545
 30
0.0
 10
429.694928
 20
67.416465
 30
0.0
 10
430.742440
 20
67.380385
 30
0.0
 10
431.789944
 20
67.344305
 30
0.0
 10
432.837448
 20
67.308225
 30
0.0
 10
433.884952
 20
67.272145
 30
0.0
 10
434.932456
 20
67.236065
 30
0.0
 10
435.979960
 20
67.199985
 30
0.0
 10
436.032440
 20
74.444137
 30
0.0
 10
436.084920
 20
81.688289
 30
0.0
 10
436.137400
 20
88.932441
 30
0.0
 10
436.190024
 20
96.176608
 30
0.0
  0
LWPOLYLINE
  5
16a
100
AcDbEntity
  8
0
 62
7
100
AcDbPolyline
 90
49
 70
0
 10
467.000000
 20
67.799232
 30
0.0
 10
462.450000
 20
67.856912
 30
0.0
 10
457.900000
 20
67.914592
 30
0.0
 10
453.350000
 20
67.972272
 30
0.0
 10
448.800000
 20
68.029952
 30
0.0
 10
448.800000
 20
69.222512
 30
0.0
 10
448.800000
 20
70.415072
 30
0.0
 10
448.800000
 20
71.607624
 30
0.0
 10
448.800000
 20
72.800184
 30
0.0
 10
448.800000
 20
73.992744
 30
0.0
 10
448.800000
 20
75.185304
 30
0.0
 10
448.800000
 20
76.377864
 30
0.0
 10
448.800000
 20
77.570424
 30
0.0
 10
453.450000
 20
77.627944
 30
0.0
 10
458.100000
 20
77.685464
 30
0.0
 10
462.750000
 20
77.742984
 30
0.0
 10
467.400000
 20
77.800504
 30
0.0
 10
472.050000
 20
77.858024
 30
0.0
 10
476.700000
 20
77.915544
 30
0.0
 10
481.350000
 20
77.973064
 30
0.0
 10
486.000000
 20
78.030584
 30
0.0
 10
481.250000
 20
78.076744
 30
0.0
 10
476.500000
 20
78.122904
 30
0.0
 10
471.750000
 20
78.169064
 30
0.0
 10
467.000000
 20
78.215224
 30
0.0
 10
462.250000
 20
78.261384
 30
0.0
 10
457.500000
 20
78.307544
 30
0.0
 10
452.750000
 20
78.353704
 30
0.0
 10
448.000000
 20
78.400000
 30
0.0
 10
448.000000
 20
77.000000
 30
0.0
 10
448.000000
 20
75.600000
 30
0.0
 10
448.000000
 20
74.200000
 30
0.0
 10
448.000000
 20
72.800000
 30
0.0
 10
448.000000
 20
71.400000
 30
0.0
 10
448.000000
 20
70.000000
 30
0.0
 10
448.000000
 20
68.600000
 30
0.0
 10
448.000000
 20
67.200000
 30
0.0
 10
452.650000
 20
67.246080
 30
0.0
 10
457.300000
 20
67.292160
 30
0.0
 10
461.950000
 20
67.338240
 30
0.0
 10
466.600000
 20
67.384320
 30
0.0
 10
471.250000
 20
67.430400
 30
0.0
 10
475.900000
 20
67.476480
 30
0.0
 10
480.550000
 20
67.522560
 30
0.0
 10
485.200000
 20
67.568640
 30
0.0
 10
480.650000
 20
67.626320
 30
0.0
 10
476.100000
 20
67.684000
 30
0.0
 10
471.550000
 20
67.741680
 30
0.0
 10
467.000000
 20
67.799232
 30
0.0
  0
LWPOLYLINE
  5
16b
100
AcDbEntity
  8
0
 62
7
100
AcDbPolyline
 90
17
 70
0
 10
487.350000
 20
67.746512
 30
0.0
 10
486.904168
 20
67.871520
 30
0.0
 10
486.466456
 20
67.901280
 30
0.0
 10
486.087184
 20
67.837840
 30
0.0
 10
485.816664
 20
67.683344
 30
0.0
 10
485.750024
 20
67.500656
 30
0.0
 10
485.925768
 20
67.360544
 30
0.0
 10
486.309480
 20
67.276784
 30
0.0
 10
486.866704
 20
67.263184
 30
0.0
 10
487.425144
 20
67.319024
 30
0.0
 10
487.697176
 20
67.423512
 30
0.0
 10
487.674776
 20
67.568688
 30
0.0
 10
487.350008
 20
67.746544
 30
0.0
 10
487.350008
 20
67.746536
 30
0.0
 10
487.350008
 20
67.746528
 30
0.0
 10
487.350008
 20
67.746520
 30
0.0
 10
487.350000
 20
67.746512
 30
0.0
  0
LWPOLYLINE
  5
16c
100
AcDbEntity
  8
0
 62
7
100
AcDbPolyline
 90
17
 70
0
 10
426.623504
 20
69.631752
 30
0.0
 10
426.426480
 20
70.233984
 30
0.0
 10
426.205456
 20
70.667480
 30
0.0
 10
425.987472
 20
70.891744
 30
0.0
 10
425.799568
 20
70.866224
 30
0.0
 10
425.677688
 20
70.235792
 30
0.0
 10
425.874200
 20
69.270808
 30
0.0
 10
426.258496
 20
68.386976
 30
0.0
 10
426.700000
 20
67.999992
 30
0.0
 10
426.802312
 20
68.128744
 30
0.0
 10
426.821992
 20
68.479312
 30
0.0
 10
426.761592
 20
68.998152
 30
0.0
 10
426.623552
 20
69.631720
 30
0.0
 10
426.623552
 20
69.631720
 30
0.0
 10
426.623544
 20
69.631720
 30
0.0
 10
426.623536
 20
69.631720
 30
0.0
 10
426.623504
 20
69.631752
 30
0.0
  0
LWPOLYLINE
  5
16d
100
AcDbEntity
  8
0
 62
7
100
AcDbPolyline
 90
13
 70
0
 10
494.675016
 20
68.862800
 30
0.0
 10
497.045840
 20
69.629616
 30
0.0
 10
497.363496
 20
69.970096
 30
0.0
 10
495.868160
 20
69.841112
 30
0.0
 10
492.800000
 20
69.199528
 30
0.0
 10
491.217816
 20
68.781600
 30
0.0
 10
490.162496
 20
68.429808
 30
0.0
 10
489.725936
 20
68.181120
 30
0.0
 10
490.000000
 20
68.072520
 30
0.0
 10
490.863888
 20
68.115240
 30
0.0
 10
492.033288
 20
68.278472
 30
0.0
 10
493.354800
 20
68.536312
 30
0.0
 10
494.675016
 20
68.862800
 30
0.0
  0
LWPOLYLINE
  5
16e
100
AcDbEntity
  8
0
 62
7
100
AcDbPolyline
 90
17
 70
0
 10
503.600000
 20
73.600000
 30
0.0
 10
504.130664
 20
74.221248
 30
0.0
 10
504.505136
 20
74.730000
 30
0.0
 10
504.689040
 20
75.073752
 30
0.0
 10
504.648000
 20
75.200000
 30
0.0
 10
504.378432
 20
75.073752
 30
0.0
 10
503.940152
 20
74.730000
 30
0.0
 10
503.393800
 20
74.221248
 30
0.0
 10
502.800000
 20
73.600000
 30
0.0
 10
502.269336
 20
72.978752
 30
0.0
 10
501.894864
 20
72.470000
 30
0.0
 10
501.710960
 20
72.126248
 30
0.0
 10
501.752000
 20
72.000000
 30
0.0
 10
502.021568
 20
72.126248
 30
0.0
 10
502.459848
 20
72.470000
 30
0.0
 10
503.006200
 20
72.978752
 30
0.0
 10
503.600000
 20
73.600000
 30
0.0
  0
LWPOLYLINE
  5
16f
100
AcDbEntity
  8
0
 62
7
100
AcDbPolyline
 90
17
 70
0
 10
488.150000
 20
78.946488
 30
0.0
 10
487.704168
 20
79.071496
 30
0.0
 10
487.266456
 20
79.101256
 30
0.0
 10
486.887184
 20
79.037816
 30
0.0
 10
486.616664
 20
78.883320
 30
0.0
 10
486.550024
 20
78.700632
 30
0.0
 10
486.725768
 20
78.560520
 30
0.0
 10
487.109480
 20
78.476760
 30
0.0
 10
487.666704
 20
78.463160
 30
0.0
 10
488.225144
 20
78.519000
 30
0.0
 10
488.497176
 20
78.623488
 30
0.0
 10
488.474776
 20
78.768664
 30
0.0
 10
488.150008
 20
78.946520
 30
0.0
 10
488.150008
 20
78.946512
 30
0.0
 10
488.150008
 20
78.946504
 30
0.0
 10
488.150008
 20
78.946496
 30
0.0
 10
488.150000
 20
78.946488
 30
0.0
  0
LWPOLYLINE
  5
170
100
AcDbEntity
  8
0
 62
7
100
AcDbPolyline
 90
21
 70
0
 10
493.616016
 20
80.408280
 30
0.0
 10
495.267608
 20
81.562304
 30
0.0
 10
496.625144
 20
83.013896
 30
0.0
 10
497.408576
 20
84.392808
 30
0.0
 10
497.337856
 20
85.328808
 30
0.0
 10
497.142312
 20
85.344088
 30
0.0
 10
496.899496
 20
85.096120
 30
0.0
 10
496.640336
 20
84.628928
 30
0.0
 10
496.395728
 20
83.986552
 30
0.0
 10
495.923088
 20
83.187088
 30
0.0
 10
495.045288
 20
82.317560
 30
0.0
 10
493.874440
 20
81.471856
 30
0.0
 10
492.522680
 20
80.743832
 30
0.0
 10
491.314584
 20
80.156648
 30
0.0
 10
490.481456
 20
79.673152
 30
0.0
 10
490.098192
 20
79.343432
 30
0.0
 10
490.239720
 20
79.217560
 30
0.0
 10
490.827792
 20
79.306072
 30
0.0
 10
491.660392
 20
79.560080
 30
0.0
 10
492.626720
 20
79.940504
 30
0.0
 10
493.616016
 20
80.408280
 30
0.0
  0
LWPOLYLINE
  5
171
100
AcDbEntity
  8
0
 62
7
100
AcDbPolyline
 90
13
 70
0
 10
508.731520
 20
83.200000
 30
0.0
 10
508.668720
 20
83.619664
 30
0.0
 10
508.524872
 20
83.692384
 30
0.0
 10
508.301448
 20
83.418880
 30
0.0
 10
508.000000
 20
82.800000
 30
0.0
 10
507.468408
 20
81.354032
 30
0.0
 10
507.291208
 20
80.426880
 30
0.0
 10
507.468408
 20
80.186288
 30
0.0
 10
508.000000
 20
80.800000
 30
0.0
 10
508.297640
 20
81.360624
 30
0.0
 10
508.534776
 20
82.000000
 30
0.0
 10
508.687408
 20
82.639376
 30
0.0
 10
508.731520
 20
83.200000
 30
0.0
  0
LWPOLYLINE
  5
172
100
AcDbEntity
  8
0
 62
7
100
AcDbPolyline
 90
13
 70
0
 10
510.261096
 20
102.400000
 30
0.0
 10
510.152768
 20
110.498520
 30
0.0
 10
509.946600
 20
112.321676
 30
0.0
 10
509.684232
 20
108.083992
 30
0.0
 10
509.407272
 20
98.000000
 30
0.0
 10
509.343672
 20
92.971872
 30
0.0
 10
509.380552
 20
89.335000
 30
0.0
 10
509.507840
 20
87.430624
 30
0.0
 10
509.715424
 20
87.600000
 30
0.0
 10
509.941752
 20
89.757816
 30
0.0
 10
510.120088
 20
93.267504
 30
0.0
 10
510.232512
 20
97.643440
 30
0.0
 10
510.261096
 20
102.400000
 30
0.0
  0
LWPOLYLINE
  5
173
100
AcDbEntity
  8
0
 62
7
100
AcDbPolyline
 90
17
 70
0
 10
499.791456
 20
107.433272
 30
0.0
 10
499.681704
 20
108.541136
 30
0.0
 10
499.592216
 20
107.886024
 30
0.0
 10
499.532216
 20
105.646216
 30
0.0
 10
499.510856
 20
102.000000
 30
0.0
 10
499.534056
 20
98.390592
 30
0.0
 10
499.595176
 20
96.251024
 30
0.0
 10
499.684904
 20
95.744256
 30
0.0
 10
499.794040
 20
97.033272
 30
0.0
 10
499.880656
 20
99.534816
 30
0.0
 10
499.909056
 20
102.329496
 30
0.0
 10
499.879376
 20
105.076064
 30
0.0
 10
499.791656
 20
107.433272
 30
0.0
 10
499.791624
 20
107.433272
 30
0.0
 10
499.791584
 20
107.433272
 30
0.0
 10
499.791552
 20
107.433272
 30
0.0
 10
499.791456
 20
107.433272
 30
0.0
  0
LWPOLYLINE
  5
174
100
AcDbEntity
  8
0
 62
7
100
AcDbPolyline
 90
17
 70
0
 10
498.030936
 20
118.501043
 30
0.0
 10
497.581728
 20
119.422747
 30
0.0
 10
497.285944
 20
119.937182
 30
0.0
 10
497.169008
 20
120.008286
 30
0.0
 10
497.256320
 20
119.600000
 30
0.0
 10
497.482904
 20
118.757813
 30
0.0
 10
497.745160
 20
117.647500
 30
0.0
 10
498.010592
 20
116.413438
 30
0.0
 10
498.246696
 20
115.200000
 30
0.0
 10
498.494624
 20
114.017138
 30
0.0
 10
498.699808
 20
113.449001
 30
0.0
 10
498.872088
 20
113.481625
 30
0.0
 10
499.021304
 20
114.101044
 30
0.0
 10
499.024504
 20
114.974491
 30
0.0
 10
498.838960
 20
116.095224
 30
0.0
 10
498.496824
 20
117.318866
 30
0.0
 10
498.030936
 20
118.501043
 30
0.0
  0
LWPOLYLINE
  5
175
100
AcDbEntity
  8
0
 62
7
100
AcDbPolyline
 90
13
 70
0
 10
509.351464
 20
118.200000
 30
0.0
 10
509.209408
 20
118.522656
 30
0.0
 10
509.093072
 20
118.366250
 30
0.0
 10
509.014432
 20
117.776718
 30
0.0
 10
508.985600
 20
116.800000
 30
0.0
 10
509.014480
 20
115.823282
 30
0.0
 10
509.093120
 20
115.233750
 30
0.0
 10
509.209456
 20
115.077344
 30
0.0
 10
509.351512
 20
115.400000
 30
0.0
 10
509.464704
 20
116.054062
 30
0.0
 10
509.502384
 20
116.800000
 30
0.0
 10
509.464656
 20
117.545938
 30
0.0
 10
509.351464
 20
118.200000
 30
0.0
  0
LWPOLYLINE
  5
176
100
AcDbEntity
  8
0
 62
7
100
AcDbPolyline
 90
13
 70
0
 10
496.800000
 20
121.902044
 30
0.0
 10
496.689528
 20
122.105958
 30
0.0
 10
496.388752
 20
122.437888
 30
0.0
 10
495.943592
 20
122.851895
 30
0.0
 10
495.400000
 20
123.302044
 30
0.0
 10
494.677576
 20
123.853088
 30
0.0
 10
494.400000
 20
124.000001
 30
0.0
 10
494.546912
 20
123.722424
 30
0.0
 10
495.097952
 20
123.000000
 30
0.0
 10
495.804800
 20
122.173663
 30
0.0
 10
496.340888
 20
121.704387
 30
0.0
 10
496.681024
 20
121.608429
 30
0.0
 10
496.800000
 20
121.902044
 30
0.0
  0
LWPOLYLINE
  5
177
100
AcDbEntity
  8
0
 62
7
100
AcDbPolyline
 90
13
 70
0
 10
492.800000
 20
124.800000
 30
0.0
 10
492.239376
 20
125.097642
 30
0.0
 10
491.600000
 20
125.334778
 30
0.0
 10
490.960624
 20
125.487406
 30
0.0
 10
490.400000
 20
125.531522
 30
0.0
 10
489.980336
 20
125.468738
 30
0.0
 10
489.907696
 20
125.324890
 30
0.0
 10
490.181192
 20
125.101476
 30
0.0
 10
490.800000
 20
124.800000
 30
0.0
 10
492.245968
 20
124.268404
 30
0.0
 10
493.173120
 20
124.091206
 30
0.0
 10
493.413712
 20
124.268404
 30
0.0
 10
492.800000
 20
124.800000
 30
0.0
  0
LWPOLYLINE
  5
178
100
AcDbEntity
  8
0
 62
7
100
AcDbPolyline
 90
13
 70
0
 10
487.350000
 20
126.146491
 30
0.0
 10
486.904168
 20
126.271499
 30
0.0
 10
486.466456
 20
126.301259
 30
0.0
 10
486.087184
 20
126.237843
 30
0.0
 10
485.816664
 20
126.083327
 30
0.0
 10
485.750024
 20
125.900641
 30
0.0
 10
485.925768
 20
125.760525
 30
0.0
 10
486.309480
 20
125.676766
 30
0.0
 10
486.866704
 20
125.663150
 30
0.0
 10
487.425144
 20
125.718950
 30
0.0
 10
487.697176
 20
125.823442
 30
0.0
 10
487.674776
 20
125.968621
 30
0.0
 10
487.350000
 20
126.146491
 30
0.0
  0
LWPOLYLINE
  5
179
100
AcDbEntity
  8
0
 62
7
100
AcDbPolyline
 90
13
 70
0
 10
474.152168
 20
126.998364
 30
0.0
 10
469.029872
 20
127.074844
 30
0.0
 10
463.249944
 20
127.100188
 30
0.0
 10
457.521120
 20
127.074428
 30
0.0
 10
452.552168
 20
126.997580
 30
0.0
 10
450.159336
 20
126.901274
 30
0.0
 10
451.444704
 20
126.822522
 30
0.0
 10
456.045760
 20
126.769450
 30
0.0
 10
463.600000
 20
126.750170
 30
0.0
 10
471.115136
 20
126.769994
 30
0.0
 10
475.609704
 20
126.823394
 30
0.0
 10
476.737464
 20
126.902234
 30
0.0
 10
474.152168
 20
126.998364
 30
0.0
  0
LWPOLYLINE
  5
17a
100
AcDbEntity
  8
0
 62
7
100
AcDbPolyline
 90
17
 70
0
 10
503.600000
 20
131.200000
 30
0.0
 10
502.675648
 20
132.131875
 30
0.0
 10
501.858592
 20
132.895000
 30
0.0
 10
501.237400
 20
133.410625
 30
0.0
 10
500.900656
 20
133.600000
 30
0.0
 10
500.926736
 20
133.410625
 30
0.0
 10
501.293544
 20
132.895000
 30
0.0
 10
501.938728
 20
132.131875
 30
0.0
 10
502.800000
 20
131.200000
 30
0.0
 10
503.724352
 20
130.268125
 30
0.0
 10
504.541416
 20
129.505000
 30
0.0
 10
505.162600
 20
128.989375
 30
0.0
 10
505.499344
 20
128.800000
 30
0.0
 10
505.473264
 20
128.989375
 30
0.0
 10
505.106456
 20
129.505000
 30
0.0
 10
504.461272
 20
130.268125
 30
0.0
 10
503.600000
 20
131.200000
 30
0.0
  0
LWPOLYLINE
  5
17b
100
AcDbEntity
  8
0
 62
7
100
AcDbPolyline
 90
17
 70
0
 10
426.149664
 20
134.209327
 30
0.0
 10
426.009576
 20
134.496799
 30
0.0
 10
425.897288
 20
134.251490
 30
0.0
 10
425.824168
 20
133.532767
 30
0.0
 10
425.801688
 20
132.400000
 30
0.0
 10
425.835368
 20
131.300267
 30
0.0
 10
425.915288
 20
130.671490
 30
0.0
 10
426.029384
 20
130.559299
 30
0.0
 10
426.165744
 20
131.009327
 30
0.0
 10
426.272104
 20
131.821588
 30
0.0
 10
426.304504
 20
132.695675
 30
0.0
 10
426.263464
 20
133.526588
 30
0.0
 10
426.149552
 20
134.209327
 30
0.0
 10
426.149552
 20
134.209327
 30
0.0
 10
426.149560
 20
134.209327
 30
0.0
 10
426.149568
 20
134.209327
 30
0.0
 10
426.149664
 20
134.209327
 30
0.0
  0
LWPOLYLINE
  5
17c
100
AcDbEntity
  8
0
 62
7
100
AcDbPolyline
 90
13
 70
0
 10
498.000000
 20
134.828892
 30
0.0
 10
496.973440
 20
135.253635
 30
0.0
 10
495.952496
 20
135.597741
 30
0.0
 10
495.055312
 20
135.825962
 30
0.0
 10
494.400000
 20
135.903054
 30
0.0
 10
494.155000
 20
135.808350
 30
0.0
 10
494.375000
 20
135.568810
 30
0.0
 10
495.007496
 20
135.220629
 30
0.0
 10
496.000000
 20
134.800000
 30
0.0
 10
498.287904
 20
134.012162
 30
0.0
 10
499.528328
 20
133.756451
 30
0.0
 10
499.504568
 20
134.029738
 30
0.0
 10
498.000000
 20
134.828892
 30
0.0
  0
LWPOLYLINE
  5
17d
100
AcDbEntity
  8
0
 62
7
100
AcDbPolyline
 90
13
 70
0
 10
429.200000
 20
136.800000
 30
0.0
 10
429.818840
 20
137.101478
 30
0.0
 10
430.092336
 20
137.324891
 30
0.0
 10
430.019696
 20
137.468740
 30
0.0
 10
429.600000
 20
137.531522
 30
0.0
 10
429.039376
 20
137.487406
 30
0.0
 10
428.400000
 20
137.334778
 30
0.0
 10
427.760624
 20
137.097642
 30
0.0
 10
427.200000
 20
136.800000
 30
0.0
 10
426.586288
 20
136.268404
 30
0.0
 10
426.826880
 20
136.091206
 30
0.0
 10
427.754032
 20
136.268404
 30
0.0
 10
429.200000
 20
136.800000
 30
0.0
  0
LWPOLYLINE
  5
17e
100
AcDbEntity
  8
0
 62
7
100
AcDbPolyline
 90
13
 70
0
 10
492.733336
 20
136.289557
 30
0.0
 10
492.225160
 20
136.436258
 30
0.0
 10
491.087920
 20
136.621644
 30
0.0
 10
489.490056
 20
136.821960
 30
0.0
 10
487.600000
 20
137.013454
 30
0.0
 10
485.741520
 20
137.144318
 30
0.0
 10
484.550952
 20
137.146318
 30
0.0
 10
484.084912
 20
137.023545
 30
0.0
 10
484.400000
 20
136.780144
 30
0.0
 10
486.447632
 20
136.349115
 30
0.0
 10
489.399784
 20
136.071832
 30
0.0
 10
491.935376
 20
136.026064
 30
0.0
 10
492.733336
 20
136.289557
 30
0.0
  0
LWPOLYLINE
  5
17f
100
AcDbEntity
  8
0
 62
7
100
AcDbPolyline
 90
13
 70
0
 10
469.750552
 20
137.398654
 30
0.0
 10
464.067128
 20
137.473950
 30
0.0
 10
457.647656
 20
137.498926
 30
0.0
 10
451.279632
 20
137.473606
 30
0.0
 10
445.750552
 20
137.398006
 30
0.0
 10
443.081784
 20
137.303237
 30
0.0
 10
444.501728
 20
137.225725
 30
0.0
 10
449.608440
 20
137.173469
 30
0.0
 10
458.000000
 20
137.154453
 30
0.0
 10
466.352192
 20
137.173925
 30
0.0
 10
471.351728
 20
137.226461
 30
0.0
 10
472.613032
 20
137.304045
 30
0.0
 10
469.750552
 20
137.398654
 30
0.0
  0
LWPOLYLINE
  5
180
100
AcDbEntity
  8
0
 62
7
100
AcDbPolyline
 90
33
 70
0
 10
523.360000
 20
66.560000
 30
0.0
 10
522.907384
 20
68.797616
 30
0.0
 10
522.611008
 20
74.975656
 30
0.0
 10
522.449128
 20
85.905872
 30
0.0
 10
522.400000
 20
102.400000
 30
0.0
 10
522.449120
 20
118.894129
 30
0.0
 10
522.611000
 20
129.824342
 30
0.0
 10
522.907376
 20
136.002386
 30
0.0
 10
523.360000
 20
138.240000
 30
0.0
 10
524.140680
 20
138.623182
 30
0.0
 10
525.547272
 20
138.927272
 30
0.0
 10
527.420224
 20
139.127727
 30
0.0
 10
529.600000
 20
139.200000
 30
0.0
 10
531.779776
 20
139.127728
 30
0.0
 10
533.652728
 20
138.927274
 30
0.0
 10
535.059320
 20
138.623182
 30
0.0
 10
535.840000
 20
138.240000
 30
0.0
 10
536.292616
 20
136.002385
 30
0.0
 10
536.588992
 20
129.824342
 30
0.0
 10
536.750872
 20
118.894128
 30
0.0
 10
536.800000
 20
102.400000
 30
0.0
 10
536.750880
 20
85.905872
 30
0.0
 10
536.589000
 20
74.975656
 30
0.0
 10
536.292624
 20
68.797616
 30
0.0
 10
535.840000
 20
66.560000
 30
0.0
 10
535.059320
 20
66.176816
 30
0.0
 10
533.652728
 20
65.872728
 30
0.0
 10
531.779776
 20
65.672272
 30
0.0
 10
529.600000
 20
65.600000
 30
0.0
 10
527.420224
 20
65.672240
 30
0.0
 10
525.547272
 20
65.872696
 30
0.0
 10
524.140680
 20
66.176784
 30
0.0
 10
523.360000
 20
66.560000
 30
0.0
  0
LWPOLYLINE
  5
181
100
AcDbEntity
  8
0
 62
7
100
AcDbPolyline
 90
61
 70
0
 10
535.200000
 20
102.400000
 30
0.0
 10
535.152640
 20
116.067519
 30
0.0
 10
535.023736
 20
127.260071
 30
0.0
 10
534.832952
 20
134.822647
 30
0.0
 10
534.599984
 20
137.600241
 30
0.0
 10
534.384104
 20
134.854378
 30
0.0
 10
534.239848
 20
127.377840
 30
0.0
 10
534.179768
 20
116.312502
 30
0.0
 10
534.216488
 20
102.800240
 30
0.0
 10
534.270648
 20
94.100176
 30
0.0
 10
534.324808
 20
85.400120
 30
0.0
 10
534.378968
 20
76.700064
 30
0.0
 10
534.433128
 20
68.000000
 30
0.0
 10
533.228984
 20
68.000000
 30
0.0
 10
532.024848
 20
68.000000
 30
0.0
 10
530.820704
 20
68.000000
 30
0.0
 10
529.616568
 20
68.000000
 30
0.0
 10
528.412432
 20
68.000000
 30
0.0
 10
527.208288
 20
68.000000
 30
0.0
 10
526.004152
 20
68.000000
 30
0.0
 10
524.800016
 20
68.000000
 30
0.0
 10
524.800016
 20
76.587328
 30
0.0
 10
524.800016
 20
85.174656
 30
0.0
 10
524.800016
 20
93.761984
 30
0.0
 10
524.800016
 20
102.349312
 30
0.0
 10
524.800016
 20
110.936640
 30
0.0
 10
524.800016
 20
119.523969
 30
0.0
 10
524.800016
 20
128.111298
 30
0.0
 10
524.800016
 20
136.698626
 30
0.0
 10
525.450016
 20
136.779290
 30
0.0
 10
526.100016
 20
136.859954
 30
0.0
 10
526.750016
 20
136.940619
 30
0.0
 10
527.400016
 20
137.021283
 30
0.0
 10
528.832816
 20
137.207996
 30
0.0
 10
529.267592
 20
137.318486
 30
0.0
 10
528.668576
 20
137.393046
 30
0.0
 10
527.000016
 20
137.471974
 30
0.0
 10
526.250016
 20
137.503982
 30
0.0
 10
525.500016
 20
137.535990
 30
0.0
 10
524.750016
 20
137.567998
 30
0.0
 10
524.000000
 20
137.600000
 30
0.0
 10
524.000000
 20
128.800000
 30
0.0
 10
524.000000
 20
120.000000
 30
0.0
 10
524.000000
 20
111.200000
 30
0.0
 10
524.000000
 20
102.400000
 30
0.0
 10
524.000000
 20
93.600000
 30
0.0
 10
524.000000
 20
84.800000
 30
0.0
 10
524.000000
 20
76.000000
 30
0.0
 10
524.000000
 20
67.200000
 30
0.0
 10
525.400000
 20
67.200000
 30
0.0
 10
526.800000
 20
67.200000
 30
0.0
 10
528.200000
 20
67.200000
 30
0.0
 10
529.600000
 20
67.200000
 30
0.0
 10
531.000000
 20
67.200000
 30
0.0
 10
532.400000
 20
67.200000
 30
0.0
 10
533.800000
 20
67.200000
 30
0.0
 10
535.200000
 20
67.200000
 30
0.0
 10
535.200000
 20
76.000000
 30
0.0
 10
535.200000
 20
84.800000
 30
0.0
 10
535.200000
 20
93.600000
 30
0.0
 10
535.200000
 20
102.400000
 30
0.0
  0
LWPOLYLINE
  5
182
100
AcDbEntity
  8
0
 62
7
100
AcDbPolyline
 90
13
 70
0
 10
532.150000
 20
137.346491
 30
0.0
 10
531.704168
 20
137.471499
 30
0.0
 10
531.266456
 20
137.501259
 30
0.0
 10
530.887184
 20
137.437843
 30
0.0
 10
530.616664
 20
137.283327
 30
0.0
 10
530.550024
 20
137.100641
 30
0.0
 10
530.725768
 20
136.960525
 30
0.0
 10
531.109480
 20
136.876766
 30
0.0
 10
531.666704
 20
136.863150
 30
0.0
 10
532.225144
 20
136.918950
 30
0.0
 10
532.497176
 20
137.023442
 30
0.0
 10
532.474776
 20
137.168621
 30
0.0
 10
532.150000
 20
137.346491
 30
0.0
  0
LWPOLYLINE
  5
183
100
AcDbEntity
  8
0
 62
7
100
AcDbPolyline
 90
49
 70
0
 10
541.333336
 20
66.133336
 30
0.0
 10
541.126248
 20
66.417376
 30
0.0
 10
540.956664
 20
66.796504
 30
0.0
 10
540.842080
 20
67.221216
 30
0.0
 10
540.800000
 20
67.642000
 30
0.0
 10
546.698608
 20
78.782464
 30
0.0
 10
559.837768
 20
101.960544
 30
0.0
 10
573.382456
 20
125.268850
 30
0.0
 10
580.497672
 20
136.800000
 30
0.0
 10
581.783144
 20
137.915091
 30
0.0
 10
583.462216
 20
138.513414
 30
0.0
 10
586.418144
 20
138.755030
 30
0.0
 10
591.534192
 20
138.799998
 30
0.0
 10
596.317224
 20
138.746198
 30
0.0
 10
599.317256
 20
138.529406
 30
0.0
 10
601.121632
 20
138.066534
 30
0.0
 10
602.317680
 20
137.274494
 30
0.0
 10
609.528944
 20
125.489183
 30
0.0
 10
622.927320
 20
101.659158
 30
0.0
 10
635.763040
 20
78.002318
 30
0.0
 10
641.286344
 20
66.736526
 30
0.0
 10
640.746728
 20
66.198062
 30
0.0
 10
639.505552
 20
65.849590
 30
0.0
 10
637.389456
 20
65.663518
 30
0.0
 10
634.225104
 20
65.612238
 30
0.0
 10
631.582992
 20
65.663198
 30
0.0
 10
629.286608
 20
65.793382
 30
0.0
 10
627.582328
 20
65.982982
 30
0.0
 10
626.716528
 20
66.212206
 30
0.0
 10
625.801576
 20
67.481982
 30
0.0
 10
623.963456
 20
70.504806
 30
0.0
 10
621.468984
 20
74.828270
 30
0.0
 10
618.584976
 20
79.999958
 30
0.0
 10
604.774568
 20
105.058934
 30
0.0
 10
597.195536
 20
118.326988
 30
0.0
 10
593.560440
 20
123.582507
 30
0.0
 10
591.581832
 20
124.603886
 30
0.0
 10
589.938176
 20
124.210673
 30
0.0
 10
587.434456
 20
121.018595
 30
0.0
 10
582.430800
 20
112.461125
 30
0.0
 10
573.287328
 20
95.971734
 30
0.0
 10
566.995528
 20
84.714638
 30
0.0
 10
561.627552
 20
75.380694
 30
0.0
 10
557.752608
 20
68.941294
 30
0.0
 10
555.939920
 20
66.367806
 30
0.0
 10
553.092504
 20
65.850630
 30
0.0
 10
548.340512
 20
65.617182
 30
0.0
 10
543.736584
 20
65.700414
 30
0.0
 10
541.333336
 20
66.133336
 30
0.0
  0
LWPOLYLINE
  5
184
100
AcDbEntity
  8
0
 62
7
100
AcDbPolyline
 90
13
 70
0
 10
556.296672
 20
67.832808
 30
0.0
 10
556.216240
 20
68.056512
 30
0.0
 10
555.708112
 20
68.197800
 30
0.0
 10
554.856072
 20
68.245080
 30
0.0
 10
553.743880
 20
68.186680
 30
0.0
 10
550.854272
 20
67.862968
 30
0.0
 10
549.615936
 20
67.600496
 30
0.0
 10
550.043808
 20
67.407640
 30
0.0
 10
552.152784
 20
67.292784
 30
0.0
 10
553.640784
 20
67.306704
 30
0.0
 10
554.918072
 20
67.413152
 30
0.0
 10
555.848696
 20
67.594432
 30
0.0
 10
556.296672
 20
67.832808
 30
0.0
  0
LWPOLYLINE
  5
185
100
AcDbEntity
  8
0
 62
7
100
AcDbPolyline
 90
13
 70
0
 10
632.800000
 20
67.515968
 30
0.0
 10
632.552808
 20
67.662232
 30
0.0
 10
631.879768
 20
67.826888
 30
0.0
 10
630.883664
 20
67.989768
 30
0.0
 10
629.667296
 20
68.130696
 30
0.0
 10
628.480904
 20
68.198216
 30
0.0
 10
627.566424
 20
68.161176
 30
0.0
 10
627.014184
 20
68.029896
 30
0.0
 10
626.914504
 20
67.814768
 30
0.0
 10
627.994512
 20
67.424768
 30
0.0
 10
629.999824
 20
67.211248
 30
0.0
 10
631.933856
 20
67.224768
 30
0.0
 10
632.800000
 20
67.515968
 30
0.0
  0
LWPOLYLINE
  5
186
100
AcDbEntity
  8
0
 62
7
100
AcDbPolyline
 90
17
 70
0
 10
640.000000
 20
68.047216
 30
0.0
 10
639.936880
 20
68.337160
 30
0.0
 10
639.765008
 20
68.500320
 30
0.0
 10
639.510632
 20
68.525120
 30
0.0
 10
639.200000
 20
68.400000
 30
0.0
 10
638.889376
 20
68.180184
 30
0.0
 10
638.635000
 20
67.947176
 30
0.0
 10
638.463128
 20
67.728776
 30
0.0
 10
638.400008
 20
67.552784
 30
0.0
 10
638.463128
 20
67.415808
 30
0.0
 10
638.635000
 20
67.303632
 30
0.0
 10
638.889376
 20
67.227872
 30
0.0
 10
639.200000
 20
67.200000
 30
0.0
 10
639.510624
 20
67.266880
 30
0.0
 10
639.765000
 20
67.448904
 30
0.0
 10
639.936872
 20
67.718288
 30
0.0
 10
640.000000
 20
68.047216
 30
0.0
  0
LWPOLYLINE
  5
187
100
AcDbEntity
  8
0
 62
7
100
AcDbPolyline
 90
13
 70
0
 10
545.445496
 20
73.221168
 30
0.0
 10
545.228504
 20
73.281888
 30
0.0
 10
544.968752
 20
73.116096
 30
0.0
 10
544.698856
 20
72.756184
 30
0.0
 10
544.451432
 20
72.234528
 30
0.0
 10
544.227144
 20
71.573272
 30
0.0
 10
544.216264
 20
71.288968
 30
0.0
 10
544.434920
 20
71.365528
 30
0.0
 10
544.899272
 20
71.786728
 30
0.0
 10
545.249912
 20
72.205168
 30
0.0
 10
545.469776
 20
72.615112
 30
0.0
 10
545.540976
 20
72.969488
 30
0.0
 10
545.445496
 20
73.221168
 30
0.0
  0
LWPOLYLINE
  5
188
100
AcDbEntity
  8
0
 62
7
100
AcDbPolyline
 90
13
 70
0
 10
548.645496
 20
78.821168
 30
0.0
 10
548.428504
 20
78.881888
 30
0.0
 10
548.168752
 20
78.716096
 30
0.0
 10
547.898856
 20
78.356184
 30
0.0
 10
547.651432
 20
77.834528
 30
0.0
 10
547.427144
 20
77.173272
 30
0.0
 10
547.416264
 20
76.888968
 30
0.0
 10
547.634920
 20
76.965528
 30
0.0
 10
548.099272
 20
77.386728
 30
0.0
 10
548.449912
 20
77.805168
 30
0.0
 10
548.669776
 20
78.215112
 30
0.0
 10
548.740976
 20
78.569488
 30
0.0
 10
548.645496
 20
78.821168
 30
0.0
  0
LWPOLYLINE
  5
189
100
AcDbEntity
  8
0
 62
7
100
AcDbPolyline
 90
17
 70
0
 10
550.400000
 20
81.600000
 30
0.0
 10
550.700920
 20
82.221248
 30
0.0
 10
550.887256
 20
82.730000
 30
0.0
 10
550.944056
 20
83.073752
 30
0.0
 10
550.856312
 20
83.200000
 30
0.0
 10
550.633432
 20
83.073752
 30
0.0
 10
550.322272
 20
82.730000
 30
0.0
 10
549.964064
 20
82.221248
 30
0.0
 10
549.600000
 20
81.600000
 30
0.0
 10
549.299080
 20
80.978752
 30
0.0
 10
549.112744
 20
80.470000
 30
0.0
 10
549.055944
 20
80.126248
 30
0.0
 10
549.143688
 20
80.000000
 30
0.0
 10
549.366568
 20
80.126248
 30
0.0
 10
549.677728
 20
80.470000
 30
0.0
 10
550.035936
 20
80.978752
 30
0.0
 10
550.400000
 20
81.600000
 30
0.0
  0
LWPOLYLINE
  5
18a
100
AcDbEntity
  8
0
 62
7
100
AcDbPolyline
 90
17
 70
0
 10
564.000000
 20
81.600000
 30
0.0
 10
564.300920
 20
82.221248
 30
0.0
 10
564.487256
 20
82.730000
 30
0.0
 10
564.544056
 20
83.073752
 30
0.0
 10
564.456312
 20
83.200000
 30
0.0
 10
564.233432
 20
83.073752
 30
0.0
 10
563.922272
 20
82.730000
 30
0.0
 10
563.564064
 20
82.221248
 30
0.0
 10
563.200000
 20
81.600000
 30
0.0
 10
562.899080
 20
80.978752
 30
0.0
 10
562.712744
 20
80.470000
 30
0.0
 10
562.655944
 20
80.126248
 30
0.0
 10
562.743688
 20
80.000000
 30
0.0
 10
562.966568
 20
80.126248
 30
0.0
 10
563.277728
 20
80.470000
 30
0.0
 10
563.635936
 20
80.978752
 30
0.0
 10
564.000000
 20
81.600000
 30
0.0
  0
LWPOLYLINE
  5
18b
100
AcDbEntity
  8
0
 62
7
100
AcDbPolyline
 90
13
 70
0
 10
632.276064
 20
82.034504
 30
0.0
 10
632.062040
 20
82.483752
 30
0.0
 10
631.829496
 20
82.794368
 30
0.0
 10
631.606480
 20
82.938360
 30
0.0
 10
631.421064
 20
82.887720
 30
0.0
 10
631.314632
 20
82.672352
 30
0.0
 10
631.306632
 20
82.367808
 30
0.0
 10
631.392384
 20
82.014592
 30
0.0
 10
631.567048
 20
81.653216
 30
0.0
 10
632.086688
 20
80.976088
 30
0.0
 10
632.420200
 20
80.836584
 30
0.0
 10
632.504376
 20
81.200720
 30
0.0
 10
632.276064
 20
82.034504
 30
0.0
  0
LWPOLYLINE
  5
18c
100
AcDbEntity
  8
0
 62
7
100
AcDbPolyline
 90
17
 70
0
 10
553.200000
 20
86.400000
 30
0.0
 10
553.650328
 20
87.331872
 30
0.0
 10
553.959016
 20
88.095000
 30
0.0
 10
554.098472
 20
88.610624
 30
0.0
 10
554.041112
 20
88.800000
 30
0.0
 10
553.787872
 20
88.610624
 30
0.0
 10
553.394040
 20
88.095000
 30
0.0
 10
552.913480
 20
87.331872
 30
0.0
 10
552.400000
 20
86.400000
 30
0.0
 10
551.949672
 20
85.468128
 30
0.0
 10
551.640984
 20
84.705000
 30
0.0
 10
551.501528
 20
84.189376
 30
0.0
 10
551.558888
 20
84.000000
 30
0.0
 10
551.812128
 20
84.189376
 30
0.0
 10
552.205960
 20
84.705000
 30
0.0
 10
552.686520
 20
85.468128
 30
0.0
 10
553.200000
 20
86.400000
 30
0.0
  0
LWPOLYLINE
  5
18d
100
AcDbEntity
  8
0
 62
7
100
AcDbPolyline
 90
17
 70
0
 10
630.000000
 20
86.400000
 30
0.0
 10
629.486544
 20
87.331872
 30
0.0
 10
629.005984
 20
88.095000
 30
0.0
 10
628.612152
 20
88.610624
 30
0.0
 10
628.358912
 20
88.800000
 30
0.0
 10
628.301552
 20
88.610624
 30
0.0
 10
628.441008
 20
88.095000
 30
0.0
 10
628.749696
 20
87.331872
 30
0.0
 10
629.200000
 20
86.400000
 30
0.0
 10
629.713456
 20
85.468128
 30
0.0
 10
630.194016
 20
84.705000
 30
0.0
 10
630.587848
 20
84.189376
 30
0.0
 10
630.841088
 20
84.000000
 30
0.0
 10
630.898448
 20
84.189376
 30
0.0
 10
630.758992
 20
84.705000
 30
0.0
 10
630.450304
 20
85.468128
 30
0.0
 10
630.000000
 20
86.400000
 30
0.0
  0
LWPOLYLINE
  5
18e
100
AcDbEntity
  8
0
 62
7
100
AcDbPolyline
 90
17
 70
0
 10
556.800000
 20
92.800000
 30
0.0
 10
557.100920
 20
93.421248
 30
0.0
 10
557.287256
 20
93.930000
 30
0.0
 10
557.344056
 20
94.273752
 30
0.0
 10
557.256312
 20
94.400000
 30
0.0
 10
557.033432
 20
94.273752
 30
0.0
 10
556.722272
 20
93.930000
 30
0.0
 10
556.364064
 20
93.421248
 30
0.0
 10
556.000000
 20
92.800000
 30
0.0
 10
555.699080
 20
92.178752
 30
0.0
 10
555.512744
 20
91.670000
 30
0.0
 10
555.455944
 20
91.326248
 30
0.0
 10
555.543688
 20
91.200000
 30
0.0
 10
555.766568
 20
91.326248
 30
0.0
 10
556.077728
 20
91.670000
 30
0.0
 10
556.435936
 20
92.178752
 30
0.0
 10
556.800000
 20
92.800000
 30
0.0
  0
LWPOLYLINE
  5
18f
100
AcDbEntity
  8
0
 62
7
100
AcDbPolyline
 90
13
 70
0
 10
570.705248
 20
94.041552
 30
0.0
 10
570.835144
 20
94.498936
 30
0.0
 10
570.820584
 20
94.790024
 30
0.0
 10
570.669728
 20
94.895072
 30
0.0
 10
570.390872
 20
94.794336
 30
0.0
 10
570.083808
 20
94.545160
 30
0.0
 10
569.832344
 20
94.228016
 30
0.0
 10
569.662432
 20
93.883640
 30
0.0
 10
569.600032
 20
93.552784
 30
0.0
 10
569.697936
 20
92.948784
 30
0.0
 10
569.953224
 20
92.845912
 30
0.0
 10
570.308224
 20
93.218664
 30
0.0
 10
570.705248
 20
94.041552
 30
0.0
  0
LWPOLYLINE
  5
190
100
AcDbEntity
  8
0
 62
7
100
AcDbPolyline
 90
17
 70
0
 10
560.000000
 20
98.400000
 30
0.0
 10
560.300920
 20
99.021248
 30
0.0
 10
560.487256
 20
99.530000
 30
0.0
 10
560.544056
 20
99.873752
 30
0.0
 10
560.456312
 20
100.000000
 30
0.0
 10
560.233432
 20
99.873752
 30
0.0
 10
559.922272
 20
99.530000
 30
0.0
 10
559.564064
 20
99.021248
 30
0.0
 10
559.200000
 20
98.400000
 30
0.0
 10
558.899080
 20
97.778752
 30
0.0
 10
558.712744
 20
97.270000
 30
0.0
 10
558.655944
 20
96.926248
 30
0.0
 10
558.743688
 20
96.800000
 30
0.0
 10
558.966568
 20
96.926248
 30
0.0
 10
559.277728
 20
97.270000
 30
0.0
 10
559.635936
 20
97.778752
 30
0.0
 10
560.000000
 20
98.400000
 30
0.0
  0
LWPOLYLINE
  5
191
100
AcDbEntity
  8
0
 62
7
100
AcDbPolyline
 90
13
 70
0
 10
610.499272
 20
98.613336
 30
0.0
 10
610.034920
 20
99.034536
 30
0.0
 10
609.816264
 20
99.111016
 30
0.0
 10
609.827144
 20
98.826712
 30
0.0
 10
610.051432
 20
98.165456
 30
0.0
 10
610.298856
 20
97.643800
 30
0.0
 10
610.568752
 20
97.283888
 30
0.0
 10
610.828504
 20
97.118096
 30
0.0
 10
611.045496
 20
97.178816
 30
0.0
 10
611.140944
 20
97.430560
 30
0.0
 10
611.069744
 20
97.784936
 30
0.0
 10
610.849880
 20
98.194880
 30
0.0
 10
610.499272
 20
98.613336
 30
0.0
  0
LWPOLYLINE
  5
192
100
AcDbEntity
  8
0
 62
7
100
AcDbPolyline
 90
17
 70
0
 10
576.026376
 20
103.600000
 30
0.0
 10
576.631104
 20
104.445640
 30
0.0
 10
576.805920
 20
104.786880
 30
0.0
 10
576.534368
 20
104.660192
 30
0.0
 10
575.800000
 20
104.102048
 30
0.0
 10
575.256408
 20
103.609816
 30
0.0
 10
574.811248
 20
103.081224
 30
0.0
 10
574.510472
 20
102.579712
 30
0.0
 10
574.400000
 20
102.168712
 30
0.0
 10
574.417840
 20
101.870656
 30
0.0
 10
574.466480
 20
101.676648
 30
0.0
 10
574.538480
 20
101.603128
 30
0.0
 10
574.626376
 20
101.666648
 30
0.0
 10
574.806880
 20
101.922328
 30
0.0
 10
575.131008
 20
102.372064
 30
0.0
 10
575.552816
 20
102.952432
 30
0.0
 10
576.026376
 20
103.600000
 30
0.0
  0
LWPOLYLINE
  5
193
100
AcDbEntity
  8
0
 62
7
100
AcDbPolyline
 90
13
 70
0
 10
620.276064
 20
103.634480
 30
0.0
 10
620.062040
 20
104.083728
 30
0.0
 10
619.829496
 20
104.394344
 30
0.0
 10
619.606480
 20
104.538336
 30
0.0
 10
619.421064
 20
104.487696
 30
0.0
 10
619.314632
 20
104.272328
 30
0.0
 10
619.306632
 20
103.967784
 30
0.0
 10
619.392384
 20
103.614568
 30
0.0
 10
619.567048
 20
103.253192
 30
0.0
 10
620.086688
 20
102.576064
 30
0.0
 10
620.420200
 20
102.436560
 30
0.0
 10
620.504376
 20
102.800696
 30
0.0
 10
620.276064
 20
103.634480
 30
0.0
  0
LWPOLYLINE
  5
194
100
AcDbEntity
  8
0
 62
7
100
AcDbPolyline
 90
17
 70
0
 10
604.800000
 20
108.800000
 30
0.0
 10
604.435952
 20
109.421248
 30
0.0
 10
604.077744
 20
109.930000
 30
0.0
 10
603.766584
 20
110.273752
 30
0.0
 10
603.543704
 20
110.400000
 30
0.0
 10
603.455960
 20
110.273752
 30
0.0
 10
603.512760
 20
109.930000
 30
0.0
 10
603.699096
 20
109.421248
 30
0.0
 10
604.000000
 20
108.800000
 30
0.0
 10
604.364048
 20
108.178752
 30
0.0
 10
604.722256
 20
107.670000
 30
0.0
 10
605.033416
 20
107.326248
 30
0.0
 10
605.256296
 20
107.200000
 30
0.0
 10
605.344040
 20
107.326248
 30
0.0
 10
605.287240
 20
107.670000
 30
0.0
 10
605.100904
 20
108.178752
 30
0.0
 10
604.800000
 20
108.800000
 30
0.0
  0
LWPOLYLINE
  5
195
100
AcDbEntity
  8
0
 62
7
100
AcDbPolyline
 90
13
 70
0
 10
567.122096
 20
110.744568
 30
0.0
 10
566.889944
 20
110.754008
 30
0.0
 10
566.540728
 20
110.496776
 30
0.0
 10
566.121744
 20
110.018216
 30
0.0
 10
565.680312
 20
109.363632
 30
0.0
 10
565.119472
 20
108.407416
 30
0.0
 10
564.975584
 20
108.045624
 30
0.0
 10
565.279728
 20
108.247168
 30
0.0
 10
566.062976
 20
108.980968
 30
0.0
 10
566.592600
 20
109.547360
 30
0.0
 10
566.968832
 20
110.068672
 30
0.0
 10
567.156912
 20
110.487040
 30
0.0
 10
567.122096
 20
110.744568
 30
0.0
  0
LWPOLYLINE
  5
196
100
AcDbEntity
  8
0
 62
7
100
AcDbPolyline
 90
17
 70
0
 10
580.000000
 20
110.400000
 30
0.0
 10
580.300920
 20
111.021248
 30
0.0
 10
580.487256
 20
111.530000
 30
0.0
 10
580.544056
 20
111.873750
 30
0.0
 10
580.456296
 20
112.000000
 30
0.0
 10
580.233416
 20
111.873750
 30
0.0
 10
579.922256
 20
111.530000
 30
0.0
 10
579.564048
 20
111.021248
 30
0.0
 10
579.200000
 20
110.400000
 30
0.0
 10
578.899080
 20
109.778752
 30
0.0
 10
578.712744
 20
109.270000
 30
0.0
 10
578.655944
 20
108.926248
 30
0.0
 10
578.743688
 20
108.800000
 30
0.0
 10
578.966568
 20
108.926248
 30
0.0
 10
579.277728
 20
109.270000
 30
0.0
 10
579.635936
 20
109.778752
 30
0.0
 10
580.000000
 20
110.400000
 30
0.0
  0
LWPOLYLINE
  5
197
100
AcDbEntity
  8
0
 62
7
100
AcDbPolyline
 90
13
 70
0
 10
616.276064
 20
110.834504
 30
0.0
 10
616.062040
 20
111.283752
 30
0.0
 10
615.829496
 20
111.594370
 30
0.0
 10
615.606480
 20
111.738361
 30
0.0
 10
615.421064
 20
111.687729
 30
0.0
 10
615.314632
 20
111.472361
 30
0.0
 10
615.306632
 20
111.167818
 30
0.0
 10
615.392384
 20
110.814602
 30
0.0
 10
615.567048
 20
110.453226
 30
0.0
 10
616.086688
 20
109.776098
 30
0.0
 10
616.420200
 20
109.636594
 30
0.0
 10
616.504376
 20
110.000730
 30
0.0
 10
616.276064
 20
110.834504
 30
0.0
  0
LWPOLYLINE
  5
198
100
AcDbEntity
  8
0
 62
7
100
AcDbPolyline
 90
17
 70
0
 10
583.600000
 20
116.800000
 30
0.0
 10
584.050328
 20
117.731875
 30
0.0
 10
584.359016
 20
118.495000
 30
0.0
 10
584.498472
 20
119.010625
 30
0.0
 10
584.441088
 20
119.200000
 30
0.0
 10
584.187848
 20
119.010625
 30
0.0
 10
583.794016
 20
118.495000
 30
0.0
 10
583.313456
 20
117.731875
 30
0.0
 10
582.800000
 20
116.800000
 30
0.0
 10
582.349672
 20
115.868125
 30
0.0
 10
582.040984
 20
115.105000
 30
0.0
 10
581.901528
 20
114.589375
 30
0.0
 10
581.958888
 20
114.400000
 30
0.0
 10
582.212128
 20
114.589375
 30
0.0
 10
582.605960
 20
115.105000
 30
0.0
 10
583.086520
 20
115.868125
 30
0.0
 10
583.600000
 20
116.800000
 30
0.0
  0
LWPOLYLINE
  5
199
100
AcDbEntity
  8
0
 62
7
100
AcDbPolyline
 90
13
 70
0
 10
613.437064
 20
115.963618
 30
0.0
 10
613.030744
 20
116.543574
 30
0.0
 10
612.646280
 20
116.966788
 30
0.0
 10
612.327016
 20
117.193250
 30
0.0
 10
612.116280
 20
117.182954
 30
0.0
 10
612.199656
 20
116.603467
 30
0.0
 10
612.761480
 20
115.662901
 30
0.0
 10
613.497816
 20
114.786623
 30
0.0
 10
614.104736
 20
114.400004
 30
0.0
 10
614.147616
 20
114.523383
 30
0.0
 10
614.036016
 20
114.859317
 30
0.0
 10
613.791872
 20
115.356498
 30
0.0
 10
613.437064
 20
115.963618
 30
0.0
  0
LWPOLYLINE
  5
19a
100
AcDbEntity
  8
0
 62
7
100
AcDbPolyline
 90
13
 70
0
 10
571.045496
 20
118.021169
 30
0.0
 10
570.828504
 20
118.081865
 30
0.0
 10
570.568752
 20
117.916069
 30
0.0
 10
570.298856
 20
117.556157
 30
0.0
 10
570.051432
 20
117.034503
 30
0.0
 10
569.827144
 20
116.373245
 30
0.0
 10
569.816264
 20
116.088946
 30
0.0
 10
570.034920
 20
116.165466
 30
0.0
 10
570.499272
 20
116.586666
 30
0.0
 10
570.849912
 20
117.005107
 30
0.0
 10
571.069776
 20
117.415051
 30
0.0
 10
571.140976
 20
117.769428
 30
0.0
 10
571.045496
 20
118.021169
 30
0.0
  0
LWPOLYLINE
  5
19b
100
AcDbEntity
  8
0
 62
7
100
AcDbPolyline
 90
13
 70
0
 10
574.245496
 20
123.621169
 30
0.0
 10
574.028504
 20
123.681865
 30
0.0
 10
573.768752
 20
123.516069
 30
0.0
 10
573.498856
 20
123.156157
 30
0.0
 10
573.251432
 20
122.634503
 30
0.0
 10
573.027144
 20
121.973245
 30
0.0
 10
573.016264
 20
121.688946
 30
0.0
 10
573.234920
 20
121.765466
 30
0.0
 10
573.699272
 20
122.186666
 30
0.0
 10
574.049912
 20
122.605107
 30
0.0
 10
574.269776
 20
123.015051
 30
0.0
 10
574.340976
 20
123.369428
 30
0.0
 10
574.245496
 20
123.621169
 30
0.0
  0
LWPOLYLINE
  5
19c
100
AcDbEntity
  8
0
 62
7
100
AcDbPolyline
 90
17
 70
0
 10
595.814344
 20
124.800000
 30
0.0
 10
595.368640
 20
125.421250
 30
0.0
 10
594.893752
 20
125.930000
 30
0.0
 10
594.446464
 20
126.273750
 30
0.0
 10
594.083576
 20
126.400000
 30
0.0
 10
593.913776
 20
126.273750
 30
0.0
 10
593.992256
 20
125.930000
 30
0.0
 10
594.295496
 20
125.421250
 30
0.0
 10
594.800000
 20
124.800000
 30
0.0
 10
595.384536
 20
124.178750
 30
0.0
 10
595.905704
 20
123.670000
 30
0.0
 10
596.306712
 20
123.326250
 30
0.0
 10
596.530768
 20
123.200000
 30
0.0
 10
596.561728
 20
123.326250
 30
0.0
 10
596.436968
 20
123.670000
 30
0.0
 10
596.180008
 20
124.178750
 30
0.0
 10
595.814344
 20
124.800000
 30
0.0
  0
LWPOLYLINE
  5
19d
100
AcDbEntity
  8
0
 62
7
100
AcDbPolyline
 90
17
 70
0
 10
576.000000
 20
126.400000
 30
0.0
 10
576.300920
 20
127.021250
 30
0.0
 10
576.487256
 20
127.530000
 30
0.0
 10
576.544056
 20
127.873750
 30
0.0
 10
576.456296
 20
128.000000
 30
0.0
 10
576.233416
 20
127.873750
 30
0.0
 10
575.922256
 20
127.530000
 30
0.0
 10
575.564048
 20
127.021250
 30
0.0
 10
575.200000
 20
126.400000
 30
0.0
 10
574.899080
 20
125.778750
 30
0.0
 10
574.712744
 20
125.270000
 30
0.0
 10
574.655944
 20
124.926250
 30
0.0
 10
574.743688
 20
124.800000
 30
0.0
 10
574.966568
 20
124.926250
 30
0.0
 10
575.277728
 20
125.270000
 30
0.0
 10
575.635936
 20
125.778750
 30
0.0
 10
576.000000
 20
126.400000
 30
0.0
  0
LWPOLYLINE
  5
19e
100
AcDbEntity
  8
0
 62
7
100
AcDbPolyline
 90
13
 70
0
 10
589.221168
 20
126.245498
 30
0.0
 10
588.969424
 20
126.340946
 30
0.0
 10
588.615048
 20
126.269778
 30
0.0
 10
588.205104
 20
126.049912
 30
0.0
 10
587.786664
 20
125.699273
 30
0.0
 10
587.365464
 20
125.234929
 30
0.0
 10
587.288984
 20
125.016267
 30
0.0
 10
587.573280
 20
125.027147
 30
0.0
 10
588.234544
 20
125.251435
 30
0.0
 10
588.756200
 20
125.498862
 30
0.0
 10
589.116112
 20
125.768760
 30
0.0
 10
589.281904
 20
126.028511
 30
0.0
 10
589.221168
 20
126.245498
 30
0.0
  0
LWPOLYLINE
  5
19f
100
AcDbEntity
  8
0
 62
7
100
AcDbPolyline
 90
17
 70
0
 10
578.800000
 20
131.200000
 30
0.0
 10
579.250328
 20
132.131875
 30
0.0
 10
579.559016
 20
132.895000
 30
0.0
 10
579.698472
 20
133.410625
 30
0.0
 10
579.641088
 20
133.600000
 30
0.0
 10
579.387848
 20
133.410625
 30
0.0
 10
578.994016
 20
132.895000
 30
0.0
 10
578.513456
 20
132.131875
 30
0.0
 10
578.000000
 20
131.200000
 30
0.0
 10
577.549672
 20
130.268125
 30
0.0
 10
577.240984
 20
129.505000
 30
0.0
 10
577.101528
 20
128.989375
 30
0.0
 10
577.158888
 20
128.800000
 30
0.0
 10
577.412128
 20
128.989375
 30
0.0
 10
577.805960
 20
129.505000
 30
0.0
 10
578.286520
 20
130.268125
 30
0.0
 10
578.800000
 20
131.200000
 30
0.0
  0
LWPOLYLINE
  5
1a0
100
AcDbEntity
  8
0
 62
7
100
AcDbPolyline
 90
13
 70
0
 10
603.223848
 20
134.355445
 30
0.0
 10
602.831288
 20
135.002246
 30
0.0
 10
602.377816
 20
135.613500
 30
0.0
 10
601.919576
 20
136.120352
 30
0.0
 10
601.512720
 20
136.453944
 30
0.0
 10
601.280040
 20
136.499216
 30
0.0
 10
601.296040
 20
136.221041
 30
0.0
 10
601.544464
 20
135.670454
 30
0.0
 10
602.009008
 20
134.898497
 30
0.0
 10
603.045320
 20
133.463198
 30
0.0
 10
603.672784
 20
132.858697
 30
0.0
 10
603.772056
 20
133.138332
 30
0.0
 10
603.223848
 20
134.355445
 30
0.0
  0
LWPOLYLINE
  5
1a1
100
AcDbEntity
  8
0
 62
7
100
AcDbPolyline
 90
17
 70
0
 10
581.600000
 20
135.600000
 30
0.0
 10
581.955128
 20
136.065938
 30
0.0
 10
582.185864
 20
136.447500
 30
0.0
 10
582.272640
 20
136.705313
 30
0.0
 10
582.195912
 20
136.800000
 30
0.0
 10
581.962016
 20
136.705313
 30
0.0
 10
581.620864
 20
136.447500
 30
0.0
 10
581.218256
 20
136.065938
 30
0.0
 10
580.800000
 20
135.600000
 30
0.0
 10
580.444872
 20
135.134062
 30
0.0
 10
580.214136
 20
134.752500
 30
0.0
 10
580.127360
 20
134.494687
 30
0.0
 10
580.204080
 20
134.400000
 30
0.0
 10
580.437976
 20
134.494687
 30
0.0
 10
580.779128
 20
134.752500
 30
0.0
 10
581.181736
 20
135.134062
 30
0.0
 10
581.600000
 20
135.600000
 30
0.0
  0
LWPOLYLINE
  5
1a2
100
AcDbEntity
  8
0
 62
7
100
AcDbPolyline
 90
13
 70
0
 10
594.611000
 20
137.363145
 30
0.0
 10
593.741904
 20
137.470819
 30
0.0
 10
592.698032
 20
137.508771
 30
0.0
 10
591.610656
 20
137.476635
 30
0.0
 10
590.611000
 20
137.374062
 30
0.0
 10
590.068136
 20
137.243385
 30
0.0
 10
590.224480
 20
137.134731
 30
0.0
 10
591.021336
 20
137.059427
 30
0.0
 10
592.400000
 20
137.028803
 30
0.0
 10
593.811960
 20
137.051803
 30
0.0
 10
594.699480
 20
137.122507
 30
0.0
 10
594.990008
 20
137.229942
 30
0.0
 10
594.611000
 20
137.363145
 30
0.0
  0
ENDSEC
  0
SECTION
  2
OBJECTS
  0
DICTIONARY
  5
C
330
0
100
AcDbDictionary
  3
ACAD_GROUP
350
D
  3
ACAD_MLINESTYLE
350
17
  0
DICTIONARY
  5
D
330
C
100
AcDbDictionary
  0
DICTIONARY
  5
1A
330
C
100
AcDbDictionary
  0
DICTIONARY
  5
17
330
C
100
AcDbDictionary
  3
STANDARD
350
18
  0
DICTIONARY
  5
19
330
C
100
AcDbDictionary
  0
ENDSEC
  0
EOF
